<svg width="191" height="70" viewBox="0 0 191 70" fill="none" xmlns="http://www.w3.org/2000/svg">
<path d="M109.13 0.72915C108.873 0.898251 108.574 1.36328 108.403 1.74376C107.976 2.88519 105.284 2.80064 104.985 1.65921C104.857 1.1519 104.387 0.813701 103.874 0.813701C103.019 0.813701 102.977 1.02508 102.977 4.95668C102.977 7.62002 103.147 9.26875 103.489 9.60695C103.788 9.90288 105.369 10.1143 107.549 10.1143C110.796 10.1143 111.095 10.0297 111.095 9.26875C111.095 8.5078 110.796 8.42325 108.061 8.42325H105.07L105.198 6.39403L105.327 4.4071H108.318H111.309L111.437 3.01201C111.651 0.982801 110.454 -0.15863 109.13 0.72915ZM110.668 1.87058C110.668 2.20878 110.283 2.50471 109.813 2.50471C108.959 2.50471 108.702 2.03968 109.258 1.53238C109.77 0.982801 110.668 1.23645 110.668 1.87058Z" fill="#F0EEE8"/>
<path d="M84.1777 2.67428C84.1777 4.15391 84.3487 4.57666 85.0323 4.74577C85.716 4.91487 85.8869 4.74577 85.8869 3.94254C85.8869 3.01248 86.0578 2.92793 88.237 2.92793C90.5871 2.92793 90.5871 2.92793 90.3307 4.06936C90.1598 4.74577 89.8607 5.59127 89.647 6.01402C89.1343 7.02863 86.7842 8.42371 85.6305 8.42371C84.605 8.42371 84.0923 9.26922 84.5623 10.0302C85.0323 10.7489 89.0916 9.60742 90.4162 8.38144C91.5271 7.36683 92.7235 4.02709 92.7235 1.99787V0.814166H88.4506H84.1777V2.67428Z" fill="#F0EEE8"/>
<path d="M93.4509 1.65938C93.6645 2.37806 94.0491 2.50488 95.9719 2.50488C97.9801 2.50488 98.2792 2.42033 98.2792 1.65938C98.2792 0.898423 97.9801 0.813872 95.7582 0.813872C93.4509 0.813872 93.2372 0.898423 93.4509 1.65938Z" fill="#F0EEE8"/>
<path d="M121.78 2.29368C121.78 3.26601 121.909 3.35056 123.96 3.35056C126.011 3.35056 126.096 3.39283 125.84 4.28061C125.412 5.59115 123.66 7.40898 122.165 8.00084C121.31 8.38131 120.926 8.84634 120.926 9.48047C120.926 10.3683 121.054 10.4105 122.507 10.1146C123.361 9.90322 124.558 9.35365 125.199 8.93089L126.352 8.08539L127.591 9.09999C128.275 9.64957 128.959 10.0723 129.172 10.1146C129.813 10.1146 129.429 8.59269 128.446 7.36671C127.634 6.3521 127.506 5.88707 127.805 4.83019C128.019 4.15379 128.19 3.05463 128.19 2.4205V1.2368H124.985C121.866 1.2368 121.78 1.27907 121.78 2.29368Z" fill="#F0EEE8"/>
<path d="M99.9855 3.1389C99.9855 5.71769 97.2936 8.4233 94.7726 8.4233C93.8753 8.4233 93.5762 8.63468 93.5762 9.26881C93.5762 10.4525 95.7981 10.4102 98.2764 9.14198C100.37 8.12738 102.122 5.42176 102.122 3.26572C102.122 2.29339 101.951 2.08201 101.054 2.08201C100.199 2.08201 99.9855 2.29339 99.9855 3.1389Z" fill="#F0EEE8"/>
<path d="M111.951 4.82984C111.951 5.88672 111.951 5.88672 116.01 5.88672C120.07 5.88672 120.07 5.88672 120.07 4.82984C120.07 3.77296 120.07 3.77296 116.01 3.77296C111.951 3.77296 111.951 3.77296 111.951 4.82984Z" fill="#F0EEE8"/>
<path d="M7.90647 4.61863C7.77828 4.83 7.09462 5.04137 6.41095 5.04137C5.0009 5.04137 3.9754 5.92916 3.59084 7.4088C3.41993 8.00065 2.99264 8.4234 2.60808 8.4234C0.300714 8.4234 -0.938426 12.5241 0.85619 14.1306C1.53985 14.7224 2.09533 14.807 3.76176 14.5956L5.85548 14.3419L8.03465 16.6248C9.27379 17.8931 10.2566 19.0768 10.2566 19.2036C10.2566 19.3304 9.48744 20.7255 8.5474 22.2897C6.79551 25.1221 5.12909 29.6456 5.12909 31.5057C5.12909 32.0553 4.74452 32.6894 4.27451 32.9431C3.80449 33.1967 3.41993 33.5772 3.41993 33.7886C3.41993 34.0422 3.80449 34.2113 4.27451 34.2113C5.04363 34.2113 5.12909 34.5072 5.12909 36.4942C5.12909 39.4957 6.83824 44.8224 8.71832 47.6126L10.1711 49.7686L7.73555 52.136C5.34273 54.4612 5.21454 54.5457 3.50538 54.2498C1.06983 53.8693 0.00161098 54.7994 0.00161098 57.2513C0.00161098 59.196 0.85619 60.2952 2.52262 60.5488C3.03537 60.6334 3.84722 61.3098 4.27451 62.0284C4.74452 62.7894 5.47092 63.3812 5.85548 63.3812C6.49641 63.4235 6.45368 63.5503 5.5991 64.2268L4.61634 65.0723H5.94093C7.13735 65.0723 7.26553 65.1991 7.26553 66.3405C7.26553 67.2706 7.43645 67.5242 7.90647 67.3551C8.37648 67.186 8.5474 67.3551 8.5474 68.0315C8.5474 68.8348 8.63286 68.877 9.18834 68.4543C9.70108 68.0315 9.82927 68.0315 9.82927 68.4543C9.82927 68.7502 10.1284 68.877 10.4702 68.7079C10.8548 68.5811 11.2393 68.7502 11.4102 69.173C11.6239 69.7648 11.7521 69.7225 12.0512 68.9193C12.2648 68.3697 12.5639 68.1161 12.863 68.2852C13.2476 68.4966 13.2903 68.0315 13.1621 66.5942C12.9485 64.7341 12.9912 64.565 14.444 63.3812L16.025 62.113H30.2964H44.6106L48.1999 63.6349C54.1392 66.1714 58.113 66.0446 60.4631 63.339L61.4886 62.113H71.6153H81.7421L83.7076 63.2967C88.2796 66.0446 91.8688 66.6787 93.4498 64.9454C93.9198 64.4381 94.5608 63.5926 94.8171 63.0853C95.3299 62.113 95.4154 62.113 104.26 62.113H113.191L115.754 63.7617C120.668 66.8901 124.044 66.8478 126.137 63.6349L127.12 62.113H136.606C143.015 62.113 146.177 62.2821 146.391 62.578C146.946 63.5081 152.587 66.8055 155.321 67.8202C161.389 70.103 168.14 68.7079 174.421 63.9731L176.814 62.113H182.967C189.504 62.113 191 61.7325 191 59.9992C191 58.435 189.419 57.8855 184.719 57.8855H180.318L181.044 56.4058C181.771 54.8416 181.941 54.7571 183.052 55.1798C183.565 55.3912 183.608 55.6026 183.266 56.279C183.01 56.744 182.882 57.1668 182.967 57.2091C183.052 57.2936 184.505 56.9554 186.214 56.4904L189.334 55.6449L187.069 53.362C184.633 50.91 184.163 50.6987 184.163 51.9669C184.163 52.432 183.992 52.8124 183.736 52.8124C183.138 52.8124 183.181 52.7279 184.42 49.1768C185.531 46.1329 186.3 45.2029 186.3 46.8939C186.3 47.3589 186.513 47.7394 186.727 47.7394C186.983 47.7394 187.154 47.5703 187.154 47.3166C187.154 47.1053 187.454 47.0207 187.795 47.1475C188.18 47.3166 188.436 47.1898 188.436 46.8516C188.436 46.4289 188.564 46.4289 188.949 46.8093C189.718 47.5703 190.145 47.4435 190.145 46.4289C190.145 45.8793 190.316 45.6679 190.658 45.8793C191 46.0907 191.043 45.9638 190.829 45.372C190.615 44.9492 190.274 43.9769 190.017 43.3005C189.804 42.5818 188.864 40.9754 187.966 39.7071L186.385 37.3397L187.24 36.1982C189.718 32.8585 187.838 28.2928 183.992 28.2928C183.352 28.2928 182.454 28.8846 181.642 29.7724C180.019 31.5902 179.549 31.6325 179.378 29.857C179.292 28.7155 179.079 28.5042 178.181 28.5042C177.284 28.5042 177.07 28.7155 176.985 29.857C176.857 31.252 176.857 31.252 174.464 31.252H172.071L172.37 29.5188C172.541 28.5464 173.139 26.7286 173.78 25.4181C174.977 22.8815 179.848 17.5126 182.753 15.5256C184.377 14.4265 184.591 14.3842 184.591 15.1029C184.591 16.5825 185.146 16.4557 186.684 14.6801C189.59 11.3404 189.633 11.594 185.958 10.6217C184.163 10.1144 182.625 9.81848 182.54 9.90303C182.411 10.0299 182.582 10.3681 182.882 10.7485C183.522 11.5095 183.651 11.4249 180.873 12.5664C171.729 16.202 166.559 23.8539 166.602 33.4926C166.602 41.4827 169.507 47.3589 175.404 51.3328C176.686 52.2206 177.754 53.1506 177.754 53.4043C177.754 53.6579 177.07 54.7571 176.259 55.8985L174.763 57.8855H160.705C147.374 57.8855 146.605 57.8432 145.665 57.04L144.639 56.2367L146.049 56.1945H147.416V51.7133V47.2321L145.921 48.5426C143.443 50.6564 139.768 50.1914 137.632 47.4858C136.82 46.4711 136.734 45.7947 136.734 40.299C136.734 34.465 136.777 34.2113 137.589 34.2113C138.999 34.2113 140.793 35.3105 142.46 37.2551L143.998 39.0307V33.4081V27.7855L141.819 29.7301C140.623 30.787 139.426 31.6748 139.127 31.6748C138.871 31.6748 138.23 31.8016 137.717 31.9285C136.734 32.1821 136.734 32.1821 136.734 26.7709C136.734 22.1206 136.862 21.106 137.632 19.4995C139.383 15.9907 142.674 15.6525 145.964 18.654L147.844 20.3873V16.0752V11.8054H137.76H127.718L128.872 12.7778C129.684 13.4542 130.111 14.3842 130.368 15.8638C130.923 19.3727 131.308 37.8047 130.966 45.3297C130.709 51.5442 130.539 52.5588 129.727 53.7425C128.53 55.4758 128.231 55.518 126.565 54.1652L125.155 53.0238L125.454 48.8808C125.753 44.9492 125.796 44.7801 126.736 44.7801C127.932 44.7801 127.975 44.4842 127.163 41.4827C126.607 39.4957 126.607 39.2843 127.248 39.2843C128.616 39.2843 129.171 38.6079 128.658 37.6779C128.317 37.0438 128.317 36.7901 128.701 36.6633C129.043 36.5365 129.043 36.2828 128.658 35.6064C128.274 34.8454 128.359 34.3381 129.128 32.8585C129.898 31.4211 130.111 30.3643 130.111 27.87C130.111 24.023 129.299 22.6279 126.18 21.0637C125.069 20.5141 124.044 20.0068 123.958 19.9645C123.873 19.9223 124.215 19.5418 124.727 19.119C125.24 18.6963 125.881 17.8931 126.18 17.3012C126.479 16.7094 127.291 16.1175 128.103 15.8638C129.898 15.3565 129.855 14.9338 127.889 14.5533C126.821 14.3842 125.796 13.7501 124.941 12.82C123.061 10.7908 121.01 10.7908 119.087 12.82C118.233 13.7078 116.993 14.4688 115.797 14.807L113.874 15.3143L115.883 15.9484C117.335 16.4134 117.934 16.8362 118.104 17.5549C118.275 18.1044 118.874 18.8654 119.472 19.2459L120.54 19.9645L118.916 20.6832C117.421 21.3596 114.9 23.727 113.874 25.5026C113.575 26.0099 113.404 24.8685 113.319 21.4865C113.191 16.5402 112.806 15.272 111.011 13.6233C109.089 11.8054 107.209 11.3827 101.483 11.3827C98.5346 11.3827 96.1417 11.4672 96.1417 11.594C96.1417 11.7209 96.4408 12.2705 96.7827 12.82C97.3809 13.7078 97.4236 16.3711 97.3382 33.4926L97.21 53.1506L96.2272 54.4612L95.2444 55.7717H100.244C104.816 55.7717 105.158 55.7294 104.645 55.0953C104.218 54.588 103.961 52.6856 103.833 49.1345L103.619 43.9346H105.115C109.089 43.9346 112.379 41.7363 113.148 38.6079C113.361 37.7202 113.49 35.4796 113.447 33.6617C113.404 31.8862 113.404 30.4065 113.447 30.4065C113.49 30.4065 114.131 31.3789 114.857 32.5626C116.139 34.5918 116.182 34.7186 115.541 35.7332C115.071 36.4096 115.028 36.7478 115.37 36.7478C115.669 36.7478 115.754 37.086 115.583 37.6356C115.37 38.2697 115.498 38.5657 116.224 38.7348C116.993 38.9461 117.079 39.1575 116.78 40.299C116.609 41.0176 116.481 42.2859 116.438 43.0891C116.438 44.2728 116.609 44.611 117.335 44.6956C118.147 44.8224 118.275 45.2029 118.532 48.6695C118.66 50.7409 118.703 52.6433 118.574 52.8547C118.446 53.0661 117.549 53.4466 116.609 53.7002C114.472 54.3766 113.789 55.0953 114.558 56.0254C115.242 56.8709 117.421 56.5327 119.856 55.1798L121.565 54.2498L123.36 55.3489C125.155 56.4904 125.197 56.4904 131.906 56.279L138.657 56.0676L137.845 56.9977C137.033 57.8432 136.692 57.8855 126.565 57.8855H116.096L113.917 56.3213C112.379 55.2221 111.182 54.7148 109.772 54.588C107.892 54.4189 107.679 54.5034 106.14 56.1522L104.474 57.8855H94.2189C84.6904 57.8855 83.8785 57.8009 82.6821 57.04L81.4003 56.1945H86.015H90.587V51.9247V47.6548L89.2196 48.6695C88.4505 49.2613 87.3823 49.8532 86.8696 50.0223C85.2886 50.5296 82.6394 49.5572 81.2293 47.9508L79.9047 46.4289V40.5526C79.9047 37.3397 80.0757 34.5918 80.2466 34.465C81.2293 33.8731 83.7931 35.1836 85.4168 37.086L87.1687 39.073V33.3658L87.1259 27.6586L86.2714 28.8424C85.2031 30.2374 82.1267 32.0975 80.8448 32.0975C79.9475 32.0975 79.9047 31.9285 79.9047 26.8554C79.9047 21.0637 80.3748 19.2459 82.2976 17.7662C83.0667 17.1744 84.0495 16.8785 85.3313 16.8785C86.9123 16.8785 87.4678 17.1321 89.0915 18.6117L91.0143 20.3873V16.0752V11.8054H77.2555H63.4541L63.5823 15.2297C63.7532 19.0345 63.3259 20.9369 62.8132 18.7808C62.6422 18.0622 62.4713 16.2443 62.4286 14.6379L62.3859 11.8054H60.8904C59.6085 11.8054 59.3948 11.6786 59.3948 10.7908C59.3948 9.73393 58.6257 8.9307 56.8738 8.12747C55.9765 7.74699 58.3266 7.62017 68.197 7.62017C81.6139 7.57789 81.8275 7.53562 81.5284 5.37959L81.4003 4.40725L44.7816 4.28043C20.597 4.23814 8.07738 4.3227 7.90647 4.61863ZM49.909 5.88688C49.3535 6.73239 48.8835 6.73239 29.57 6.73239C12.9912 6.73239 9.65835 6.64784 9.14561 6.14054C8.80377 5.80233 8.5474 5.42186 8.5474 5.29504C8.5474 5.16821 17.9905 5.04137 29.4846 5.04137C50.3363 5.04137 50.4218 5.04137 49.909 5.88688ZM80.7593 5.88688C80.7593 6.73239 80.4602 6.73239 68.3679 6.73239C56.4466 6.73239 55.9765 6.69011 55.5492 5.88688C55.0792 5.04137 55.2074 5.04137 67.9406 5.04137C80.4602 5.04137 80.7593 5.04137 80.7593 5.88688ZM54.6092 5.97144C54.8229 6.26736 55.122 6.98604 55.2074 7.53562C55.2929 8.2543 55.7629 8.67705 56.8311 9.01525C57.9848 9.39573 58.3694 9.73393 58.4548 10.6217C58.583 11.7631 58.5403 11.8054 56.6602 11.8054C54.9938 11.8054 54.6947 11.9322 54.6947 12.6509C54.6947 13.1582 54.481 13.3696 54.1392 13.2428C53.7974 13.116 52.2591 14.3419 50.5072 16.1175L47.4735 19.2036L46.0634 17.8085L44.6534 16.4134L47.7726 13.4119C50.3363 11.0022 50.8491 10.2835 50.6354 9.52256C49.9518 7.36652 49.9518 6.81694 50.6354 6.1828C51.4473 5.3373 53.9683 5.25275 54.6092 5.97144ZM7.86374 6.14054C9.14561 6.60556 9.48744 7.87382 8.80377 9.48028L8.16284 10.9599L11.0257 13.4964L13.8885 16.033L12.4785 17.3858L11.1111 18.7808L8.37648 16.0752C5.68456 13.4542 5.5991 13.4119 4.23178 13.8769C2.39443 14.511 2.26625 14.4688 1.28348 13.4964C-0.297492 11.9323 0.685274 9.2689 2.77899 9.2689C3.50538 9.2689 3.84722 8.9307 4.06086 8.12747C4.57361 6.01371 5.85548 5.37958 7.86374 6.14054ZM49.7381 8.9307C49.9945 10.199 49.7808 10.5372 47.1316 13.1582L44.3115 15.9907L43.2006 15.2297C38.8422 12.1859 33.8429 10.7908 27.9891 11.0445C23.2462 11.2558 20.0415 12.1859 16.495 14.3842L14.4013 15.6525L11.8803 13.2005C9.57289 10.8754 9.44471 10.664 9.65835 9.14208L9.95746 7.5779H29.6982H49.4817L49.7381 8.9307ZM187.283 11.7631C187.966 12.0168 187.881 12.1859 186.727 13.2851C185.744 14.2151 185.445 14.3419 185.445 13.7924C185.445 12.7778 185.232 12.8623 182.283 14.9338C179.207 17.1321 174.763 21.6133 173.738 23.5579C173.353 24.3189 172.84 24.8262 172.669 24.6994C172.456 24.5725 172.37 24.8262 172.456 25.2067C172.541 25.6294 172.456 26.2213 172.242 26.5595C171.815 27.1936 168.909 27.5741 168.567 27.0245C168.183 26.4327 169.678 23.2197 170.191 23.5157C170.447 23.6425 170.49 23.5579 170.319 23.262C169.55 22.036 174.507 16.7516 178.48 14.5956C179.591 13.9615 181.429 13.1582 182.582 12.7778C183.992 12.3127 184.548 11.9323 184.42 11.5518C184.206 10.9599 185.189 11.0445 187.283 11.7631ZM33.1165 12.0168C40.295 13.2851 46.6189 17.8931 49.7808 24.1921C50.7209 26.0522 51.1909 27.5741 51.02 27.9968C50.8918 28.3773 50.5927 28.5887 50.379 28.4619C50.1654 28.3351 50.0799 28.0814 50.1654 27.9123C50.2936 27.7432 50.1227 27.5741 49.8236 27.5741C49.4817 27.5741 49.3108 27.7855 49.3963 28.0391C49.5245 28.3773 48.7553 28.5042 47.1744 28.5042C44.9525 28.5042 44.8243 28.4619 44.9952 27.5318C45.0807 27.0245 44.9952 26.4749 44.7388 26.3058C44.4824 26.179 44.4397 26.2636 44.6106 26.5172C44.7816 26.8131 44.8243 27.0245 44.6961 27.0245C44.5679 27.0245 44.0979 26.3058 43.6279 25.4181C40.765 19.8377 31.9629 16.8362 24.1862 18.8231C20.8106 19.6686 18.546 20.9792 16.1959 23.5157C15.1704 24.6148 14.1876 25.5026 14.0167 25.4603C13.8458 25.3758 13.8458 25.6717 13.974 26.0522C14.1876 26.5595 14.1022 26.644 13.6749 26.3904C13.333 26.179 13.2049 26.2213 13.3758 26.4749C13.8885 27.2782 13.2049 29.561 12.4357 29.5188C12.0084 29.5188 11.9657 29.4342 12.3075 29.2651C13.6749 28.7155 12.5639 28.3351 10.0856 28.5464C8.50467 28.6733 7.2228 28.5887 7.09462 28.335C6.71006 27.7855 7.99192 24.6571 9.53017 22.3742C13.4185 16.5825 18.9733 12.9891 25.8954 11.8477C28.8864 11.3404 29.3137 11.3404 33.1165 12.0168ZM108.96 13.2005C111.951 14.7647 112.592 16.4134 112.678 23.0084C112.763 26.5595 112.635 28.2082 112.379 27.6586C112.165 27.1091 111.994 27.0245 111.994 27.405C111.951 27.9123 111.823 27.9123 111.439 27.5318C111.14 27.2359 110.627 27.0245 110.285 27.0245C109.943 27.0245 109.815 27.1513 109.943 27.3204C110.114 27.4473 109.986 27.87 109.644 28.2505C109.302 28.631 108.96 29.6879 108.832 30.6179C108.747 31.548 108.661 29.3497 108.619 25.714C108.533 19.415 108.49 19.0768 107.508 18.0199C106.525 16.963 103.619 15.8638 102.893 16.2866C102.722 16.4134 102.508 19.415 102.508 22.9238C102.466 26.8131 102.337 28.8424 102.124 28.0814C101.91 27.2359 101.782 27.0668 101.739 27.6586C101.697 28.3351 101.611 28.3773 101.312 27.9123C101.098 27.5741 100.329 27.3204 99.6028 27.3204H98.2782L98.2355 23.262C98.2355 21.0214 98.0645 17.6394 97.9363 15.6947L97.6373 12.2282H102.38C106.482 12.2282 107.379 12.355 108.96 13.2005ZM146.989 15.4411V18.2313L145.707 17.1744C143.272 15.1452 140.11 15.3143 137.931 17.6394C136.563 19.0768 135.965 21.0214 135.794 24.3612C135.751 25.8408 135.538 27.0245 135.324 27.0245C135.153 27.0245 135.068 27.1936 135.239 27.405C135.367 27.6164 135.281 27.9123 135.025 28.0814C134.811 28.2082 134.598 28.166 134.598 27.9546C134.598 27.7432 134.128 27.6586 133.53 27.7855C132.931 27.87 132.59 28.1237 132.675 28.2928C132.803 28.5042 132.718 28.7578 132.504 28.8846C132.29 29.0537 132.077 28.3773 132.077 27.3627C131.991 22.332 131.137 14.2151 130.539 13.3696L129.94 12.4396L138.443 12.5664L146.989 12.6932V15.4411ZM61.5313 14.8915C61.5313 17.1744 62.5568 21.8669 63.1977 22.5011C63.7532 23.0506 64.5223 18.9499 64.5223 15.6102V12.6509H67.9834C71.0599 12.6509 71.4017 12.7355 71.188 13.3696C71.0599 13.7924 70.7607 17.3435 70.5471 21.2751C70.248 26.2213 69.9489 28.5464 69.5643 28.8001C69.137 29.0537 69.137 29.1383 69.5643 29.1383C69.8207 29.1383 70.0771 29.3074 70.0771 29.561C70.0771 29.7724 69.778 29.857 69.3934 29.6879C68.8807 29.5188 68.7952 29.0537 68.9661 27.9123C69.1798 26.644 69.137 26.5595 68.7952 27.3627C68.3679 28.335 68.2825 28.3773 62.8986 28.2505C59.9076 28.166 57.2584 28.2505 56.9593 28.4196C56.7029 28.5887 56.3611 28.5464 56.2329 28.335C56.1047 28.1237 55.8483 24.5303 55.7202 20.3027L55.4211 12.6509H58.4975H61.5313V14.8915ZM90.1597 15.3988V18.1044L88.6214 17.0898C86.5705 15.6947 83.494 15.6525 81.8275 16.963C80.0757 18.3158 79.0502 20.8946 79.0502 23.9384C79.0502 25.3758 78.8792 26.6863 78.6229 26.8131C78.4092 26.94 78.1956 27.4473 78.1956 27.9546C78.1956 28.7578 78.1529 28.7578 77.341 27.8277L76.5292 26.8131L76.4864 27.7855C76.4864 28.3351 76.3155 28.6733 76.1019 28.5464C75.8882 28.3773 75.5891 28.5464 75.5037 28.8001C75.3755 29.096 75.2473 28.6733 75.2473 27.87C75.2046 24.023 74.2645 14.0883 73.9227 13.7501C73.6663 13.4964 73.4954 13.1582 73.4954 12.9891C73.4954 12.82 77.2555 12.6509 81.8275 12.6509H90.1597V15.3988ZM73.7945 17.6394C73.9654 19.4572 74.1363 27.9123 74.1363 36.5365C74.1363 51.2482 74.0509 52.2629 73.2818 53.5734C71.8717 55.8563 71.5299 55.3067 71.2308 50.4027C70.5898 40.5103 71.1453 16.5825 72.0426 13.7501C72.5554 12.2282 73.4099 14.1306 73.7945 17.6394ZM54.7374 18.4004C55.122 23.8961 55.2074 32.9431 54.8656 32.9431C54.011 32.9431 52.9855 31.9284 52.9855 31.0829C52.9855 29.1806 51.2763 24.6994 49.6099 22.1629L47.9435 19.6263L50.8063 16.7516C52.3446 15.1874 53.7974 13.9615 54.0537 14.046C54.2674 14.1306 54.6092 16.0752 54.7374 18.4004ZM106.61 18.3581C107.679 19.3727 107.679 19.415 107.679 27.7855C107.679 35.9446 107.636 36.1982 106.739 37.086C106.183 37.5511 105.243 38.1006 104.602 38.2275L103.406 38.5234V27.9123V17.3012H104.474C105.072 17.3012 106.055 17.7662 106.61 18.3581ZM37.1331 20.9369C39.5686 22.1629 40.765 23.0929 41.9614 24.6994C42.816 25.8408 43.457 26.8554 43.3715 26.94C43.286 27.0245 40.295 26.7709 36.7485 26.3481C31.0656 25.714 29.4846 25.6717 23.588 26.1367C19.9133 26.4327 16.4523 26.7709 15.9395 26.8977C14.5295 27.2359 14.7431 26.5595 16.7086 24.3189C20.0842 20.5141 24.3998 18.8654 30.2964 19.1613C33.4584 19.2881 34.313 19.5418 37.1331 20.9369ZM119.215 29.2228L119.173 31.8862L118.361 30.8716C117.891 30.322 117.506 29.561 117.506 29.1806C117.506 28.5042 118.617 26.6018 119.044 26.6018C119.13 26.6018 119.215 27.7855 119.215 29.2228ZM126.479 28.8846C126.479 29.6456 126.18 30.6179 125.838 31.0829C125.283 31.8016 125.24 31.6325 125.197 29.1806C125.197 26.8554 125.283 26.5595 125.838 27.0245C126.18 27.3204 126.479 28.166 126.479 28.8846ZM78.922 28.166C78.7511 28.2928 78.6229 28.166 78.6229 27.87C78.6229 27.5741 78.7511 27.4473 78.922 27.5741C79.0502 27.7432 79.0502 27.9968 78.922 28.166ZM168.225 28.5887C168.055 28.7155 167.926 28.5887 167.926 28.2928C167.926 27.9968 168.055 27.87 168.225 27.9968C168.354 28.166 168.354 28.4196 168.225 28.5887ZM171.644 28.5887C171.473 28.7155 171.345 28.5887 171.345 28.2928C171.345 27.9968 171.473 27.87 171.644 27.9968C171.772 28.166 171.772 28.4196 171.644 28.5887ZM39.3122 29.8147C45.2516 30.4911 49.1826 31.3366 51.5755 32.3512L53.1992 33.0276L50.6354 33.5772C49.2254 33.8731 47.5589 34.2536 46.918 34.4227C45.978 34.6763 45.7643 34.5495 45.6361 33.704C45.5507 33.1544 45.0379 32.5203 44.397 32.2244C41.7478 30.9561 29.1 30.4488 20.2979 31.252C14.7004 31.7593 13.2903 32.2667 12.9485 33.8308C12.7776 34.7186 12.5212 35.0145 12.0084 34.8877C11.6239 34.7609 10.0002 34.3381 8.37648 33.9577C5.08636 33.1544 5.12908 33.0699 9.78654 31.4634C12.4357 30.5334 19.486 29.3497 24.5708 29.0115C27.5618 28.8001 33.0311 29.096 39.3122 29.8147ZM48.1571 29.0115C47.9862 29.1383 47.7298 29.1383 47.5589 29.0115C47.4307 28.8424 47.5589 28.7155 47.858 28.7155C48.1571 28.7155 48.2853 28.8424 48.1571 29.0115ZM7.05189 29.561C7.18007 29.7724 7.09462 29.9838 6.88097 29.9838C6.6246 29.9838 6.41095 29.7724 6.41095 29.561C6.41095 29.3074 6.49641 29.1383 6.58187 29.1383C6.71006 29.1383 6.9237 29.3074 7.05189 29.561ZM46.0207 29.4342C45.8498 29.561 45.5934 29.561 45.4225 29.4342C45.2943 29.2651 45.4225 29.1383 45.7216 29.1383C46.0207 29.1383 46.1489 29.2651 46.0207 29.4342ZM47.2171 29.561C47.3453 29.7724 47.2598 29.9838 47.0462 29.9838C46.7898 29.9838 46.5762 29.7724 46.5762 29.561C46.5762 29.3074 46.6616 29.1383 46.7471 29.1383C46.8753 29.1383 47.0889 29.3074 47.2171 29.561ZM51.7036 29.561C51.7036 29.7724 51.5327 29.9838 51.2763 29.9838C51.0627 29.9838 50.8491 29.7724 50.8491 29.561C50.8491 29.3074 51.0627 29.1383 51.2763 29.1383C51.5327 29.1383 51.7036 29.3074 51.7036 29.561ZM183.95 29.561C184.078 29.7724 184.121 29.9838 183.992 29.9838C183.864 29.9838 183.651 29.7724 183.522 29.561C183.394 29.3074 183.352 29.1383 183.48 29.1383C183.608 29.1383 183.822 29.3074 183.95 29.561ZM11.4102 29.857C11.2393 29.9838 10.983 29.9838 10.812 29.857C10.6838 29.6879 10.812 29.561 11.1111 29.561C11.4102 29.561 11.5384 29.6879 11.4102 29.857ZM9.18834 30.4065C9.06015 30.6179 8.67559 30.8293 8.41921 30.8293C8.12011 30.8293 8.16284 30.6602 8.5474 30.4065C9.35925 29.8992 9.53017 29.8992 9.18834 30.4065ZM48.5844 30.2797C48.4135 30.4065 48.1571 30.4065 47.9862 30.2797C47.858 30.1106 47.9862 29.9838 48.2853 29.9838C48.5844 29.9838 48.7126 30.1106 48.5844 30.2797ZM182.882 30.1529C182.882 30.2374 182.54 30.5756 182.155 30.8716C181.471 31.4211 181.429 31.3789 181.984 30.7025C182.54 30.0261 182.882 29.8147 182.882 30.1529ZM50.2936 30.7025C50.1227 30.8293 49.8663 30.8293 49.6954 30.7025C49.5672 30.5334 49.6954 30.4065 49.9945 30.4065C50.2936 30.4065 50.4218 30.5334 50.2936 30.7025ZM86.1859 31.3366C86.2714 32.0553 86.1859 32.1398 85.8868 31.6748C85.6732 31.3366 85.6304 30.9138 85.7159 30.7447C86.0577 30.2374 86.1432 30.322 86.1859 31.3366ZM6.6246 31.252C6.75278 31.4634 6.66733 31.6748 6.45368 31.6748C6.19731 31.6748 5.98366 31.4634 5.98366 31.252C5.98366 30.9984 6.06912 30.8293 6.15458 30.8293C6.28277 30.8293 6.49641 30.9984 6.6246 31.252ZM52.0027 31.1252C51.8318 31.252 51.5755 31.252 51.4045 31.1252C51.2764 30.9561 51.4045 30.8293 51.7036 30.8293C52.0027 30.8293 52.1309 30.9561 52.0027 31.1252ZM40.0386 32.1398C44.7388 32.6894 44.867 32.7317 44.867 34.5918C44.8243 40.6372 40.5514 47.063 35.3385 48.8808C32.3047 49.8954 26.2372 49.8954 23.2034 48.8808C20.3833 47.9085 16.965 44.907 15.5549 42.1168C14.1449 39.4534 13.1621 34.7609 13.7176 33.7463C14.3158 32.6471 16.5377 32.1821 23.2889 31.7171C29.4846 31.3366 33.9711 31.4634 40.0386 32.1398ZM54.8228 39.1575C54.6092 45.5411 53.9683 52.6433 53.4983 53.4888C53.2419 53.9116 52.6009 53.4888 50.8491 51.7556L48.499 49.4304L49.909 46.9362C51.8318 43.4696 52.9001 40.2567 53.2419 36.7478C53.4555 34.3381 53.6692 33.7886 54.2674 33.7886C54.9083 33.7886 54.9938 34.2959 54.8228 39.1575ZM176.985 36.4096C177.07 37.5933 177.284 37.8047 178.181 37.8047C179.079 37.8047 179.292 37.5933 179.378 36.4096C179.506 35.395 179.72 35.0568 180.36 35.0568C181.087 35.0568 181.172 35.2259 180.916 35.9869C179.591 40.0876 179.591 41.99 180.959 43.3428L182.027 44.3997L180.873 47.1053C180.232 48.6272 179.591 49.8532 179.42 49.8532C178.865 49.8532 176.13 46.3443 175.062 44.146C173.823 41.694 172.84 38.9039 172.456 36.621L172.157 35.0568H174.507C176.814 35.0568 176.857 35.0568 176.985 36.4096ZM63.0695 50.7409C63.625 52.9393 64.2232 55.053 64.3514 55.4335C64.565 56.1099 65.1633 56.1945 69.0516 56.1945C73.4099 56.1945 73.4954 56.2367 73.0681 57.04C72.6408 57.8432 72.1708 57.8855 66.0178 57.8855C59.694 57.8855 59.3948 57.8432 59.3948 57.04C59.3948 56.3636 59.694 56.1945 60.7194 56.1945C62.0013 56.1945 62.044 56.1522 61.7449 54.7994C61.3604 53.2352 61.3604 52.6856 61.4458 49.0499C61.4886 47.5703 61.6168 46.4289 61.7449 46.5557C61.8731 46.6825 62.4713 48.5849 63.0695 50.7409ZM24.528 50.2336C24.9126 50.8255 24.3571 51.9669 23.7162 51.9669C22.9471 51.9669 22.5198 51.2482 22.8189 50.4873C23.0752 49.7686 24.1862 49.6418 24.528 50.2336ZM35.8085 50.7832C36.0221 51.8401 34.1848 52.2629 33.4584 51.2905C33.0311 50.6987 33.0311 50.4873 33.4584 50.1914C34.2702 49.6418 35.6376 49.98 35.8085 50.7832ZM52.4728 55.3489C52.3446 56.4058 52.3446 56.4058 55.4638 56.279L58.5403 56.1099V57.4204C58.5403 58.4773 58.2839 58.7732 57.0875 59.196C55.9765 59.5765 55.7202 59.8724 55.8911 60.5488C56.1047 61.3098 55.9765 61.3943 54.2674 61.0984C51.7891 60.7179 50.7636 60.1261 51.02 59.2383C51.1909 58.731 50.379 57.5895 48.2853 55.5603L45.2943 52.6433L46.6616 51.2482L48.029 49.8532L50.2936 52.0515C52.0027 53.7425 52.5155 54.5457 52.4728 55.3489ZM27.3481 51.5865C27.3481 52.6011 27.22 52.8547 26.6645 52.6433C26.2799 52.5165 25.8099 52.3897 25.5963 52.3897C25.3826 52.3897 25.2117 51.9247 25.2117 51.3328C25.2117 50.4873 25.4253 50.2759 26.2799 50.2759C27.1772 50.2759 27.3481 50.4873 27.3481 51.5865ZM32.6038 51.206C32.9029 52.3051 32.9456 52.2206 31.7492 52.5588C30.8946 52.8547 30.7665 52.7279 30.7665 51.5865C30.7665 50.5718 30.9374 50.2759 31.5783 50.2759C32.0483 50.2759 32.4756 50.6564 32.6038 51.206ZM12.0512 51.8401L13.2476 52.9815L10.5984 55.6449C8.12011 58.0968 7.99192 58.3505 8.46194 59.3651C9.23106 60.9716 9.10288 61.6057 7.90647 62.3666C6.53914 63.2544 5.17181 62.7894 4.61634 61.2252C4.31723 60.3374 3.93267 59.9992 3.16355 59.9992C1.53985 59.9992 0.300714 58.4773 0.599816 56.8709C0.984377 55.0107 1.83896 54.5034 3.71903 55.0107C5.21454 55.4335 5.3 55.3489 7.65009 53.0661C8.97469 51.7556 10.2138 50.6987 10.4275 50.6987C10.6838 50.6987 11.4102 51.206 12.0512 51.8401ZM30.3392 51.7556C30.3392 52.6011 30.1255 52.8124 29.2709 52.8124C28.4164 52.8124 28.2027 52.6011 28.2027 51.7556C28.2027 50.91 28.4164 50.6987 29.2709 50.6987C30.1255 50.6987 30.3392 50.91 30.3392 51.7556ZM47.4307 55.5603L49.7381 57.8855H47.858C46.448 57.8855 45.4225 57.5473 44.0979 56.6595C43.0724 55.9831 42.2178 55.3067 42.2178 55.1376C42.2178 54.8416 44.4397 53.2352 44.867 53.2352C44.9952 53.2352 46.1489 54.2921 47.4307 55.5603ZM15.4268 54.5457L16.6659 55.3912L15.2131 56.6595C14.0167 57.6741 13.4185 57.8855 11.4957 57.8855H9.23106L11.3248 55.7717C12.4785 54.588 13.5894 53.6579 13.8031 53.6579C14.0167 53.6579 14.7431 54.0384 15.4268 54.5457ZM26.9208 54.5034C26.9208 55.053 26.6217 55.3489 26.1517 55.3489C25.0408 55.3489 24.6989 54.8839 25.2544 54.2075C25.9808 53.362 26.9208 53.5311 26.9208 54.5034ZM33.1165 54.5034C33.5438 54.9685 33.672 55.3489 33.4156 55.3489C33.1593 55.3489 32.6893 55.4758 32.3474 55.6026C31.9629 55.7294 31.6638 55.5181 31.4928 54.9685C31.1083 53.4888 31.9629 53.2352 33.1165 54.5034ZM30.7665 54.9262C30.7665 55.6026 30.4674 55.7717 29.2709 55.7717C28.0745 55.7717 27.7754 55.6026 27.7754 54.9262C27.7754 54.2498 28.0745 54.0807 29.2709 54.0807C30.4674 54.0807 30.7665 54.2498 30.7665 54.9262ZM28.8437 56.4481C30.5101 56.6172 32.5611 56.5327 33.4156 56.279C34.6121 55.9408 35.1675 55.9831 35.7657 56.4481C36.4921 56.9977 36.4067 57.1245 34.783 58.6887C31.4074 61.8593 27.6045 61.8593 24.1007 58.6464C22.5625 57.2513 22.3061 56.8286 22.7334 56.3213C23.0752 55.8985 23.6734 55.7717 24.528 55.9408C25.2544 56.1099 27.22 56.3213 28.8437 56.4481ZM22.0925 57.7164C21.9643 57.8432 21.5797 57.8855 21.2806 57.7586C20.9388 57.6318 21.067 57.505 21.537 57.505C22.007 57.4627 22.2634 57.5895 22.0925 57.7164ZM37.4749 57.7586C37.304 57.8855 37.0476 57.8855 36.8767 57.7586C36.7485 57.5895 36.8767 57.4627 37.1758 57.4627C37.4749 57.4627 37.6031 57.5895 37.4749 57.7586ZM167.328 63.2544C164.294 64.7763 161.047 64.9877 157.629 63.8463C152.8 62.2398 153.099 62.113 161.517 62.1553H169.422L167.328 63.2544Z" fill="#F0EEE8"/>
<path d="M33.1165 12.0168C40.295 13.2851 46.6189 17.8931 49.7808 24.1921C50.7209 26.0522 51.1909 27.5741 51.02 27.9968C50.8918 28.3773 50.5927 28.5887 50.379 28.4619C50.1654 28.3351 50.0799 28.0814 50.1654 27.9123C50.2936 27.7432 50.1227 27.5741 49.8236 27.5741C49.4817 27.5741 49.3108 27.7855 49.3963 28.0391C49.5245 28.3773 48.7553 28.5042 47.1744 28.5042C44.9525 28.5042 44.8243 28.4619 44.9952 27.5318C45.0807 27.0245 44.9952 26.4749 44.7388 26.3058C44.4824 26.179 44.4397 26.2636 44.6106 26.5172C44.7816 26.8131 44.8243 27.0245 44.6961 27.0245C44.5679 27.0245 44.0979 26.3058 43.6279 25.4181C40.765 19.8377 31.9629 16.8362 24.1862 18.8231C20.8106 19.6686 18.546 20.9792 16.1959 23.5157C15.1704 24.6148 14.1876 25.5026 14.0167 25.4603C13.8458 25.3758 13.8458 25.6717 13.974 26.0522C14.1876 26.5595 14.1022 26.644 13.6749 26.3904C13.333 26.179 13.2049 26.2213 13.3758 26.4749C13.8885 27.2782 13.2049 29.561 12.4357 29.5188C12.0084 29.5188 11.9657 29.4342 12.3075 29.2651C13.6749 28.7155 12.5639 28.3351 10.0856 28.5464C8.50467 28.6733 7.2228 28.5887 7.09462 28.335C6.71006 27.7855 7.99192 24.6571 9.53017 22.3742C13.4185 16.5825 18.9733 12.9891 25.8954 11.8477C28.8864 11.3404 29.3137 11.3404 33.1165 12.0168Z" fill="#F0EEE8"/>
<path d="M61.5313 14.8915C61.5313 17.1744 62.5568 21.8669 63.1977 22.5011C63.7532 23.0506 64.5223 18.9499 64.5223 15.6102V12.6509H67.9834C71.0599 12.6509 71.4017 12.7355 71.188 13.3696C71.0599 13.7924 70.7607 17.3435 70.5471 21.2751C70.248 26.2213 69.9489 28.5464 69.5643 28.8001C69.137 29.0537 69.137 29.1383 69.5643 29.1383C69.8207 29.1383 70.0771 29.3074 70.0771 29.561C70.0771 29.7724 69.778 29.857 69.3934 29.6879C68.8807 29.5188 68.7952 29.0537 68.9661 27.9123C69.1798 26.644 69.137 26.5595 68.7952 27.3627C68.3679 28.335 68.2825 28.3773 62.8986 28.2505C59.9076 28.166 57.2584 28.2505 56.9593 28.4196C56.7029 28.5887 56.3611 28.5464 56.2329 28.335C56.1047 28.1237 55.8483 24.5303 55.7202 20.3027L55.4211 12.6509H58.4975H61.5313V14.8915Z" fill="#F0EEE8"/>
<path d="M90.1597 15.3988V18.1044L88.6214 17.0898C86.5705 15.6947 83.494 15.6525 81.8275 16.963C80.0757 18.3158 79.0502 20.8946 79.0502 23.9384C79.0502 25.3758 78.8792 26.6863 78.6229 26.8131C78.4092 26.94 78.1956 27.4473 78.1956 27.9546C78.1956 28.7578 78.1529 28.7578 77.341 27.8277L76.5292 26.8131L76.4864 27.7855C76.4864 28.3351 76.3155 28.6733 76.1019 28.5464C75.8882 28.3773 75.5891 28.5464 75.5037 28.8001C75.3755 29.096 75.2473 28.6733 75.2473 27.87C75.2046 24.023 74.2645 14.0883 73.9227 13.7501C73.6663 13.4964 73.4954 13.1582 73.4954 12.9891C73.4954 12.82 77.2555 12.6509 81.8275 12.6509H90.1597V15.3988Z" fill="#F0EEE8"/>
<path d="M108.96 13.2005C111.951 14.7647 112.592 16.4134 112.678 23.0084C112.763 26.5595 112.635 28.2082 112.379 27.6586C112.165 27.1091 111.994 27.0245 111.994 27.405C111.951 27.9123 111.823 27.9123 111.439 27.5318C111.14 27.2359 110.627 27.0245 110.285 27.0245C109.943 27.0245 109.815 27.1513 109.943 27.3204C110.114 27.4473 109.986 27.87 109.644 28.2505C109.302 28.631 108.96 29.6879 108.832 30.6179C108.747 31.548 108.661 29.3497 108.619 25.714C108.533 19.415 108.49 19.0768 107.508 18.0199C106.525 16.963 103.619 15.8638 102.893 16.2866C102.722 16.4134 102.508 19.415 102.508 22.9238C102.466 26.8131 102.337 28.8424 102.124 28.0814C101.91 27.2359 101.782 27.0668 101.739 27.6586C101.697 28.3351 101.611 28.3773 101.312 27.9123C101.098 27.5741 100.329 27.3204 99.6028 27.3204H98.2782L98.2355 23.262C98.2355 21.0214 98.0645 17.6394 97.9363 15.6947L97.6373 12.2282H102.38C106.482 12.2282 107.379 12.355 108.96 13.2005Z" fill="#F0EEE8"/>
<path d="M146.989 15.4411V18.2313L145.707 17.1744C143.272 15.1452 140.11 15.3143 137.931 17.6394C136.563 19.0768 135.965 21.0214 135.794 24.3612C135.751 25.8408 135.538 27.0245 135.324 27.0245C135.153 27.0245 135.068 27.1936 135.239 27.405C135.367 27.6164 135.281 27.9123 135.025 28.0814C134.811 28.2082 134.598 28.166 134.598 27.9546C134.598 27.7432 134.128 27.6586 133.53 27.7855C132.931 27.87 132.59 28.1237 132.675 28.2928C132.803 28.5042 132.718 28.7578 132.504 28.8846C132.29 29.0537 132.077 28.3773 132.077 27.3627C131.991 22.332 131.137 14.2151 130.539 13.3696L129.94 12.4396L138.443 12.5664L146.989 12.6932V15.4411Z" fill="#F0EEE8"/>
<path d="M187.283 11.7631C187.966 12.0168 187.881 12.1859 186.727 13.2851C185.744 14.2151 185.445 14.3419 185.445 13.7924C185.445 12.7778 185.232 12.8623 182.283 14.9338C179.207 17.1321 174.763 21.6133 173.738 23.5579C173.353 24.3189 172.84 24.8262 172.669 24.6994C172.456 24.5725 172.37 24.8262 172.456 25.2067C172.541 25.6294 172.456 26.2213 172.242 26.5595C171.815 27.1936 168.909 27.5741 168.567 27.0245C168.183 26.4327 169.678 23.2197 170.191 23.5157C170.447 23.6425 170.49 23.5579 170.319 23.262C169.55 22.036 174.507 16.7516 178.48 14.5956C179.591 13.9615 181.429 13.1582 182.582 12.7778C183.992 12.3127 184.548 11.9323 184.42 11.5518C184.206 10.9599 185.189 11.0445 187.283 11.7631Z" fill="#F0EEE8"/>
<path d="M49.909 5.88688C49.3535 6.73239 48.8835 6.73239 29.57 6.73239C12.9912 6.73239 9.65835 6.64784 9.14561 6.14054C8.80377 5.80233 8.5474 5.42186 8.5474 5.29504C8.5474 5.16821 17.9905 5.04137 29.4846 5.04137C50.3363 5.04137 50.4218 5.04137 49.909 5.88688Z" fill="#F0EEE8"/>
<path d="M80.7593 5.88688C80.7593 6.73239 80.4602 6.73239 68.3679 6.73239C56.4466 6.73239 55.9765 6.69011 55.5492 5.88688C55.0792 5.04137 55.2074 5.04137 67.9406 5.04137C80.4602 5.04137 80.7593 5.04137 80.7593 5.88688Z" fill="#F0EEE8"/>
<path d="M169.892 26.3903C169.764 26.7285 169.85 27.0244 170.063 27.0244C170.32 27.0244 170.49 26.7285 170.49 26.3903C170.49 26.0521 170.405 25.7562 170.32 25.7562C170.234 25.7562 170.063 26.0521 169.892 26.3903Z" fill="#F0EEE8"/>
<path d="M12.8223 27.4471C12.8223 27.743 12.9505 27.8698 13.1214 27.743C13.2496 27.5739 13.2496 27.3203 13.1214 27.1512C12.9505 27.0243 12.8223 27.1512 12.8223 27.4471Z" fill="#F0EEE8"/>
<path d="M101.697 26.1785C101.697 26.4745 101.825 26.6013 101.996 26.4745C102.125 26.3054 102.125 26.0517 101.996 25.8826C101.825 25.7558 101.697 25.8826 101.697 26.1785Z" fill="#F0EEE8"/>
<path d="M133.872 26.8976C134.043 27.0244 134.299 27.0244 134.47 26.8976C134.598 26.7285 134.47 26.6016 134.171 26.6016C133.872 26.6016 133.744 26.7285 133.872 26.8976Z" fill="#F0EEE8"/>
<path d="M19.7429 35.3528C18.0765 36.156 17.0938 37.847 17.0938 39.9608C17.0938 41.1445 17.4356 41.8209 18.5465 42.9201C19.7857 44.146 20.2984 44.3574 22.0076 44.3574C23.7167 44.3574 24.2295 44.146 25.4686 42.9201C26.5796 41.8209 26.9214 41.1445 26.9214 39.9608C26.9214 37.8048 25.9386 36.156 24.1868 35.3105C22.3921 34.465 21.5376 34.465 19.7429 35.3528Z" fill="#F0EEE8"/>
<path d="M33.8423 35.4796C29.4412 38.143 31.2786 44.3574 36.4488 44.3574C39.9525 44.3574 42.1744 41.0177 40.8498 37.847C40.1662 36.1983 37.987 34.6341 36.3206 34.6341C35.7224 34.6341 34.6114 35.0146 33.8423 35.4796Z" fill="#F0EEE8"/>
<path d="M27.9456 44.2727C26.5782 45.2027 27.3901 47.7393 29.0565 47.7393C30.2956 47.7393 31.3639 45.9214 30.7657 44.8223C30.2956 43.9345 28.8429 43.6386 27.9456 44.2727Z" fill="#F0EEE8"/>
<path d="M132.975 4.66062C132.206 4.95655 131.993 5.29475 132.121 6.18253L132.249 7.36624L161.176 7.49306C189.677 7.57761 190.104 7.57761 190.574 6.73211C190.916 6.09798 190.83 5.7175 190.147 5.0411C189.292 4.19559 188.865 4.19559 161.646 4.23787C145.666 4.23787 133.531 4.40697 132.975 4.66062ZM189.463 5.29475C190.147 5.5484 190.446 6.68983 189.847 6.77438C188.053 6.98576 133.531 6.85893 133.232 6.68983C132.975 6.52073 132.89 6.09798 133.018 5.7175C133.274 5.12565 136.009 5.0411 161.048 5.0411C176.302 5.0411 189.078 5.16792 189.463 5.29475Z" fill="#F0EEE8"/>
<path d="M189.463 5.29475C190.147 5.5484 190.446 6.68983 189.847 6.77438C188.053 6.98576 133.531 6.85893 133.232 6.68983C132.975 6.52073 132.89 6.09798 133.018 5.7175C133.274 5.12565 136.009 5.0411 161.048 5.0411C176.302 5.0411 189.078 5.16792 189.463 5.29475Z" fill="#F0EEE8"/>
<path d="M160.964 13.4545C161.989 13.9618 163.314 15.0187 164.04 16.0756C165.322 17.8089 165.365 17.9357 165.365 22.8819V27.8704H162.545C160.793 27.8704 159.853 27.7013 160.024 27.4476C160.195 27.194 160.537 27.1517 160.793 27.3208C161.178 27.5322 161.178 27.4476 160.836 26.9826C160.537 26.6444 160.238 24.9957 160.152 23.2624C160.024 20.6413 159.853 20.0495 158.998 19.3731C157.717 18.3162 156.306 18.3585 155.281 19.4576C154.64 20.1763 154.426 21.1486 154.341 24.3615C154.17 28.1663 154.127 28.3354 153.401 27.659C152.675 27.0249 152.589 27.0249 152.119 27.7436C151.777 28.2931 151.564 28.3354 151.435 27.9549C151.094 27.194 149.983 27.3208 149.94 28.1663C149.94 28.8005 149.897 28.8005 149.598 28.0818C149.384 27.6167 149.213 25.5875 149.171 23.5583C149.085 19.4576 149.47 18.1894 151.777 15.4415C154.127 12.6513 157.503 11.9326 160.964 13.4545Z" fill="#F0EEE8"/>
<path fill-rule="evenodd" clip-rule="evenodd" d="M153.956 12.6936C151.863 13.7082 150.196 15.526 149.085 17.9357C148.359 19.4576 148.273 21.0218 148.273 34.0849C148.273 47.5284 148.316 48.7121 149.128 50.8259C150.581 54.6729 152.803 56.1948 156.905 56.1948C159.212 56.1948 159.981 55.9834 161.648 54.9266C162.801 54.2079 164.211 52.8128 164.938 51.6714C166.22 49.7267 166.22 49.6422 166.22 43.6391V37.5937H162.075C158.87 37.5937 158.058 37.7205 158.443 38.101C159.127 38.7774 159.127 46.1333 158.443 46.8097C157.802 47.4438 156.264 47.4438 155.623 46.8097C155.238 46.4292 155.11 42.9627 155.11 33.7889C155.11 23.1778 155.196 21.1486 155.794 20.3454C156.648 19.1194 157.93 19.1617 158.785 20.4722C159.298 21.2332 159.426 22.2055 159.298 24.3615C159.212 25.9257 158.956 27.5745 158.785 27.9549C158.486 28.6313 158.785 28.7159 162.331 28.7159H166.22V23.3047C166.22 18.0625 166.177 17.8089 164.98 15.9488C164.126 14.596 163.1 13.7082 161.477 12.905C158.742 11.5521 156.392 11.5099 153.956 12.6936ZM164.04 16.0756C163.314 15.0187 161.989 13.9618 160.964 13.4545C157.503 11.9326 154.127 12.6513 151.777 15.4415C149.47 18.1894 149.085 19.4576 149.171 23.5583C149.213 25.5875 149.384 27.6167 149.598 28.0818C149.897 28.8005 149.94 28.8005 149.94 28.1663C149.983 27.3208 151.094 27.194 151.435 27.9549C151.564 28.3354 151.777 28.2931 152.119 27.7436C152.589 27.0249 152.675 27.0249 153.401 27.659C154.127 28.3354 154.17 28.1663 154.341 24.3615C154.426 21.1486 154.64 20.1763 155.281 19.4576C156.306 18.3585 157.717 18.3162 158.998 19.3731C159.853 20.0495 160.024 20.6413 160.152 23.2624C160.238 24.9957 160.537 26.6444 160.836 26.9826C161.178 27.4476 161.178 27.5322 160.793 27.3208C160.537 27.1517 160.195 27.194 160.024 27.4476C159.853 27.7013 160.793 27.8704 162.545 27.8704H165.365V22.8819C165.365 17.9357 165.322 17.8089 164.04 16.0756ZM153.828 29.9842C153.828 30.2801 153.956 30.4069 154.127 30.2801C154.255 30.111 154.255 29.8573 154.127 29.6882C153.956 29.5614 153.828 29.6882 153.828 29.9842Z" fill="#F0EEE8"/>
<path d="M161.52 27.0242C161.52 27.3202 161.648 27.447 161.819 27.3202C161.947 27.1511 161.947 26.8974 161.819 26.7283C161.648 26.6015 161.52 26.7283 161.52 27.0242Z" fill="#F0EEE8"/>
<path d="M163.441 27.025C163.569 27.2364 163.783 27.4478 163.911 27.4478C163.997 27.4478 164.082 27.2364 164.082 27.025C164.082 26.7713 163.868 26.6022 163.612 26.6022C163.398 26.6022 163.313 26.7713 163.441 27.025Z" fill="#F0EEE8"/>
</svg>
