<svg width="139" height="38" viewBox="0 0 139 38" fill="none" xmlns="http://www.w3.org/2000/svg">
<rect x="2" y="2" width="135" height="34" rx="17" fill="#F0EEE8"/>
<rect x="1" y="1" width="137" height="36" rx="18" stroke="#E9E5DC" stroke-opacity="0.24" stroke-width="2"/>
<path d="M36.6348 18.5594C37.0959 18.1989 37.433 17.7035 37.5992 17.1422C37.7653 16.581 37.7523 15.9819 37.5618 15.4285C37.3713 14.875 37.0129 14.3948 36.5366 14.0547C36.0602 13.7146 35.4896 13.5316 34.9043 13.5312H30.373C30.2487 13.5312 30.1295 13.5806 30.0416 13.6685C29.9537 13.7565 29.9043 13.8757 29.9043 14V24C29.9043 24.1243 29.9537 24.2435 30.0416 24.3315C30.1295 24.4194 30.2487 24.4688 30.373 24.4688H35.2168C35.9187 24.4686 36.6 24.2321 37.1511 23.7975C37.7022 23.3629 38.091 22.7554 38.2547 22.0729C38.4185 21.3904 38.3478 20.6727 38.0539 20.0353C37.76 19.3979 37.2601 18.878 36.6348 18.5594ZM30.8418 14.4688H34.9043C35.4016 14.4688 35.8785 14.6663 36.2301 15.0179C36.5818 15.3696 36.7793 15.8465 36.7793 16.3438C36.7793 16.841 36.5818 17.3179 36.2301 17.6696C35.8785 18.0212 35.4016 18.2188 34.9043 18.2188H30.8418V14.4688ZM35.2168 23.5312H30.8418V19.1562H35.2168C35.797 19.1562 36.3534 19.3867 36.7636 19.797C37.1738 20.2072 37.4043 20.7636 37.4043 21.3438C37.4043 21.9239 37.1738 22.4803 36.7636 22.8905C36.3534 23.3008 35.797 23.5312 35.2168 23.5312ZM40.5293 15.25C40.5293 15.1257 40.5787 15.0065 40.6666 14.9185C40.7545 14.8306 40.8737 14.7812 40.998 14.7812H45.998C46.1224 14.7812 46.2416 14.8306 46.3295 14.9185C46.4174 15.0065 46.4668 15.1257 46.4668 15.25C46.4668 15.3743 46.4174 15.4935 46.3295 15.5815C46.2416 15.6694 46.1224 15.7188 45.998 15.7188H40.998C40.8737 15.7188 40.7545 15.6694 40.6666 15.5815C40.5787 15.4935 40.5293 15.3743 40.5293 15.25ZM43.498 17.2812C42.8855 17.2813 42.2832 17.438 41.7483 17.7363C41.2133 18.0347 40.7635 18.4648 40.4415 18.9858C40.1195 19.5069 39.936 20.1016 39.9085 20.7135C39.881 21.3254 40.0103 21.9341 40.2842 22.482C40.5581 23.0299 40.9675 23.4986 41.4735 23.8438C41.9795 24.189 42.5653 24.3991 43.1753 24.4542C43.7853 24.5093 44.3993 24.4076 44.959 24.1587C45.5186 23.9098 46.0054 23.5219 46.373 23.032C46.4477 22.9326 46.4799 22.8075 46.4624 22.6844C46.4449 22.5612 46.3791 22.4501 46.2797 22.3754C46.1802 22.3007 46.0552 22.2686 45.932 22.2861C45.8089 22.3036 45.6977 22.3693 45.623 22.4688C45.3127 22.8827 44.8882 23.197 44.4017 23.3731C43.9151 23.5491 43.3878 23.5792 42.8844 23.4598C42.381 23.3403 41.9235 23.0764 41.5679 22.7005C41.2124 22.3246 40.9744 21.853 40.8832 21.3438H46.623C46.7474 21.3438 46.8666 21.2944 46.9545 21.2065C47.0424 21.1185 47.0918 20.9993 47.0918 20.875C47.0906 19.9223 46.7115 19.0089 46.0378 18.3352C45.3642 17.6615 44.4508 17.2825 43.498 17.2812ZM40.8832 20.4062C40.9929 19.7925 41.3149 19.2369 41.7929 18.8367C42.271 18.4365 42.8746 18.2172 43.498 18.2172C44.1215 18.2172 44.7251 18.4365 45.2031 18.8367C45.6812 19.2369 46.0032 19.7925 46.1129 20.4062H40.8832Z" fill="#0A231D"/>
<path d="M62.8668 22.13C62.8668 23.334 62.0688 25 58.5688 25H55.8388C55.6148 25 55.4748 24.944 55.4748 24.762C55.4748 24.636 55.5728 24.594 55.6988 24.51C55.8528 24.412 55.9928 24.286 56.0628 24.16C56.1888 23.95 56.2448 23.712 56.2448 22.732V17.104C56.2448 16.04 56.2448 15.788 55.9088 15.592C55.6988 15.48 55.4888 15.438 55.4888 15.242C55.4888 15.088 55.6148 15.004 55.8248 15.004H58.5548C59.8008 15.004 60.8788 15.004 61.7048 15.648C62.2508 16.068 62.4748 16.656 62.4748 17.216C62.4748 18.616 61.3128 19.372 60.3328 19.526C60.2628 19.54 60.2208 19.554 60.2208 19.61C60.2208 19.652 60.2628 19.68 60.3188 19.68C61.7608 19.806 62.8668 20.716 62.8668 22.13ZM61.6768 22.116C61.6768 20.52 60.5148 19.974 58.6248 19.974C58.2048 19.974 57.5748 19.988 57.5048 19.988C57.3788 19.988 57.3228 20.072 57.3228 20.17V22.704C57.3228 23.894 57.3508 24.076 57.4628 24.23C57.5888 24.398 57.8128 24.412 58.2608 24.412H58.6668C59.8708 24.412 61.6768 24.146 61.6768 22.116ZM57.3228 19.176C57.3228 19.33 57.4208 19.4 57.5748 19.4H58.4428C59.9828 19.4 61.2988 18.938 61.2988 17.356C61.2988 15.662 59.7028 15.564 58.5408 15.564C58.3588 15.564 57.7708 15.578 57.6028 15.578C57.3928 15.578 57.3228 15.662 57.3228 15.872V19.176ZM65.4821 20.394C65.4821 20.492 65.5241 20.52 65.6081 20.52H68.1141C68.9681 20.52 69.4021 20.352 69.4021 19.624C69.4021 18.924 68.8001 18.098 67.6801 18.098C66.1261 18.098 65.4821 19.792 65.4821 20.394ZM70.1581 23.208C70.3121 23.208 70.4241 23.334 70.4241 23.488C70.4241 23.782 70.0041 24.23 69.4441 24.608C68.9121 24.958 68.2401 25.154 67.5681 25.154C65.6921 25.154 64.2501 23.712 64.2501 21.542C64.2501 19.484 65.6501 17.538 67.7921 17.538C68.5901 17.538 69.3041 17.832 69.7941 18.308C70.2421 18.756 70.5781 19.4 70.5781 20.072C70.5781 20.786 70.3121 21.08 69.5001 21.08H65.5381C65.4401 21.08 65.3841 21.108 65.3841 21.22C65.3841 21.934 65.5101 22.704 65.9301 23.306C66.3501 23.922 66.9661 24.384 67.8201 24.384C68.3381 24.384 68.8001 24.216 69.1081 24.034C69.7241 23.67 69.8921 23.208 70.1581 23.208ZM78.9373 24.51C79.0913 24.58 79.1613 24.664 79.1613 24.762C79.1613 24.944 78.9933 25 78.8113 25H76.7393C76.5573 25 76.4033 24.944 76.4033 24.762C76.4033 24.664 76.4593 24.58 76.6133 24.51C76.7393 24.454 76.9213 24.356 77.0193 24.188C77.1453 23.978 77.2433 23.656 77.2433 22.69V20.31C77.2433 19.106 76.6833 18.434 75.6193 18.434C75.1713 18.434 74.6953 18.588 74.3453 18.938C73.7853 19.498 73.6733 20.268 73.6733 22.69C73.6733 23.656 73.7713 23.978 73.8973 24.188C73.9953 24.356 74.1913 24.454 74.3033 24.51C74.4573 24.58 74.5133 24.664 74.5133 24.762C74.5133 24.944 74.3733 25 74.1773 25H72.1193C71.9513 25 71.7833 24.944 71.7833 24.762C71.7833 24.664 71.8393 24.58 71.9933 24.51C72.1193 24.454 72.3153 24.356 72.4133 24.188C72.5393 23.978 72.6373 23.656 72.6373 22.69V16.95C72.6373 16.264 72.6373 15.928 72.4693 15.718C72.3713 15.592 72.2313 15.55 72.0213 15.494C71.8673 15.452 71.7273 15.41 71.7273 15.242C71.7273 15.102 71.7833 15.018 72.0773 14.948C72.5113 14.85 72.8333 14.738 73.1553 14.598C73.2533 14.556 73.3233 14.542 73.3933 14.542C73.5893 14.542 73.6733 14.682 73.6733 14.864V18.77C73.6733 18.798 73.6733 18.84 73.7013 18.84C73.7293 18.84 73.7433 18.812 73.7713 18.77C74.1773 18.168 74.9193 17.538 76.0393 17.538C76.7673 17.538 77.3413 17.804 77.7333 18.238C78.2373 18.784 78.3213 19.596 78.3213 20.282V22.69C78.3213 23.656 78.4053 23.978 78.5313 24.188C78.6293 24.356 78.8113 24.454 78.9373 24.51ZM84.5836 21.164V20.954C84.5836 20.926 84.5696 20.898 84.5416 20.898C84.5276 20.898 84.5136 20.898 84.4856 20.926C83.9256 21.388 82.8756 21.654 82.1196 22.13C81.5876 22.466 81.3636 22.928 81.3636 23.376C81.3636 24.09 81.8956 24.538 82.5816 24.538C83.1836 24.538 83.8696 24.202 84.2476 23.418C84.5696 22.746 84.5836 22.046 84.5836 21.164ZM86.2356 24.216C86.4176 24.216 86.4316 24.37 86.4316 24.426C86.4316 24.748 86.0256 25.154 85.5496 25.154C85.1296 25.154 84.7096 24.874 84.6256 24.02C84.6256 23.992 84.6256 23.964 84.5976 23.964C84.5836 23.964 84.5696 23.978 84.5416 24.02C84.0796 24.776 83.1976 25.154 82.3296 25.154C81.2236 25.154 80.1596 24.496 80.1596 23.362C80.1596 22.816 80.4396 22.284 80.9856 21.906C81.7416 21.374 82.5956 21.262 83.4076 20.884C84.2476 20.492 84.5836 19.96 84.5836 19.386C84.5836 18.7 84.1496 18.112 83.3096 18.112C82.8476 18.112 82.4976 18.252 82.1896 18.504C81.6856 18.91 81.4756 19.414 81.3076 19.638C81.2376 19.75 81.1536 19.848 81.0136 19.848C80.7056 19.848 80.7056 19.484 80.7056 19.232C80.7056 18.882 80.7756 18.42 80.9296 18.21C81.1256 17.972 81.5316 17.79 81.9796 17.678C82.3296 17.58 82.7496 17.538 83.1276 17.538C84.1216 17.538 84.7096 17.874 85.1016 18.308C85.6476 18.924 85.6756 19.764 85.6756 20.478C85.6756 21.234 85.6336 22.06 85.6336 22.886C85.6336 23.516 85.6336 24.244 86.0256 24.244C86.0816 24.244 86.1796 24.216 86.2356 24.216ZM94.8804 24.51C95.0344 24.58 95.1044 24.664 95.1044 24.762C95.1044 24.944 94.9364 25 94.7544 25H92.6824C92.5004 25 92.3464 24.944 92.3464 24.762C92.3464 24.664 92.4024 24.58 92.5564 24.51C92.6824 24.454 92.8644 24.356 92.9624 24.188C93.0884 23.978 93.1864 23.656 93.1864 22.69V20.31C93.1864 19.106 92.6264 18.434 91.5624 18.434C91.1144 18.434 90.6384 18.588 90.2884 18.938C89.7284 19.498 89.6164 20.268 89.6164 22.69C89.6164 23.656 89.7144 23.978 89.8404 24.188C89.9384 24.356 90.1344 24.454 90.2464 24.51C90.4004 24.58 90.4564 24.664 90.4564 24.762C90.4564 24.944 90.3164 25 90.1204 25H88.0624C87.8944 25 87.7264 24.944 87.7264 24.762C87.7264 24.664 87.7824 24.58 87.9364 24.51C88.0624 24.454 88.2584 24.356 88.3564 24.188C88.4824 23.978 88.5804 23.656 88.5804 22.69V19.946C88.5804 19.26 88.5804 18.924 88.4124 18.714C88.3144 18.588 88.1744 18.546 87.9644 18.49C87.8104 18.448 87.6704 18.406 87.6704 18.238C87.6704 18.098 87.7264 18.014 88.0204 17.944C88.4544 17.846 88.7764 17.734 89.0984 17.594C89.1964 17.552 89.2664 17.538 89.3364 17.538C89.5324 17.538 89.6164 17.678 89.6164 17.86V18.77C89.6164 18.798 89.6164 18.84 89.6444 18.84C89.6724 18.84 89.6864 18.812 89.7144 18.77C90.1204 18.168 90.8624 17.538 91.9824 17.538C92.7104 17.538 93.2844 17.804 93.6764 18.238C94.1804 18.784 94.2644 19.61 94.2644 20.282V22.69C94.2644 23.656 94.3484 23.978 94.4744 24.188C94.5724 24.356 94.7544 24.454 94.8804 24.51ZM102.051 23.824C101.575 24.594 100.567 25.168 99.419 25.168C98.425 25.168 97.529 24.748 96.941 23.936C96.493 23.32 96.311 22.606 96.311 21.752C96.311 20.492 96.801 19.078 97.921 18.238C98.579 17.734 99.265 17.538 100.063 17.538C100.567 17.538 101.379 17.678 101.729 18.042C101.939 18.252 101.981 18.658 101.981 18.994C101.981 19.568 101.897 19.792 101.645 19.792C101.309 19.792 101.295 19.386 101.001 18.966C100.679 18.504 100.217 18.196 99.587 18.196C98.985 18.196 98.481 18.518 98.159 18.91C97.585 19.596 97.417 20.464 97.417 21.388C97.417 22.102 97.599 22.802 97.879 23.264C98.327 24.006 99.069 24.328 99.783 24.328C100.581 24.328 101.183 23.922 101.561 23.502C101.687 23.362 101.785 23.25 101.939 23.25C102.093 23.25 102.177 23.376 102.177 23.502C102.177 23.6 102.121 23.712 102.051 23.824ZM104.597 20.394C104.597 20.492 104.639 20.52 104.723 20.52H107.229C108.083 20.52 108.517 20.352 108.517 19.624C108.517 18.924 107.915 18.098 106.795 18.098C105.241 18.098 104.597 19.792 104.597 20.394ZM109.273 23.208C109.427 23.208 109.539 23.334 109.539 23.488C109.539 23.782 109.119 24.23 108.559 24.608C108.027 24.958 107.355 25.154 106.683 25.154C104.807 25.154 103.365 23.712 103.365 21.542C103.365 19.484 104.765 17.538 106.907 17.538C107.705 17.538 108.419 17.832 108.909 18.308C109.357 18.756 109.693 19.4 109.693 20.072C109.693 20.786 109.427 21.08 108.615 21.08H104.653C104.555 21.08 104.499 21.108 104.499 21.22C104.499 21.934 104.625 22.704 105.045 23.306C105.465 23.922 106.081 24.384 106.935 24.384C107.453 24.384 107.915 24.216 108.223 24.034C108.839 23.67 109.007 23.208 109.273 23.208Z" fill="#0A231D"/>
</svg>
