<svg width="18" height="18" viewBox="0 0 18 18" fill="none" xmlns="http://www.w3.org/2000/svg">
<path d="M10.5759 6.88976C11.1582 6.88976 11.6302 6.4177 11.6302 5.83538C11.6302 5.25307 11.1582 4.78101 10.5759 4.78101C9.99354 4.78101 9.52148 5.25307 9.52148 5.83538C9.52148 6.4177 9.99354 6.88976 10.5759 6.88976Z" stroke="#C3C1B8" stroke-linecap="round" stroke-linejoin="round"/>
<path d="M6.35727 12.1616C6.64842 12.1616 6.88445 11.9255 6.88445 11.6344C6.88445 11.3432 6.64842 11.1072 6.35727 11.1072C6.06611 11.1072 5.83008 11.3432 5.83008 11.6344C5.83008 11.9255 6.06611 12.1616 6.35727 12.1616Z" stroke="#C3C1B8" stroke-linecap="round" stroke-linejoin="round"/>
<path d="M6.35906 8.4713C6.94138 8.4713 7.41344 7.99924 7.41344 7.41693C7.41344 6.83461 6.94138 6.36255 6.35906 6.36255C5.77675 6.36255 5.30469 6.83461 5.30469 7.41693C5.30469 7.99924 5.77675 8.4713 6.35906 8.4713Z" stroke="#C3C1B8" stroke-linecap="round" stroke-linejoin="round"/>
<path d="M11.6516 14.5656C11.6398 14.3611 11.5688 14.1644 11.447 13.9996C11.3253 13.8348 11.1583 13.7091 10.9662 13.6377C10.4893 13.481 10.084 13.1593 9.82311 12.7304C9.56221 12.3015 9.46285 11.7937 9.5429 11.2981C9.62295 10.8026 9.87716 10.3518 10.2598 10.0269C10.6425 9.702 11.1285 9.52427 11.6305 9.52566H13.6022C13.9403 9.5266 14.2738 9.4462 14.5744 9.29123C14.8749 9.13627 15.1338 8.91129 15.3292 8.63527C15.5246 8.35925 15.6507 8.0403 15.697 7.7053C15.7432 7.37031 15.7082 7.0291 15.5949 6.71047C15.1756 5.52637 14.4388 4.48031 13.4652 3.68657C12.4916 2.89283 11.3186 2.38194 10.0743 2.20973C8.82995 2.03752 7.56224 2.21061 6.40965 2.71008C5.25705 3.20956 4.2639 4.0162 3.5387 5.04189C2.8135 6.06759 2.38415 7.27286 2.29755 8.52604C2.21096 9.77922 2.47046 11.0321 3.0477 12.1478C3.62494 13.2635 4.49771 14.199 5.57065 14.8523C6.6436 15.5056 7.87545 15.8513 9.13162 15.8519C9.75197 15.8536 10.3695 15.7685 10.9662 15.5989C11.1854 15.5375 11.3752 15.3993 11.501 15.2096C11.6268 15.02 11.6803 14.7914 11.6516 14.5656Z" stroke="#C3C1B8" stroke-linecap="round" stroke-linejoin="round"/>
</svg>
