<svg width="18" height="18" viewBox="0 0 18 18" fill="none" xmlns="http://www.w3.org/2000/svg">
<path d="M1.57917 8C1.52639 8.37473 1.5 8.75655 1.5 9.14545C1.5 13.4835 4.85833 16 9 16C13.1417 16 16.5 13.4835 16.5 9.14545C16.5 8.756 16.4736 8.37418 16.4208 8" stroke="#0A231D" stroke-linecap="round" stroke-linejoin="round"/>
<path d="M9 10.75L9 5M9 10.75C8.475 10.75 7.494 9.2545 7.125 8.875M9 10.75C9.525 10.75 10.506 9.2545 10.875 8.875" stroke="#0A231D" stroke-linecap="round" stroke-linejoin="round"/>
<path d="M6 3.00003C6 3.00003 7.5 2 9 2C10.5 2 12 3.00003 12 3.00003" stroke="#0A231D" stroke-linecap="round" stroke-linejoin="round"/>
</svg>
