<svg width="16" height="14" viewBox="0 0 16 14" fill="none" xmlns="http://www.w3.org/2000/svg">
<path d="M0.5 5.5L5.68475 8.43775C7.5965 9.52075 8.4035 9.52075 10.3152 8.43775L15.5 5.5" stroke="#0A231D" stroke-linecap="round" stroke-linejoin="round"/>
<path d="M5 4.00003C5 4.00003 6.5 3 8 3C9.5 3 11 4.00003 11 4.00003" stroke="#0A231D" stroke-linecap="round" stroke-linejoin="round"/>
<path d="M0.512591 8.10694C0.561341 10.4057 0.586091 11.5554 1.43434 12.4067C2.28259 13.2587 3.46309 13.2879 5.82484 13.3472C7.27984 13.3847 8.72134 13.3847 10.1763 13.3472C12.5381 13.2879 13.7186 13.2587 14.5668 12.4067C15.4151 11.5554 15.4398 10.4057 15.4893 8.10694C15.5043 7.36744 15.5043 6.63244 15.4893 5.89294C15.4398 3.59419 15.4151 2.44444 14.5668 1.59319C13.7186 0.741191 12.5381 0.711941 10.1763 0.652691C8.72607 0.616095 7.27511 0.616095 5.82484 0.652691C3.46309 0.711941 2.28259 0.741191 1.43434 1.59319C0.586091 2.44444 0.561341 3.59419 0.511841 5.89294C0.496053 6.63086 0.496803 7.36903 0.512591 8.10694Z" stroke="#0A231D" stroke-linecap="round" stroke-linejoin="round"/>
</svg>
