<svg width="147" height="31" viewBox="0 0 147 31" fill="none" xmlns="http://www.w3.org/2000/svg">
<g clip-path="url(#clip0_1441_455)">
<path d="M23.4375 19.4375H21.1875C20.7425 19.4375 20.3075 19.5695 19.9375 19.8167C19.5675 20.0639 19.2791 20.4153 19.1088 20.8265C18.9385 21.2376 18.8939 21.69 18.9807 22.1265C19.0676 22.5629 19.2818 22.9638 19.5965 23.2785C19.9112 23.5932 20.3121 23.8075 20.7485 23.8943C21.185 23.9811 21.6374 23.9365 22.0485 23.7662C22.4597 23.5959 22.8111 23.3075 23.0583 22.9375C23.3055 22.5675 23.4375 22.1325 23.4375 21.6875V19.4375Z" stroke="#A6DA95" stroke-linecap="round" stroke-linejoin="round"/>
<path d="M23.4375 18.3125V13.8125H21.1875C20.5908 13.8125 20.0185 14.0496 19.5965 14.4715C19.1746 14.8935 18.9375 15.4658 18.9375 16.0625C18.9375 16.6592 19.1746 17.2315 19.5965 17.6535C20.0185 18.0754 20.5908 18.3125 21.1875 18.3125H23.4375Z" stroke="#C6A0F6" stroke-linecap="round" stroke-linejoin="round"/>
<path d="M23.4375 12.6875V8.1875H21.1875C20.5908 8.1875 20.0185 8.42455 19.5965 8.84651C19.1746 9.26847 18.9375 9.84076 18.9375 10.4375C18.9375 11.0342 19.1746 11.6065 19.5965 12.0285C20.0185 12.4504 20.5908 12.6875 21.1875 12.6875H23.4375Z" stroke="#ED8796" stroke-linecap="round" stroke-linejoin="round"/>
<path d="M26.8125 12.6875C27.4092 12.6875 27.9815 12.4504 28.4035 12.0285C28.8254 11.6065 29.0625 11.0342 29.0625 10.4375C29.0625 9.84076 28.8254 9.26847 28.4035 8.84651C27.9815 8.42455 27.4092 8.1875 26.8125 8.1875H24.5625V12.6875H26.8125Z" stroke="#F5A97F" stroke-linecap="round" stroke-linejoin="round"/>
<path d="M29.0625 16.0625C29.0625 16.6592 28.8254 17.2315 28.4035 17.6535C27.9815 18.0754 27.4092 18.3125 26.8125 18.3125C26.2158 18.3125 25.6435 18.0754 25.2215 17.6535C24.7996 17.2315 24.5625 16.6592 24.5625 16.0625C24.5625 15.4658 24.7996 14.8935 25.2215 14.4715C25.6435 14.0496 26.2158 13.8125 26.8125 13.8125C27.4092 13.8125 27.9815 14.0496 28.4035 14.4715C28.8254 14.8935 29.0625 15.4658 29.0625 16.0625Z" stroke="#91D7E3" stroke-linecap="round" stroke-linejoin="round"/>
</g>
<path d="M49.2317 9.2C49.2317 9.368 49.1197 9.396 48.9377 9.508C48.6997 9.648 48.5457 9.83 48.3637 10.082C48.1817 10.348 47.9997 10.712 47.8737 11.006C47.5237 11.776 44.4017 18.818 44.3037 19C44.2757 19.07 44.2337 19.112 44.1777 19.112H43.8557C43.7577 19.112 43.7437 19.084 43.7157 19C43.7157 19 40.8177 11.454 40.6497 11.006C40.3837 10.348 40.2017 9.928 39.9497 9.69C39.8237 9.564 39.7117 9.508 39.5857 9.452C39.4737 9.396 39.3897 9.34 39.3897 9.214C39.3897 9.06 39.5157 9.004 39.7817 9.004H41.7417C41.9377 9.004 42.0357 9.088 42.0357 9.228C42.0357 9.34 41.9517 9.396 41.8257 9.452C41.6157 9.55 41.4617 9.676 41.4617 9.914C41.4617 10.096 41.5597 10.404 41.7977 11.02C42.1477 11.888 44.1077 17.026 44.2617 17.432C44.2897 17.502 44.3037 17.53 44.3457 17.53C44.3877 17.53 44.4017 17.474 44.4297 17.418C44.5277 17.194 46.0957 13.54 46.6557 12.154C47.0197 11.286 47.3137 10.6 47.3137 10.11C47.3137 9.76 47.1597 9.578 46.8657 9.452C46.7117 9.382 46.6697 9.326 46.6697 9.214C46.6697 9.074 46.8097 9.004 47.0477 9.004H48.8537C49.1057 9.004 49.2317 9.06 49.2317 9.2ZM51.9778 9.396C51.9778 9.69 51.3898 10.278 51.0958 10.278C50.8158 10.278 50.2278 9.676 50.2278 9.396C50.2278 9.13 50.8158 8.528 51.0958 8.528C51.3898 8.528 51.9778 9.116 51.9778 9.396ZM52.2858 18.524C52.4538 18.622 52.4958 18.678 52.4958 18.762C52.4958 18.944 52.3558 19 52.1738 19H50.0878C49.9058 19 49.7658 18.944 49.7658 18.762C49.7658 18.678 49.8218 18.608 49.9758 18.524C50.1018 18.454 50.2838 18.356 50.3818 18.188C50.5218 17.978 50.5918 17.67 50.5918 16.69V13.498C50.5918 13.106 50.5778 12.882 50.4518 12.728C50.3538 12.616 50.1858 12.546 50.0178 12.504C49.7938 12.448 49.6958 12.378 49.6958 12.252C49.6958 12.126 49.7378 12.042 50.0738 11.958C50.5498 11.846 50.7738 11.776 51.1798 11.608C51.2778 11.566 51.3478 11.538 51.4178 11.538C51.5998 11.538 51.6698 11.678 51.6698 11.874V16.69C51.6698 17.67 51.7538 17.992 51.8798 18.188C51.9918 18.356 52.1598 18.454 52.2858 18.524ZM55.0017 14.394C55.0017 14.492 55.0437 14.52 55.1277 14.52H57.6337C58.4877 14.52 58.9217 14.352 58.9217 13.624C58.9217 12.924 58.3197 12.098 57.1997 12.098C55.6457 12.098 55.0017 13.792 55.0017 14.394ZM59.6777 17.208C59.8317 17.208 59.9437 17.334 59.9437 17.488C59.9437 17.782 59.5237 18.23 58.9637 18.608C58.4317 18.958 57.7597 19.154 57.0877 19.154C55.2117 19.154 53.7697 17.712 53.7697 15.542C53.7697 13.484 55.1697 11.538 57.3117 11.538C58.1097 11.538 58.8237 11.832 59.3137 12.308C59.7617 12.756 60.0977 13.4 60.0977 14.072C60.0977 14.786 59.8317 15.08 59.0197 15.08H55.0577C54.9597 15.08 54.9037 15.108 54.9037 15.22C54.9037 15.934 55.0297 16.704 55.4497 17.306C55.8697 17.922 56.4857 18.384 57.3397 18.384C57.8577 18.384 58.3197 18.216 58.6277 18.034C59.2437 17.67 59.4117 17.208 59.6777 17.208ZM72.7161 11.916C72.7161 12.056 72.5621 12.126 72.4221 12.21C72.2541 12.308 72.0861 12.406 71.8761 12.686C71.7221 12.896 71.5401 13.204 71.3301 13.764C71.0641 14.464 69.7761 18.174 69.4821 19.014C69.4681 19.07 69.4121 19.098 69.3561 19.098H68.7541C68.6841 19.098 68.6421 19.07 68.6281 19.014L66.6541 13.148C66.6401 13.12 66.6261 13.12 66.6121 13.12C66.5981 13.12 66.5841 13.12 66.5701 13.148L64.3581 18.986C64.3301 19.07 64.2881 19.098 64.1901 19.098H63.6301C63.5321 19.098 63.4901 19.07 63.4621 18.986L61.9501 13.764C61.7821 13.19 61.5721 12.658 61.3201 12.406C61.1801 12.266 61.0401 12.21 60.9281 12.154C60.8021 12.098 60.7321 12.028 60.7321 11.902C60.7321 11.748 60.8721 11.692 61.1521 11.692H63.1821C63.3921 11.692 63.5041 11.776 63.5041 11.916C63.5041 12.21 62.8461 12.154 62.8461 12.742C62.8461 12.952 62.9161 13.274 63.0701 13.778L64.1761 17.6C64.1901 17.642 64.2041 17.656 64.2181 17.656C64.2461 17.656 64.2601 17.656 64.2741 17.614L66.5141 11.692C66.5421 11.608 66.5841 11.594 66.6401 11.594H67.1721C67.2281 11.594 67.2561 11.608 67.2701 11.65L69.2861 17.6C69.3001 17.642 69.3141 17.656 69.3281 17.656C69.3561 17.656 69.3701 17.642 69.3841 17.6C69.5101 17.236 69.9721 15.878 70.2801 14.94C70.5881 14.002 70.7981 13.372 70.7981 12.924C70.7981 12.098 70.0981 12.266 70.0981 11.916C70.0981 11.762 70.2381 11.692 70.4761 11.692H72.3241C72.6041 11.692 72.7161 11.762 72.7161 11.916ZM79.3421 18.51C79.4541 18.566 79.5661 18.636 79.5661 18.776C79.5661 18.944 79.4121 19 79.1741 19H77.2281C76.9901 19 76.8361 18.944 76.8361 18.776C76.8361 18.636 76.9341 18.58 77.0741 18.51C77.2421 18.426 77.3821 18.3 77.4801 18.16C77.6061 17.964 77.6621 17.726 77.6621 16.746V11.118C77.6621 9.998 77.6061 9.76 77.3261 9.578C77.1021 9.438 76.9061 9.41 76.9061 9.228C76.9061 9.06 77.0321 9.004 77.2561 9.004H79.1461C79.3561 9.004 79.5101 9.06 79.5101 9.228C79.5101 9.41 79.3001 9.438 79.0901 9.578C78.7961 9.76 78.7401 9.998 78.7401 11.118V16.746C78.7401 17.726 78.8101 17.964 78.9221 18.16C79.0201 18.3 79.1321 18.398 79.3421 18.51ZM88.2144 18.51C88.3684 18.58 88.4384 18.664 88.4384 18.762C88.4384 18.944 88.2704 19 88.0884 19H86.0164C85.8344 19 85.6804 18.944 85.6804 18.762C85.6804 18.664 85.7364 18.58 85.8904 18.51C86.0164 18.454 86.1984 18.356 86.2964 18.188C86.4224 17.978 86.5204 17.656 86.5204 16.69V14.31C86.5204 13.106 85.9604 12.434 84.8964 12.434C84.4484 12.434 83.9724 12.588 83.6224 12.938C83.0624 13.498 82.9504 14.268 82.9504 16.69C82.9504 17.656 83.0484 17.978 83.1744 18.188C83.2724 18.356 83.4684 18.454 83.5804 18.51C83.7344 18.58 83.7904 18.664 83.7904 18.762C83.7904 18.944 83.6504 19 83.4544 19H81.3964C81.2284 19 81.0604 18.944 81.0604 18.762C81.0604 18.664 81.1164 18.58 81.2704 18.51C81.3964 18.454 81.5924 18.356 81.6904 18.188C81.8164 17.978 81.9144 17.656 81.9144 16.69V13.946C81.9144 13.26 81.9144 12.924 81.7464 12.714C81.6484 12.588 81.5084 12.546 81.2984 12.49C81.1444 12.448 81.0044 12.406 81.0044 12.238C81.0044 12.098 81.0604 12.014 81.3544 11.944C81.7884 11.846 82.1104 11.734 82.4324 11.594C82.5304 11.552 82.6004 11.538 82.6704 11.538C82.8664 11.538 82.9504 11.678 82.9504 11.86V12.77C82.9504 12.798 82.9504 12.84 82.9784 12.84C83.0064 12.84 83.0204 12.812 83.0484 12.77C83.4544 12.168 84.1964 11.538 85.3164 11.538C86.0444 11.538 86.6184 11.804 87.0104 12.238C87.5144 12.784 87.5984 13.61 87.5984 14.282V16.69C87.5984 17.656 87.6824 17.978 87.8084 18.188C87.9064 18.356 88.0884 18.454 88.2144 18.51ZM99.7475 11.034C99.7475 11.356 99.6355 11.468 99.4535 11.468C99.2995 11.468 99.1875 11.426 99.0755 11.132C98.8795 10.656 98.8235 10.264 98.3475 9.928C97.8715 9.606 96.9755 9.578 95.8135 9.578H95.0295C94.8335 9.578 94.7635 9.662 94.7635 9.83V13.568C94.7635 13.778 94.8195 13.848 95.0575 13.848C95.4075 13.848 95.8975 13.848 96.4855 13.82C97.1435 13.792 97.7035 13.722 98.1095 13.722C98.3615 13.722 98.5155 13.764 98.5155 13.96C98.5155 14.044 98.4875 14.114 98.4735 14.17C98.3755 14.562 98.3055 14.59 97.8295 14.59C97.4655 14.59 96.8915 14.534 96.3595 14.52C95.8275 14.506 95.2255 14.506 94.9315 14.506C94.8055 14.52 94.7635 14.562 94.7635 14.674V16.746C94.7635 17.726 94.8335 17.964 94.9455 18.16C95.0435 18.3 95.1695 18.426 95.3655 18.524C95.4635 18.594 95.5895 18.65 95.5895 18.776C95.5895 18.944 95.4355 19 95.1975 19H93.2515C93.0135 19 92.8595 18.944 92.8595 18.776C92.8595 18.65 92.9855 18.594 93.0975 18.524C93.2795 18.426 93.4055 18.3 93.5035 18.16C93.6295 17.964 93.6855 17.726 93.6855 16.746V10.894C93.6855 9.984 93.6715 9.774 93.3075 9.578C93.1535 9.48 92.9295 9.438 92.9295 9.242C92.9295 9.088 93.0555 9.004 93.2795 9.004H96.8775C98.2215 9.004 98.8375 8.892 99.1875 8.892C99.4395 8.892 99.6635 8.99 99.6775 9.27C99.7055 9.69 99.7195 10.53 99.7475 11.034ZM102.933 9.396C102.933 9.69 102.345 10.278 102.051 10.278C101.771 10.278 101.183 9.676 101.183 9.396C101.183 9.13 101.771 8.528 102.051 8.528C102.345 8.528 102.933 9.116 102.933 9.396ZM103.241 18.524C103.409 18.622 103.451 18.678 103.451 18.762C103.451 18.944 103.311 19 103.129 19H101.043C100.861 19 100.721 18.944 100.721 18.762C100.721 18.678 100.777 18.608 100.931 18.524C101.057 18.454 101.239 18.356 101.337 18.188C101.477 17.978 101.547 17.67 101.547 16.69V13.498C101.547 13.106 101.533 12.882 101.407 12.728C101.309 12.616 101.141 12.546 100.973 12.504C100.749 12.448 100.651 12.378 100.651 12.252C100.651 12.126 100.693 12.042 101.029 11.958C101.505 11.846 101.729 11.776 102.135 11.608C102.233 11.566 102.303 11.538 102.373 11.538C102.555 11.538 102.625 11.678 102.625 11.874V16.69C102.625 17.67 102.709 17.992 102.835 18.188C102.947 18.356 103.115 18.454 103.241 18.524ZM107.525 12.098C106.615 12.098 106.083 12.91 106.083 13.876C106.083 15.122 106.741 16.2 107.763 16.2C108.659 16.2 109.205 15.416 109.205 14.394C109.205 13.036 108.477 12.098 107.525 12.098ZM109.513 17.936C110.423 18.09 111.039 18.594 111.039 19.406C111.039 20.638 109.891 21.702 107.581 21.702C106.363 21.702 105.481 21.464 104.949 21.016C104.599 20.722 104.431 20.33 104.431 19.952C104.431 19.602 104.557 19.322 104.795 19.084C104.977 18.902 105.229 18.776 105.467 18.776C105.635 18.776 105.747 18.86 105.747 18.986C105.747 19.098 105.691 19.154 105.621 19.28C105.551 19.392 105.453 19.588 105.453 19.882C105.453 20.162 105.593 20.442 105.887 20.666C106.321 20.988 106.993 21.128 107.749 21.128C109.093 21.128 110.129 20.554 110.129 19.742C110.129 19.182 109.639 18.958 108.785 18.874C108.183 18.804 107.301 18.776 106.657 18.622C105.943 18.454 105.593 18.076 105.593 17.6C105.593 17.096 105.915 16.732 106.461 16.508C105.551 16.088 104.949 15.248 104.949 14.184C104.949 12.742 106.055 11.538 107.679 11.538C108.211 11.538 108.841 11.692 109.457 12.14C109.541 12.196 109.611 12.224 109.681 12.224C110.101 12.224 109.947 11.51 110.577 11.51C110.857 11.51 111.081 11.692 111.081 12.07C111.081 12.504 110.759 12.742 110.157 12.742C110.087 12.742 110.031 12.742 109.947 12.728C110.241 13.19 110.311 13.666 110.311 14.03C110.311 15.542 109.359 16.648 107.777 16.746C107.539 16.76 107.343 16.774 107.259 16.788C106.979 16.816 106.573 16.9 106.573 17.236C106.573 17.53 106.853 17.656 107.609 17.74C108.127 17.796 108.855 17.824 109.513 17.936ZM123.85 18.524C123.99 18.594 124.074 18.664 124.074 18.776C124.074 18.944 123.92 19 123.738 19H121.68C121.498 19 121.344 18.944 121.344 18.776C121.344 18.678 121.4 18.594 121.554 18.524C121.652 18.482 121.876 18.356 121.974 18.188C122.1 17.978 122.184 17.67 122.184 16.69V14.338C122.184 13.568 122.002 13.134 121.652 12.812C121.4 12.574 121.022 12.42 120.574 12.42C120.126 12.42 119.664 12.588 119.328 12.952C118.824 13.498 118.74 14.282 118.74 16.69C118.74 17.67 118.838 17.978 118.964 18.188C119.062 18.356 119.244 18.454 119.37 18.524C119.524 18.608 119.58 18.678 119.58 18.776C119.58 18.944 119.426 19 119.244 19H117.186C117.004 19 116.85 18.944 116.85 18.776C116.85 18.678 116.906 18.608 117.074 18.524C117.214 18.454 117.382 18.356 117.48 18.188C117.606 17.978 117.69 17.67 117.69 16.69V14.338C117.69 13.624 117.55 13.05 117.172 12.742C116.948 12.56 116.626 12.434 116.22 12.434C115.772 12.434 115.31 12.588 114.946 12.952C114.414 13.498 114.246 14.282 114.246 16.69C114.246 17.67 114.316 17.978 114.456 18.188C114.568 18.356 114.764 18.468 114.862 18.524C115.016 18.608 115.072 18.678 115.072 18.776C115.072 18.944 114.918 19 114.75 19H112.692C112.51 19 112.356 18.944 112.356 18.776C112.356 18.678 112.412 18.594 112.566 18.524C112.692 18.468 112.874 18.356 112.986 18.188C113.112 17.992 113.196 17.67 113.196 16.69V13.806C113.196 13.218 113.196 12.91 113.042 12.728C112.944 12.616 112.79 12.56 112.594 12.504C112.454 12.462 112.3 12.42 112.3 12.252C112.3 12.126 112.342 12.014 112.65 11.944C113.098 11.846 113.406 11.734 113.728 11.594C113.826 11.552 113.896 11.538 113.966 11.538C114.162 11.538 114.246 11.692 114.246 11.874V12.798C114.246 12.826 114.26 12.84 114.274 12.84C114.288 12.84 114.302 12.826 114.33 12.784C114.736 12.182 115.478 11.538 116.598 11.538C117.704 11.538 118.348 12.154 118.614 12.798C118.628 12.84 118.642 12.854 118.656 12.854C118.684 12.854 118.698 12.84 118.726 12.798C119.132 12.196 119.846 11.538 120.98 11.538C121.89 11.538 122.534 12 122.884 12.56C123.192 13.064 123.234 13.54 123.234 14.31V16.69C123.234 17.67 123.318 17.978 123.444 18.188C123.542 18.356 123.724 18.454 123.85 18.524ZM129.488 15.164V14.954C129.488 14.926 129.474 14.898 129.446 14.898C129.432 14.898 129.418 14.898 129.39 14.926C128.83 15.388 127.78 15.654 127.024 16.13C126.492 16.466 126.268 16.928 126.268 17.376C126.268 18.09 126.8 18.538 127.486 18.538C128.088 18.538 128.774 18.202 129.152 17.418C129.474 16.746 129.488 16.046 129.488 15.164ZM131.14 18.216C131.322 18.216 131.336 18.37 131.336 18.426C131.336 18.748 130.93 19.154 130.454 19.154C130.034 19.154 129.614 18.874 129.53 18.02C129.53 17.992 129.53 17.964 129.502 17.964C129.488 17.964 129.474 17.978 129.446 18.02C128.984 18.776 128.102 19.154 127.234 19.154C126.128 19.154 125.064 18.496 125.064 17.362C125.064 16.816 125.344 16.284 125.89 15.906C126.646 15.374 127.5 15.262 128.312 14.884C129.152 14.492 129.488 13.96 129.488 13.386C129.488 12.7 129.054 12.112 128.214 12.112C127.752 12.112 127.402 12.252 127.094 12.504C126.59 12.91 126.38 13.414 126.212 13.638C126.142 13.75 126.058 13.848 125.918 13.848C125.61 13.848 125.61 13.484 125.61 13.232C125.61 12.882 125.68 12.42 125.834 12.21C126.03 11.972 126.436 11.79 126.884 11.678C127.234 11.58 127.654 11.538 128.032 11.538C129.026 11.538 129.614 11.874 130.006 12.308C130.552 12.924 130.58 13.764 130.58 14.478C130.58 15.234 130.538 16.06 130.538 16.886C130.538 17.516 130.538 18.244 130.93 18.244C130.986 18.244 131.084 18.216 131.14 18.216Z" fill="url(#paint0_linear_1441_455)"/>
<defs>
<linearGradient id="paint0_linear_1441_455" x1="39" y1="15.5" x2="132" y2="15.5" gradientUnits="userSpaceOnUse">
<stop stop-color="#ED8796"/>
<stop offset="0.184543" stop-color="#F5A97F"/>
<stop offset="0.412178" stop-color="#C6A0F6"/>
<stop offset="0.742395" stop-color="#91D7E3"/>
<stop offset="1" stop-color="#A6DA95"/>
</linearGradient>
<clipPath id="clip0_1441_455">
<rect width="18" height="18" fill="white" transform="translate(15 6.5)"/>
</clipPath>
</defs>
</svg>
