<svg width="1440" height="262" viewBox="0 0 1440 262" fill="none" xmlns="http://www.w3.org/2000/svg">
<g filter="url(#filter0_i_1635_463)">
<path d="M-332.628 26.3715C-325.299 34.7958 -322.734 49.8129 -322.734 61.1673C-322.734 71.7892 -323.833 80.2134 -330.795 80.2134C-334.826 80.2134 -337.025 78.7484 -340.323 73.2543C-345.453 64.83 -352.416 50.1792 -362.676 39.9236C-372.204 30.7668 -384.663 22.7088 -402.985 22.7088C-433.4 23.0751 -452.455 44.6851 -452.455 67.7602C-452.455 81.6785 -446.225 92.6667 -436.331 101.091C-416.177 118.306 -375.502 120.503 -343.621 140.282C-322.367 153.468 -312.84 171.781 -312.84 194.856C-312.84 219.763 -325.299 240.64 -342.522 255.291C-359.745 269.942 -379.533 277.634 -407.016 277.634C-439.629 277.634 -470.411 267.012 -480.671 248.698C-485.801 239.175 -486.534 228.553 -487.267 217.931C-487.634 213.903 -488 210.606 -488 205.845C-488 199.252 -484.336 196.688 -480.305 196.688C-477.74 196.688 -475.541 197.787 -473.709 200.35C-470.411 204.379 -466.38 213.903 -460.517 222.693C-450.989 236.611 -431.934 261.152 -397.488 261.152C-361.943 261.152 -337.391 237.71 -337.391 207.31C-337.391 189.362 -345.087 176.909 -357.179 168.485C-385.396 148.706 -433.4 149.805 -461.25 120.87C-470.044 111.713 -477.007 97.7945 -477.007 80.2134C-477.007 39.5573 -440.362 7.69171 -391.625 7.69171C-366.341 7.69171 -341.789 15.3834 -332.628 26.3715Z" fill="#F9F8F6"/>
<path d="M-89.578 260.785C-85.5471 262.617 -83.7148 264.814 -83.7148 267.378C-83.7148 272.14 -88.1122 273.605 -92.8759 273.605H-147.11C-151.873 273.605 -155.904 272.14 -155.904 267.378C-155.904 264.814 -154.439 262.617 -150.408 260.785C-147.11 259.32 -142.346 256.756 -139.781 252.361C-136.483 246.867 -133.918 238.443 -133.918 213.17V150.904C-133.918 119.404 -148.575 101.823 -176.425 101.823C-188.151 101.823 -200.611 105.852 -209.772 115.009C-224.429 129.66 -227.361 149.805 -227.361 213.17C-227.361 238.443 -224.796 246.867 -221.498 252.361C-218.933 256.756 -213.802 259.32 -210.871 260.785C-206.84 262.617 -205.374 264.814 -205.374 267.378C-205.374 272.14 -209.039 273.605 -214.169 273.605H-268.036C-272.434 273.605 -276.831 272.14 -276.831 267.378C-276.831 264.814 -275.365 262.617 -271.334 260.785C-268.036 259.32 -262.906 256.756 -260.341 252.361C-257.043 246.867 -254.478 238.443 -254.478 213.17V62.9987C-254.478 45.0514 -254.478 36.2609 -258.875 30.7668C-261.44 27.4704 -265.105 26.3715 -270.601 24.9065C-274.632 23.8076 -278.297 22.7088 -278.297 18.3136C-278.297 14.6509 -276.831 12.4532 -269.136 10.6219C-257.776 8.05798 -249.348 5.1278 -240.919 1.46509C-238.354 0.366267 -236.522 0 -234.69 0C-229.56 0 -227.361 3.66271 -227.361 8.42424V110.614C-227.361 111.347 -227.361 112.445 -226.628 112.445C-225.895 112.445 -225.529 111.713 -224.796 110.614C-214.169 94.8643 -194.747 78.3821 -165.432 78.3821C-146.377 78.3821 -131.353 85.3412 -121.092 96.6957C-107.9 110.98 -105.701 132.224 -105.701 150.171V213.17C-105.701 238.443 -103.503 246.867 -100.205 252.361C-97.6397 256.756 -92.876 259.32 -89.578 260.785Z" fill="#F9F8F6"/>
<path d="M58.2106 173.246V167.752C58.2106 167.02 57.8442 166.287 57.1113 166.287C56.7449 166.287 56.3784 166.287 55.6456 167.02C40.9878 179.107 13.5045 186.066 -6.28351 198.519C-20.2084 207.31 -26.0715 219.397 -26.0715 231.117C-26.0715 249.797 -12.1466 261.518 5.80914 261.518C21.5662 261.518 39.522 252.727 49.416 232.216C57.8442 214.635 58.2106 196.321 58.2106 173.246ZM101.451 253.094C106.215 253.094 106.581 257.123 106.581 258.588C106.581 267.012 95.9543 277.634 83.4953 277.634C72.502 277.634 61.5087 270.308 59.31 247.966C59.31 247.233 59.31 246.501 58.5771 246.501C58.2106 246.501 57.8442 246.867 57.1113 247.966C45.0186 267.744 21.9327 277.634 -0.786865 277.634C-29.7359 277.634 -57.5857 260.419 -57.5857 230.751C-57.5857 216.466 -50.2568 202.548 -35.9655 192.659C-16.1775 178.74 6.1756 175.81 27.4293 165.921C49.416 155.665 58.2106 141.747 58.2106 126.73C58.2106 108.783 46.8509 93.3992 24.8643 93.3992C12.7716 93.3992 3.61047 97.0619 -4.45129 103.655C-17.6433 114.277 -23.1399 127.462 -27.5373 133.323C-29.3695 136.253 -31.5681 138.817 -35.2326 138.817C-43.2944 138.817 -43.2943 129.294 -43.2943 122.701C-43.2943 113.544 -41.4622 101.457 -37.4313 95.9631C-32.3011 89.7365 -21.6742 84.975 -9.94797 82.0448C-0.786865 79.4809 10.2065 78.3821 20.1005 78.3821C46.118 78.3821 61.5087 87.1726 71.7691 98.527C86.0604 114.643 86.7933 136.619 86.7933 155.299C86.7933 175.078 85.694 196.688 85.694 218.298C85.694 234.78 85.694 253.826 95.9544 253.826C97.4202 253.826 99.9853 253.094 101.451 253.094Z" fill="#F9F8F6"/>
<path d="M253.013 236.978C257.777 236.978 258.876 240.64 258.876 242.105C258.876 244.669 257.41 247.599 255.944 250.163C248.249 262.617 231.026 277.634 205.742 277.634C185.954 277.634 173.495 267.378 167.631 257.489C161.035 246.134 159.57 231.484 159.57 215.368C159.57 184.601 161.768 149.805 161.768 110.614C161.768 108.05 160.669 106.585 158.104 106.585H135.384C132.453 106.585 131.353 105.486 131.353 102.922V92.6667C131.353 90.8353 132.086 89.7365 134.285 89.004C146.744 84.975 153.707 80.946 158.104 75.8182C163.967 68.859 165.066 59.7022 168.731 42.1212C169.097 39.9236 170.197 38.4585 172.762 38.4585H184.854C187.419 38.4585 188.519 39.9236 188.519 42.1212V81.3122C188.519 86.8063 190.351 88.6377 196.581 88.6377C201.711 88.6377 206.841 88.6377 216.002 88.2714C225.53 87.9051 236.889 86.44 244.585 86.44C249.715 86.44 254.845 86.8063 254.845 92.3004C254.845 94.498 254.112 95.5968 253.746 97.7945C251.914 106.585 248.249 108.416 238.355 108.416C231.759 108.416 222.964 107.318 213.07 106.951C205.009 106.585 199.878 106.585 192.916 106.585C189.984 106.585 188.519 108.416 188.519 111.347C188.152 117.573 187.786 150.538 187.786 175.444C187.786 203.647 188.519 224.158 192.916 235.879C197.68 248.698 207.574 253.094 217.468 253.094C237.622 253.094 246.417 236.978 253.013 236.978Z" fill="#F9F8F6"/>
<path d="M319.039 153.101C319.039 155.665 320.138 156.398 322.337 156.398H387.93C410.283 156.398 421.643 152.003 421.643 132.957C421.643 114.643 405.886 93.0329 376.57 93.0329C335.895 93.0329 319.039 137.352 319.039 153.101ZM441.431 226.722C445.462 226.722 448.393 230.018 448.393 234.047C448.393 241.739 437.4 253.46 422.742 263.349C408.817 272.506 391.228 277.634 373.639 277.634C324.535 277.634 286.792 239.908 286.792 183.136C286.792 129.294 323.436 78.3821 379.502 78.3821C400.389 78.3821 419.078 86.0738 431.903 98.527C443.63 110.248 452.424 127.096 452.424 144.677C452.424 163.357 445.462 171.049 424.208 171.049H320.504C317.939 171.049 316.474 171.781 316.474 174.711C316.474 193.391 319.772 213.536 330.765 229.286C341.758 245.402 357.882 257.489 380.235 257.489C393.793 257.489 405.886 253.094 413.948 248.332C430.071 238.809 434.469 226.722 441.431 226.722Z" fill="#F9F8F6"/>
<path d="M587.273 78.3821C603.396 78.3821 608.16 90.1028 608.16 99.6258C608.16 106.951 605.595 114.277 597.9 114.277C588.739 114.277 586.174 106.585 575.18 106.585C567.485 106.585 558.324 110.614 550.628 123.067C540.368 139.916 538.536 159.328 538.536 213.536C538.536 238.809 541.101 247.233 544.032 252.361C546.598 256.756 552.094 259.32 554.659 260.785C559.057 262.983 560.156 265.181 560.156 267.744C560.156 272.14 556.492 273.605 551.728 273.605H497.494C493.097 273.605 489.066 272.14 489.066 267.744C489.066 265.181 490.532 262.983 494.562 260.785C498.227 258.954 502.991 256.39 505.922 250.896C508.854 245.402 511.052 238.809 511.052 213.536C511.052 187.165 510.686 144.311 510.686 141.014C510.686 123.433 509.587 114.277 505.556 109.881C502.258 106.219 499.326 105.486 494.196 103.655C490.898 102.556 486.134 100.725 486.134 96.6957C486.134 92.6667 487.6 90.469 495.295 88.6377C505.556 86.44 509.953 84.975 519.481 80.946C523.512 79.1146 525.71 78.7484 527.909 78.7484C533.406 78.7484 535.238 82.0448 535.238 87.5389V117.207C535.238 117.939 535.604 118.306 535.971 118.306C536.337 118.306 536.704 117.573 537.07 116.841C544.032 103.289 564.553 78.3821 587.273 78.3821Z" fill="#F9F8F6"/>
<path d="M931.235 261.152C934.899 262.983 937.098 264.814 937.098 267.744C937.098 272.14 933.067 273.605 928.303 273.605H874.436C869.672 273.605 865.641 272.14 865.641 267.744C865.641 265.181 867.107 262.983 871.138 261.152C873.703 260.053 879.566 256.756 882.131 252.361C885.429 246.867 887.628 238.809 887.628 213.17V151.636C887.628 131.491 882.864 120.137 873.703 111.713C867.107 105.486 857.213 101.457 845.487 101.457C833.761 101.457 821.668 105.852 812.874 115.375C799.682 129.66 797.483 150.171 797.483 213.17C797.483 238.809 800.048 246.867 803.346 252.361C805.911 256.756 810.675 259.32 813.973 261.152C818.004 263.349 819.47 265.181 819.47 267.744C819.47 272.14 815.439 273.605 810.675 273.605H756.808C752.044 273.605 748.013 272.14 748.013 267.744C748.013 265.181 749.479 263.349 753.876 261.152C757.541 259.32 761.938 256.756 764.503 252.361C767.801 246.867 770 238.809 770 213.17V151.636C770 132.957 766.335 117.939 756.441 109.881C750.578 105.12 742.15 101.823 731.523 101.823C719.797 101.823 707.704 105.852 698.177 115.375C684.252 129.66 679.854 150.171 679.854 213.17C679.854 238.809 681.687 246.867 685.351 252.361C688.283 256.756 693.413 259.686 695.978 261.152C700.009 263.349 701.475 265.181 701.475 267.744C701.475 272.14 697.444 273.605 693.046 273.605H639.179C634.415 273.605 630.384 272.14 630.384 267.744C630.384 265.181 631.85 262.983 635.881 261.152C639.179 259.686 643.943 256.756 646.874 252.361C650.172 247.233 652.371 238.809 652.371 213.17V137.718C652.371 122.335 652.371 114.277 648.34 109.515C645.775 106.585 641.744 105.12 636.614 103.655C632.949 102.556 628.919 101.457 628.919 97.0619C628.919 93.7655 630.018 90.8353 638.08 89.004C649.806 86.44 657.868 83.5099 666.296 79.8472C668.861 78.7484 670.693 78.3821 672.526 78.3821C677.656 78.3821 679.854 82.4111 679.854 87.1726V111.347C679.854 112.079 680.221 112.445 680.587 112.445C680.954 112.445 681.32 112.079 682.053 110.98C692.68 95.2306 712.101 78.3821 741.417 78.3821C770.366 78.3821 787.222 94.498 794.185 111.347C794.551 112.445 794.918 112.812 795.284 112.812C796.017 112.812 796.384 112.445 797.116 111.347C807.743 95.5968 826.432 78.3821 856.114 78.3821C879.933 78.3821 896.789 90.469 905.95 105.12C914.012 118.306 915.111 130.759 915.111 150.904V213.17C915.111 238.809 917.31 246.867 920.608 252.361C923.173 256.756 927.937 259.32 931.235 261.152Z" fill="#F9F8F6"/>
<path d="M1084.31 236.978C1089.08 236.978 1090.17 240.64 1090.17 242.105C1090.17 244.669 1088.71 247.599 1087.24 250.163C1079.55 262.617 1062.32 277.634 1037.04 277.634C1017.25 277.634 1004.79 267.378 998.93 257.489C992.334 246.134 990.868 231.484 990.868 215.368C990.868 184.601 993.067 149.805 993.067 110.614C993.067 108.05 991.967 106.585 989.402 106.585H966.683C963.751 106.585 962.652 105.486 962.652 102.922V92.6667C962.652 90.8353 963.385 89.7365 965.583 89.004C978.042 84.975 985.005 80.946 989.402 75.8182C995.265 68.859 996.365 59.7022 1000.03 42.1212C1000.4 39.9236 1001.49 38.4585 1004.06 38.4585H1016.15C1018.72 38.4585 1019.82 39.9236 1019.82 42.1212V81.3122C1019.82 86.8063 1021.65 88.6377 1027.88 88.6377C1033.01 88.6377 1038.14 88.6377 1047.3 88.2714C1056.83 87.9051 1068.19 86.44 1075.88 86.44C1081.01 86.44 1086.14 86.8063 1086.14 92.3004C1086.14 94.498 1085.41 95.5968 1085.04 97.7945C1083.21 106.585 1079.55 108.416 1069.65 108.416C1063.06 108.416 1054.26 107.318 1044.37 106.951C1036.31 106.585 1031.18 106.585 1024.21 106.585C1021.28 106.585 1019.82 108.416 1019.82 111.347C1019.45 117.573 1019.08 150.538 1019.08 175.444C1019.08 203.647 1019.82 224.158 1024.21 235.879C1028.98 248.698 1038.87 253.094 1048.77 253.094C1068.92 253.094 1077.72 236.978 1084.31 236.978Z" fill="#F9F8F6"/>
<path d="M1128.19 252.727C1128.19 244.303 1145.41 227.088 1153.47 227.088C1161.9 227.088 1179.12 244.669 1179.12 252.727C1179.12 260.419 1161.53 278 1153.47 278C1145.41 278 1128.19 260.785 1128.19 252.727Z" fill="#F9F8F6"/>
<path d="M1368.18 242.838C1355.72 262.983 1329.34 278 1299.29 278C1273.27 278 1249.82 267.012 1234.43 245.768C1222.7 229.652 1217.94 210.972 1217.94 188.63C1217.94 155.665 1230.77 118.672 1260.08 96.6957C1277.3 83.5099 1295.26 78.3821 1316.15 78.3821C1329.34 78.3821 1350.59 82.0448 1359.75 91.5679C1365.25 97.0619 1366.35 107.684 1366.35 116.474C1366.35 131.491 1364.15 137.352 1357.56 137.352C1348.76 137.352 1348.39 126.73 1340.7 115.742C1332.27 103.655 1320.18 95.5968 1303.69 95.5968C1287.93 95.5968 1274.74 104.021 1266.31 114.277C1251.29 132.224 1246.89 154.933 1246.89 179.107C1246.89 197.787 1251.65 216.1 1258.98 228.187C1270.71 247.599 1290.13 256.024 1308.82 256.024C1329.71 256.024 1345.46 245.402 1355.36 234.414C1358.65 230.751 1361.22 227.821 1365.25 227.821C1369.28 227.821 1371.48 231.117 1371.48 234.414C1371.48 236.978 1370.01 239.908 1368.18 242.838Z" fill="#F9F8F6"/>
<path d="M1554.65 187.897C1554.65 151.636 1541.46 114.643 1515.07 99.9921C1507.75 95.9631 1499.32 93.0329 1490.16 93.0329C1479.9 93.0329 1470.37 95.9631 1461.94 101.091C1444.35 112.445 1432.62 134.055 1432.62 165.921C1432.62 215.734 1457.18 262.25 1497.49 262.25C1515.81 262.25 1530.47 253.46 1540.36 239.542C1549.52 226.356 1554.65 208.042 1554.65 187.897ZM1493.82 78.3821C1552.45 78.3821 1583.97 122.335 1583.97 176.909C1583.97 231.85 1547.32 277.634 1493.82 277.634C1438.85 277.634 1402.94 239.175 1402.94 179.107C1402.94 124.166 1439.95 78.3821 1493.82 78.3821Z" fill="#F9F8F6"/>
<path d="M1922.14 261.152C1925.8 262.983 1928 264.814 1928 267.744C1928 272.14 1923.97 273.605 1919.21 273.605H1865.34C1860.57 273.605 1856.54 272.14 1856.54 267.744C1856.54 265.181 1858.01 262.983 1862.04 261.152C1864.61 260.053 1870.47 256.756 1873.03 252.361C1876.33 246.867 1878.53 238.809 1878.53 213.17V151.636C1878.53 131.491 1873.77 120.137 1864.61 111.713C1858.01 105.486 1848.12 101.457 1836.39 101.457C1824.66 101.457 1812.57 105.852 1803.78 115.375C1790.58 129.66 1788.39 150.171 1788.39 213.17C1788.39 238.809 1790.95 246.867 1794.25 252.361C1796.81 256.756 1801.58 259.32 1804.88 261.152C1808.91 263.349 1810.37 265.181 1810.37 267.744C1810.37 272.14 1806.34 273.605 1801.58 273.605H1747.71C1742.95 273.605 1738.91 272.14 1738.91 267.744C1738.91 265.181 1740.38 263.349 1744.78 261.152C1748.44 259.32 1752.84 256.756 1755.4 252.361C1758.7 246.867 1760.9 238.809 1760.9 213.17V151.636C1760.9 132.957 1757.24 117.939 1747.34 109.881C1741.48 105.12 1733.05 101.823 1722.42 101.823C1710.7 101.823 1698.61 105.852 1689.08 115.375C1675.15 129.66 1670.76 150.171 1670.76 213.17C1670.76 238.809 1672.59 246.867 1676.25 252.361C1679.18 256.756 1684.31 259.686 1686.88 261.152C1690.91 263.349 1692.38 265.181 1692.38 267.744C1692.38 272.14 1688.35 273.605 1683.95 273.605H1630.08C1625.32 273.605 1621.29 272.14 1621.29 267.744C1621.29 265.181 1622.75 262.983 1626.78 261.152C1630.08 259.686 1634.84 256.756 1637.78 252.361C1641.07 247.233 1643.27 238.809 1643.27 213.17V137.718C1643.27 122.335 1643.27 114.277 1639.24 109.515C1636.68 106.585 1632.65 105.12 1627.52 103.655C1623.85 102.556 1619.82 101.457 1619.82 97.0619C1619.82 93.7655 1620.92 90.8353 1628.98 89.004C1640.71 86.44 1648.77 83.5099 1657.2 79.8472C1659.76 78.7484 1661.6 78.3821 1663.43 78.3821C1668.56 78.3821 1670.76 82.4111 1670.76 87.1726V111.347C1670.76 112.079 1671.12 112.445 1671.49 112.445C1671.86 112.445 1672.22 112.079 1672.96 110.98C1683.58 95.2306 1703 78.3821 1732.32 78.3821C1761.27 78.3821 1778.12 94.498 1785.09 111.347C1785.45 112.445 1785.82 112.812 1786.19 112.812C1786.92 112.812 1787.29 112.445 1788.02 111.347C1798.65 95.5968 1817.33 78.3821 1847.02 78.3821C1870.83 78.3821 1887.69 90.469 1896.85 105.12C1904.91 118.306 1906.01 130.759 1906.01 150.904V213.17C1906.01 238.809 1908.21 246.867 1911.51 252.361C1914.08 256.756 1918.84 259.32 1922.14 261.152Z" fill="#F9F8F6"/>
</g>
<defs>
<filter id="filter0_i_1635_463" x="-488" y="0" width="2416" height="282" filterUnits="userSpaceOnUse" color-interpolation-filters="sRGB">
<feFlood flood-opacity="0" result="BackgroundImageFix"/>
<feBlend mode="normal" in="SourceGraphic" in2="BackgroundImageFix" result="shape"/>
<feColorMatrix in="SourceAlpha" type="matrix" values="0 0 0 0 0 0 0 0 0 0 0 0 0 0 0 0 0 0 127 0" result="hardAlpha"/>
<feOffset dy="4"/>
<feGaussianBlur stdDeviation="2"/>
<feComposite in2="hardAlpha" operator="arithmetic" k2="-1" k3="1"/>
<feColorMatrix type="matrix" values="0 0 0 0 0.861161 0 0 0 0 0.858259 0 0 0 0 0.852454 0 0 0 0.6 0"/>
<feBlend mode="normal" in2="shape" result="effect1_innerShadow_1635_463"/>
</filter>
</defs>
</svg>
