<svg width="390" height="168" viewBox="0 0 390 168" fill="none" xmlns="http://www.w3.org/2000/svg">
<g filter="url(#filter0_i_1635_471)">
<path d="M-498.619 17.4545C-493.79 23.0303 -492.099 32.9697 -492.099 40.4848C-492.099 47.5152 -492.824 53.0909 -497.412 53.0909C-500.068 53.0909 -501.517 52.1212 -503.69 48.4848C-507.07 42.9091 -511.658 33.2121 -518.419 26.4242C-524.697 20.3636 -532.907 15.0303 -544.98 15.0303C-565.022 15.2727 -577.578 29.5758 -577.578 44.8485C-577.578 54.0606 -573.473 61.3333 -566.953 66.9091C-553.673 78.303 -526.87 79.7576 -505.863 92.8485C-491.858 101.576 -485.58 113.697 -485.58 128.97C-485.58 145.455 -493.79 159.273 -505.138 168.97C-516.487 178.667 -529.526 183.758 -547.636 183.758C-569.127 183.758 -589.41 176.727 -596.171 164.606C-599.551 158.303 -600.034 151.273 -600.517 144.242C-600.759 141.576 -601 139.394 -601 136.242C-601 131.879 -598.585 130.182 -595.929 130.182C-594.239 130.182 -592.79 130.909 -591.583 132.606C-589.41 135.273 -586.754 141.576 -582.89 147.394C-576.612 156.606 -564.056 172.848 -541.358 172.848C-517.936 172.848 -501.758 157.333 -501.758 137.212C-501.758 125.333 -506.829 117.091 -514.797 111.515C-533.39 98.4242 -565.022 99.1515 -583.373 80C-589.168 73.9394 -593.756 64.7273 -593.756 53.0909C-593.756 26.1818 -569.61 5.09092 -537.495 5.09092C-520.834 5.09092 -504.656 10.1818 -498.619 17.4545Z" fill="#F9F8F6"/>
<path d="M-338.464 172.606C-335.808 173.818 -334.6 175.273 -334.6 176.97C-334.6 180.121 -337.498 181.091 -340.637 181.091H-376.374C-379.513 181.091 -382.169 180.121 -382.169 176.97C-382.169 175.273 -381.203 173.818 -378.547 172.606C-376.374 171.636 -373.235 169.939 -371.544 167.03C-369.371 163.394 -367.681 157.818 -367.681 141.091V99.8788C-367.681 79.0303 -377.339 67.3939 -395.691 67.3939C-403.418 67.3939 -411.627 70.0606 -417.664 76.1212C-427.323 85.8182 -429.254 99.1515 -429.254 141.091C-429.254 157.818 -427.564 163.394 -425.391 167.03C-423.701 169.939 -420.32 171.636 -418.388 172.606C-415.732 173.818 -414.767 175.273 -414.767 176.97C-414.767 180.121 -417.181 181.091 -420.562 181.091H-456.057C-458.955 181.091 -461.852 180.121 -461.852 176.97C-461.852 175.273 -460.886 173.818 -458.23 172.606C-456.057 171.636 -452.676 169.939 -450.986 167.03C-448.813 163.394 -447.123 157.818 -447.123 141.091V41.697C-447.123 29.8182 -447.123 24 -450.02 20.3636C-451.711 18.1818 -454.125 17.4545 -457.747 16.4849C-460.403 15.7576 -462.818 15.0303 -462.818 12.1212C-462.818 9.69697 -461.852 8.24242 -456.781 7.0303C-449.296 5.33334 -443.742 3.39394 -438.189 0.969699C-436.498 0.242421 -435.291 0 -434.084 0C-430.703 0 -429.254 2.42424 -429.254 5.57576V73.2121C-429.254 73.697 -429.254 74.4242 -428.771 74.4242C-428.289 74.4242 -428.047 73.9394 -427.564 73.2121C-420.562 62.7879 -407.764 51.8788 -388.447 51.8788C-375.891 51.8788 -365.991 56.4849 -359.23 64C-350.537 73.4545 -349.088 87.5152 -349.088 99.3939V141.091C-349.088 157.818 -347.639 163.394 -345.466 167.03C-343.776 169.939 -340.637 171.636 -338.464 172.606Z" fill="#F9F8F6"/>
<path d="M-241.08 114.667V111.03C-241.08 110.545 -241.321 110.061 -241.804 110.061C-242.046 110.061 -242.287 110.061 -242.77 110.545C-252.429 118.545 -270.538 123.152 -283.578 131.394C-292.753 137.212 -296.617 145.212 -296.617 152.97C-296.617 165.333 -287.441 173.091 -275.609 173.091C-265.226 173.091 -253.394 167.273 -246.875 153.697C-241.321 142.061 -241.08 129.939 -241.08 114.667ZM-212.587 167.515C-209.448 167.515 -209.206 170.182 -209.206 171.152C-209.206 176.727 -216.209 183.758 -224.419 183.758C-231.663 183.758 -238.907 178.909 -240.355 164.121C-240.355 163.636 -240.355 163.152 -240.838 163.152C-241.08 163.152 -241.321 163.394 -241.804 164.121C-249.772 177.212 -264.985 183.758 -279.956 183.758C-299.031 183.758 -317.383 172.364 -317.383 152.727C-317.383 143.273 -312.553 134.061 -303.136 127.515C-290.097 118.303 -275.368 116.364 -261.363 109.818C-246.875 103.03 -241.08 93.8182 -241.08 83.8788C-241.08 72 -248.565 61.8182 -263.053 61.8182C-271.021 61.8182 -277.058 64.2424 -282.37 68.6061C-291.063 75.6364 -294.685 84.3636 -297.583 88.2424C-298.79 90.1818 -300.239 91.8788 -302.653 91.8788C-307.966 91.8788 -307.965 85.5758 -307.965 81.2121C-307.965 75.1515 -306.758 67.1515 -304.102 63.5152C-300.722 59.3939 -293.719 56.2424 -285.992 54.303C-279.956 52.6061 -272.712 51.8788 -266.192 51.8788C-249.048 51.8788 -238.907 57.697 -232.146 65.2121C-222.728 75.8788 -222.245 90.4242 -222.245 102.788C-222.245 115.879 -222.97 130.182 -222.97 144.485C-222.97 155.394 -222.97 168 -216.209 168C-215.243 168 -213.553 167.515 -212.587 167.515Z" fill="#F9F8F6"/>
<path d="M-112.717 156.848C-109.578 156.848 -108.853 159.273 -108.853 160.242C-108.853 161.939 -109.819 163.879 -110.785 165.576C-115.856 173.818 -127.205 183.758 -143.866 183.758C-156.905 183.758 -165.115 176.97 -168.978 170.424C-173.324 162.909 -174.29 153.212 -174.29 142.545C-174.29 122.182 -172.841 99.1515 -172.841 73.2121C-172.841 71.5152 -173.566 70.5454 -175.256 70.5454H-190.227C-192.159 70.5454 -192.883 69.8182 -192.883 68.1212V61.3333C-192.883 60.1212 -192.4 59.3939 -190.951 58.9091C-182.741 56.2424 -178.154 53.5758 -175.256 50.1818C-171.393 45.5758 -170.668 39.5151 -168.254 27.8788C-168.012 26.4242 -167.288 25.4545 -165.598 25.4545H-157.629C-155.939 25.4545 -155.215 26.4242 -155.215 27.8788V53.8182C-155.215 57.4545 -154.007 58.6667 -149.902 58.6667C-146.522 58.6667 -143.141 58.6667 -137.105 58.4242C-130.827 58.1818 -123.341 57.2121 -118.27 57.2121C-114.89 57.2121 -111.509 57.4545 -111.509 61.0909C-111.509 62.5455 -111.992 63.2727 -112.234 64.7273C-113.441 70.5454 -115.856 71.7576 -122.375 71.7576C-126.722 71.7576 -132.517 71.0303 -139.036 70.7879C-144.349 70.5454 -147.729 70.5454 -152.317 70.5454C-154.249 70.5454 -155.215 71.7576 -155.215 73.697C-155.456 77.8182 -155.697 99.6364 -155.697 116.121C-155.697 134.788 -155.215 148.364 -152.317 156.121C-149.178 164.606 -142.658 167.515 -136.139 167.515C-122.858 167.515 -117.063 156.848 -112.717 156.848Z" fill="#F9F8F6"/>
<path d="M-69.2097 101.333C-69.2097 103.03 -68.4852 103.515 -67.0364 103.515H-23.8143C-9.0849 103.515 -1.59955 100.606 -1.59955 88C-1.59955 75.8788 -11.9825 61.5758 -31.2997 61.5758C-58.1022 61.5758 -69.2097 90.9091 -69.2097 101.333ZM11.4396 150.061C14.0957 150.061 16.0274 152.242 16.0274 154.909C16.0274 160 8.78345 167.758 -0.875122 174.303C-10.0508 180.364 -21.6411 183.758 -33.2314 183.758C-65.5877 183.758 -90.4586 158.788 -90.4586 121.212C-90.4586 85.5757 -66.3121 51.8788 -29.368 51.8788C-15.6045 51.8788 -3.28973 56.9697 5.1615 65.2121C12.8884 72.9697 18.6835 84.1212 18.6835 95.7576C18.6835 108.121 14.0957 113.212 0.0906982 113.212H-68.2438C-69.9341 113.212 -70.8999 113.697 -70.8999 115.636C-70.8999 128 -68.7267 141.333 -61.4828 151.758C-54.2388 162.424 -43.6144 170.424 -28.885 170.424C-19.9508 170.424 -11.9825 167.515 -6.67029 164.364C3.95416 158.061 6.85181 150.061 11.4396 150.061Z" fill="#F9F8F6"/>
<path d="M107.541 51.8788C118.165 51.8788 121.304 59.6364 121.304 65.9394C121.304 70.7879 119.614 75.6364 114.543 75.6364C108.507 75.6364 106.816 70.5454 99.5723 70.5454C94.5016 70.5454 88.465 73.2121 83.3942 81.4545C76.6332 92.6061 75.4258 105.455 75.4258 141.333C75.4258 158.061 77.1161 163.636 79.0479 167.03C80.7381 169.939 84.36 171.636 86.0504 172.606C88.9479 174.061 89.6722 175.515 89.6722 177.212C89.6722 180.121 87.2576 181.091 84.1186 181.091H48.3818C45.4842 181.091 42.8281 180.121 42.8281 177.212C42.8281 175.515 43.794 174.061 46.4501 172.606C48.8647 171.394 52.0038 169.697 53.9355 166.061C55.8672 162.424 57.316 158.061 57.316 141.333C57.316 123.879 57.0745 95.5152 57.0745 93.3333C57.0745 81.697 56.3502 75.6364 53.694 72.7273C51.5209 70.303 49.5892 69.8182 46.2087 68.6061C44.0355 67.8788 40.8964 66.6667 40.8964 64C40.8964 61.3333 41.8622 59.8788 46.933 58.6667C53.694 57.2121 56.5916 56.2424 62.8697 53.5758C65.5258 52.3636 66.9745 52.1212 68.4233 52.1212C72.0453 52.1212 73.2527 54.303 73.2527 57.9394V77.5758C73.2527 78.0606 73.4941 78.303 73.7356 78.303C73.9771 78.303 74.2185 77.8182 74.46 77.3333C79.0479 68.3636 92.5699 51.8788 107.541 51.8788Z" fill="#F9F8F6"/>
<path d="M334.191 172.848C336.606 174.061 338.055 175.273 338.055 177.212C338.055 180.121 335.399 181.091 332.259 181.091H296.764C293.625 181.091 290.969 180.121 290.969 177.212C290.969 175.515 291.935 174.061 294.591 172.848C296.281 172.121 300.145 169.939 301.835 167.03C304.008 163.394 305.457 158.061 305.457 141.091V100.364C305.457 87.0303 302.318 79.5151 296.281 73.9394C291.935 69.8182 285.415 67.1515 277.688 67.1515C269.962 67.1515 261.993 70.0606 256.198 76.3636C247.505 85.8182 246.057 99.3939 246.057 141.091C246.057 158.061 247.747 163.394 249.92 167.03C251.61 169.939 254.749 171.636 256.922 172.848C259.579 174.303 260.544 175.515 260.544 177.212C260.544 180.121 257.888 181.091 254.749 181.091H219.254C216.115 181.091 213.459 180.121 213.459 177.212C213.459 175.515 214.425 174.303 217.322 172.848C219.737 171.636 222.634 169.939 224.325 167.03C226.498 163.394 227.947 158.061 227.947 141.091V100.364C227.947 88 225.532 78.0606 219.013 72.7273C215.149 69.5758 209.595 67.3939 202.593 67.3939C194.866 67.3939 186.898 70.0606 180.62 76.3636C171.444 85.8182 168.546 99.3939 168.546 141.091C168.546 158.061 169.754 163.394 172.168 167.03C174.1 169.939 177.481 171.879 179.171 172.848C181.827 174.303 182.793 175.515 182.793 177.212C182.793 180.121 180.137 181.091 177.239 181.091H141.744C138.605 181.091 135.949 180.121 135.949 177.212C135.949 175.515 136.914 174.061 139.571 172.848C141.744 171.879 144.883 169.939 146.815 167.03C148.988 163.636 150.437 158.061 150.437 141.091V91.1515C150.437 80.9697 150.437 75.6364 147.78 72.4848C146.09 70.5454 143.434 69.5758 140.054 68.6061C137.639 67.8788 134.983 67.1515 134.983 64.2424C134.983 62.0606 135.707 60.1212 141.019 58.9091C148.746 57.2121 154.058 55.2727 159.612 52.8485C161.302 52.1212 162.51 51.8788 163.717 51.8788C167.098 51.8788 168.546 54.5455 168.546 57.697V73.697C168.546 74.1818 168.788 74.4242 169.029 74.4242C169.271 74.4242 169.512 74.1818 169.995 73.4545C176.998 63.0303 189.795 51.8788 209.112 51.8788C228.188 51.8788 239.296 62.5455 243.883 73.697C244.125 74.4242 244.366 74.6667 244.608 74.6667C245.091 74.6667 245.332 74.4242 245.815 73.697C252.818 63.2727 265.132 51.8788 284.691 51.8788C300.386 51.8788 311.494 59.8788 317.53 69.5758C322.842 78.303 323.567 86.5455 323.567 99.8788V141.091C323.567 158.061 325.016 163.394 327.189 167.03C328.879 169.939 332.018 171.636 334.191 172.848Z" fill="#F9F8F6"/>
<path d="M435.059 156.848C438.198 156.848 438.923 159.273 438.923 160.242C438.923 161.939 437.957 163.879 436.991 165.576C431.92 173.818 420.571 183.758 403.91 183.758C390.871 183.758 382.661 176.97 378.798 170.424C374.452 162.909 373.486 153.212 373.486 142.545C373.486 122.182 374.935 99.1515 374.935 73.2121C374.935 71.5152 374.21 70.5454 372.52 70.5454H357.549C355.617 70.5454 354.893 69.8182 354.893 68.1212V61.3333C354.893 60.1212 355.376 59.3939 356.825 58.9091C365.035 56.2424 369.622 53.5758 372.52 50.1818C376.383 45.5758 377.108 39.5151 379.522 27.8788C379.764 26.4242 380.488 25.4545 382.179 25.4545H390.147C391.837 25.4545 392.562 26.4242 392.562 27.8788V53.8182C392.562 57.4545 393.769 58.6667 397.874 58.6667C401.254 58.6667 404.635 58.6667 410.671 58.4242C416.949 58.1818 424.435 57.2121 429.506 57.2121C432.886 57.2121 436.267 57.4545 436.267 61.0909C436.267 62.5455 435.784 63.2727 435.542 64.7273C434.335 70.5454 431.92 71.7576 425.401 71.7576C421.054 71.7576 415.259 71.0303 408.74 70.7879C403.427 70.5454 400.047 70.5454 395.459 70.5454C393.527 70.5454 392.562 71.7576 392.562 73.697C392.32 77.8182 392.079 99.6364 392.079 116.121C392.079 134.788 392.562 148.364 395.459 156.121C398.598 164.606 405.118 167.515 411.637 167.515C424.918 167.515 430.713 156.848 435.059 156.848Z" fill="#F9F8F6"/>
<path d="M463.971 167.273C463.971 161.697 475.32 150.303 480.632 150.303C486.186 150.303 497.535 161.939 497.535 167.273C497.535 172.364 485.944 184 480.632 184C475.32 184 463.971 172.606 463.971 167.273Z" fill="#F9F8F6"/>
<path d="M622.113 160.727C613.904 174.061 596.518 184 576.718 184C559.574 184 544.12 176.727 533.979 162.667C526.252 152 523.113 139.636 523.113 124.848C523.113 103.03 531.564 78.5455 550.881 64C562.23 55.2727 574.062 51.8788 587.825 51.8788C596.518 51.8788 610.523 54.303 616.56 60.6061C620.182 64.2424 620.906 71.2727 620.906 77.0909C620.906 87.0303 619.457 90.9091 615.111 90.9091C609.316 90.9091 609.074 83.8788 604.004 76.6061C598.45 68.6061 590.482 63.2727 579.616 63.2727C569.233 63.2727 560.54 68.8485 554.986 75.6364C545.086 87.5152 542.189 102.545 542.189 118.545C542.189 130.909 545.328 143.03 550.157 151.03C557.884 163.879 570.681 169.455 582.996 169.455C596.76 169.455 607.143 162.424 613.662 155.152C615.835 152.727 617.526 150.788 620.182 150.788C622.838 150.788 624.287 152.97 624.287 155.152C624.287 156.848 623.321 158.788 622.113 160.727Z" fill="#F9F8F6"/>
<path d="M744.985 124.364C744.985 100.364 736.292 75.8788 718.907 66.1818C714.078 63.5152 708.524 61.5758 702.487 61.5758C695.726 61.5758 689.448 63.5152 683.894 66.9091C672.304 74.4242 664.577 88.7273 664.577 109.818C664.577 142.788 680.755 173.576 707.317 173.576C719.39 173.576 729.048 167.758 735.568 158.545C741.605 149.818 744.985 137.697 744.985 124.364ZM704.902 51.8788C743.536 51.8788 764.302 80.9697 764.302 117.091C764.302 153.455 740.156 183.758 704.902 183.758C668.682 183.758 645.019 158.303 645.019 118.545C645.019 82.1818 669.406 51.8788 704.902 51.8788Z" fill="#F9F8F6"/>
<path d="M987.136 172.848C989.551 174.061 991 175.273 991 177.212C991 180.121 988.344 181.091 985.205 181.091H949.709C946.57 181.091 943.914 180.121 943.914 177.212C943.914 175.515 944.88 174.061 947.536 172.848C949.227 172.121 953.09 169.939 954.78 167.03C956.953 163.394 958.402 158.061 958.402 141.091V100.364C958.402 87.0303 955.263 79.5151 949.227 73.9394C944.88 69.8182 938.361 67.1515 930.634 67.1515C922.907 67.1515 914.938 70.0606 909.143 76.3636C900.451 85.8182 899.002 99.3939 899.002 141.091C899.002 158.061 900.692 163.394 902.865 167.03C904.556 169.939 907.695 171.636 909.868 172.848C912.524 174.303 913.49 175.515 913.49 177.212C913.49 180.121 910.834 181.091 907.695 181.091H872.199C869.06 181.091 866.404 180.121 866.404 177.212C866.404 175.515 867.37 174.303 870.268 172.848C872.682 171.636 875.58 169.939 877.27 167.03C879.443 163.394 880.892 158.061 880.892 141.091V100.364C880.892 88 878.477 78.0606 871.958 72.7273C868.094 69.5758 862.541 67.3939 855.538 67.3939C847.811 67.3939 839.843 70.0606 833.565 76.3636C824.389 85.8182 821.492 99.3939 821.492 141.091C821.492 158.061 822.699 163.394 825.114 167.03C827.045 169.939 830.426 171.879 832.116 172.848C834.772 174.303 835.738 175.515 835.738 177.212C835.738 180.121 833.082 181.091 830.184 181.091H794.689C791.55 181.091 788.894 180.121 788.894 177.212C788.894 175.515 789.86 174.061 792.516 172.848C794.689 171.879 797.828 169.939 799.76 167.03C801.933 163.636 803.382 158.061 803.382 141.091V91.1515C803.382 80.9697 803.382 75.6364 800.726 72.4848C799.035 70.5454 796.379 69.5758 792.999 68.6061C790.584 67.8788 787.928 67.1515 787.928 64.2424C787.928 62.0606 788.652 60.1212 793.965 58.9091C801.692 57.2121 807.004 55.2727 812.557 52.8485C814.248 52.1212 815.455 51.8788 816.662 51.8788C820.043 51.8788 821.492 54.5455 821.492 57.697V73.697C821.492 74.1818 821.733 74.4242 821.975 74.4242C822.216 74.4242 822.458 74.1818 822.94 73.4545C829.943 63.0303 842.741 51.8788 862.058 51.8788C881.134 51.8788 892.241 62.5455 896.829 73.697C897.07 74.4242 897.312 74.6667 897.553 74.6667C898.036 74.6667 898.277 74.4242 898.76 73.697C905.763 63.2727 918.078 51.8788 937.636 51.8788C953.331 51.8788 964.439 59.8788 970.475 69.5758C975.788 78.303 976.512 86.5455 976.512 99.8788V141.091C976.512 158.061 977.961 163.394 980.134 167.03C981.824 169.939 984.963 171.636 987.136 172.848Z" fill="#F9F8F6"/>
</g>
<defs>
<filter id="filter0_i_1635_471" x="-601" y="0" width="1592" height="188" filterUnits="userSpaceOnUse" color-interpolation-filters="sRGB">
<feFlood flood-opacity="0" result="BackgroundImageFix"/>
<feBlend mode="normal" in="SourceGraphic" in2="BackgroundImageFix" result="shape"/>
<feColorMatrix in="SourceAlpha" type="matrix" values="0 0 0 0 0 0 0 0 0 0 0 0 0 0 0 0 0 0 127 0" result="hardAlpha"/>
<feOffset dy="4"/>
<feGaussianBlur stdDeviation="2"/>
<feComposite in2="hardAlpha" operator="arithmetic" k2="-1" k3="1"/>
<feColorMatrix type="matrix" values="0 0 0 0 0.861161 0 0 0 0 0.858259 0 0 0 0 0.852454 0 0 0 0.6 0"/>
<feBlend mode="normal" in2="shape" result="effect1_innerShadow_1635_471"/>
</filter>
</defs>
</svg>
