<svg width="24" height="25" viewBox="0 0 24 25" fill="none" xmlns="http://www.w3.org/2000/svg">
<path d="M12 6.33301V21.333M12 6.33301C12 4.67616 10.6569 3.33301 9 3.33301C7.34315 3.33301 6 4.67616 6 6.33301C6 7.98986 7.34315 9.33301 9 9.33301M12 6.33301C12 4.67616 13.3431 3.33301 15 3.33301C16.6569 3.33301 18 4.67616 18 6.33301C18 7.98986 16.6569 9.33301 15 9.33301M5 13.333H19V20.333C19 20.8853 18.5523 21.333 18 21.333H6C5.44772 21.333 5 20.8853 5 20.333V13.333ZM3 9.33301H21V13.333H3V9.33301Z" stroke="#D8CFB6" stroke-width="1.5" stroke-linecap="round" stroke-linejoin="round"/>
</svg>
