<svg width="90" height="42" viewBox="0 0 90 42" fill="none" xmlns="http://www.w3.org/2000/svg">
<path d="M23.2244 33.4322C17.731 37.1729 13.3596 38.5201 8.28672 39.8558L5.22448 35.1284C9.88832 32.7823 14.7155 29.5182 19.578 24.7911C19.987 29.3785 22.1373 32.6306 23.2244 33.4322Z" fill="#F9F8F6"/>
<path d="M22.4767 33.235C17.2639 36.7889 10.0051 39.2632 1.6948 40.471L0 37.916C7.11811 35.267 13.9909 31.3184 19.321 25.7664C20.1275 29.3203 21.3547 31.6785 22.4767 33.235Z" fill="#EC0024"/>
<path d="M59.6923 21.1665C59.6923 32.4686 50.4822 41.621 39.1093 41.621C27.7482 41.621 18.5262 32.4686 18.5262 21.1665C18.5262 19.8562 18.6502 18.5748 18.8871 17.3332C19.8222 12.4316 22.5172 8.15028 26.2929 5.16072C29.8102 2.37582 34.2653 0.711914 39.1093 0.711914C50.4822 0.711914 59.6923 9.86493 59.6923 21.1665Z" fill="#F9F8F6"/>
<path d="M58.6176 21.1665C58.6176 31.876 49.886 40.5522 39.1095 40.5522C28.3446 40.5522 19.6133 31.876 19.6133 21.1665C19.6133 10.4691 28.3446 1.7808 39.1095 1.7808C49.886 1.78047 58.6176 10.4573 58.6176 21.1665Z" fill="#EC0024"/>
<path d="M55.3795 21.1665C55.3795 30.0987 48.0973 37.3354 39.1092 37.3354C30.1326 37.3354 22.8508 30.0987 22.8508 21.1665C22.8508 12.2342 30.1326 4.99782 39.1092 4.99782C48.0973 4.99782 55.3795 12.2342 55.3795 21.1665Z" fill="#F9F8F6"/>
<path fill-rule="evenodd" clip-rule="evenodd" d="M52.201 13.5C53.4689 15.6311 54.2241 18.0994 54.2981 20.7381L52.8597 21.2024L48.2489 21.3172L45.4495 21.8078L44.9555 21.1664L43.6381 18.5196L26.0324 28.8398C24.694 26.5922 23.9257 23.9691 23.9257 21.1664C23.9257 12.8268 30.7283 6.07836 39.1088 6.07836C44.6836 6.07815 49.5571 9.05603 52.201 13.5Z" fill="#EC0024"/>
<path d="M45.4438 21.1665C45.4557 24.6396 42.6154 27.4622 39.1204 27.4737C35.6142 27.4737 32.7736 24.6514 32.7736 21.1783V21.1665C32.7736 17.6934 35.6023 14.8711 39.1085 14.8711C42.6032 14.8596 45.4435 17.6822 45.4435 21.1551C45.4438 21.1665 45.4438 21.1665 45.4438 21.1665Z" fill="#F9F8F6"/>
<path d="M44.696 21.1664C44.696 24.2334 42.2058 26.7188 39.1205 26.7188C36.0349 26.7188 33.5336 24.2451 33.5217 21.1786V21.1668C33.5217 18.1005 36.0231 15.6145 39.1087 15.6145C42.1943 15.6145 44.696 18.0887 44.696 21.155V21.1664Z" fill="#EC0024"/>
<path d="M41.9847 21.1664C41.9847 22.7343 40.6989 24.0119 39.1095 24.0233C37.5316 24.0233 36.2459 22.7461 36.2459 21.1664C36.2459 19.587 37.5316 18.3209 39.1095 18.3094C40.6986 18.3091 41.9847 19.587 41.9847 21.1664Z" fill="#F9F8F6"/>
<path d="M41.1896 21.1664C41.1896 22.3046 40.2661 23.2338 39.1092 23.2338C37.9637 23.2338 37.0287 22.316 37.0287 21.1664C37.0287 20.0285 37.9637 19.0993 39.1092 19.0993C40.2543 19.099 41.1896 20.0164 41.1896 21.1664Z" fill="#EC0024"/>
<path d="M41.2478 5.72973H36.9232V15.7534H41.2478V5.72973Z" fill="#F9F8F6"/>
<path d="M40.5814 4.28939H37.6012V17.0313H40.5814V4.28939Z" fill="#EC0024"/>
<path d="M51.1595 11.386L53.5206 14.9867L45.0584 20.4465L42.7092 16.8455L51.1595 11.386Z" fill="#F9F8F6"/>
<path d="M52.7377 11.1657L54.3624 13.6514L43.6089 20.5973L41.9843 18.1002L52.7377 11.1657Z" fill="#EC0024"/>
<path d="M33.0428 21.9795L35.3571 25.6034L26.8363 30.97L24.522 27.3343L33.0428 21.9795Z" fill="#F9F8F6"/>
<path d="M34.492 21.7705L36.0932 24.2794L25.27 31.0975L23.6684 28.5885L34.492 21.7705Z" fill="#EC0024"/>
<path d="M41.2478 26.9164H36.9232V36.9397H41.2478V26.9164Z" fill="#F9F8F6"/>
<path d="M40.5814 25.4877H37.6012V38.2178H40.5814V25.4877Z" fill="#EC0024"/>
<path d="M45.3742 22.0956C45.4091 21.9563 45.3976 21.8287 45.4562 21.4222L54.2695 20.284C54.3044 20.6905 54.281 20.8413 54.2695 21.0271L45.3742 22.0956Z" fill="#F9F8F6"/>
<path d="M58.4187 14.7203H69.9787C69.6161 16.0789 69.2653 17.4611 67.6054 18.077C64.9522 19.0647 59.4472 20.0168 59.4472 20.0168C59.3418 18.5182 59.0029 16.4852 58.4187 14.7203Z" fill="#F9F8F6"/>
<path d="M50.3652 4.25473L80.5677 4.2894L79.5042 15.254L58.8741 16.3229C57.7636 11.4211 54.0114 6.74045 50.3652 4.25473Z" fill="#F9F8F6"/>
<path d="M51.4401 5.0328L90 5.06747L88.5272 14L58.6049 15.4637C57.4242 11.0263 54.7246 7.78573 51.4401 5.0328Z" fill="#EC0024"/>
<path d="M58.4187 14.7203H69.0664C68.716 15.9278 68.4703 17.0314 66.9042 17.5772C64.4147 18.46 59.4005 19.157 59.4005 19.157C59.19 17.7054 58.886 16.23 58.4187 14.7203Z" fill="#EC0024"/>
<path d="M24.8256 14.2411L27.1982 10.6519L35.6373 16.1342L33.2644 19.7349L24.8256 14.2411Z" fill="#F9F8F6"/>
<path d="M24.0421 13.0097L25.6786 10.524L36.3968 17.5046L34.7603 19.9906L24.0421 13.0097Z" fill="#EC0024"/>
<path d="M42.8372 25.6706L45.2098 22.0696L53.6486 27.5637L51.276 31.1647L42.8372 25.6706Z" fill="#F9F8F6"/>
<path d="M42.0538 24.4392L43.6903 21.9538L54.4088 28.9344L52.7723 31.4087L42.0538 24.4392Z" fill="#EC0024"/>
<path d="M8.49733 10.7079V5.18353C8.39873 5.19637 8.30113 5.21442 8.20466 5.23749V9.90564C8.3326 10.1573 8.43159 10.4262 8.49733 10.7079Z" fill="#EC0024"/>
<path d="M8.49733 17.313V12.3436C8.43159 12.6253 8.3326 12.8942 8.20466 13.1459V17.261C8.30114 17.2834 8.39875 17.3008 8.49733 17.313Z" fill="#EC0024"/>
<path d="M8.87122 5.16072H8.80107C8.69887 5.16281 8.59758 5.17048 8.49733 5.18353V10.7079C8.55862 10.9705 8.591 11.2443 8.591 11.5257C8.591 11.8072 8.55862 12.081 8.49733 12.3436V17.313C8.59038 17.3245 8.68431 17.3313 8.77901 17.3332H8.89461H18.8871C19.8222 12.4316 22.5172 8.15028 26.2929 5.16072H8.87122Z" fill="#EC0024"/>
<path fill-rule="evenodd" clip-rule="evenodd" d="M8.63749 17.9955C8.6099 17.9959 8.58237 17.9959 8.55489 17.9955H8.20466V17.9688C6.896 17.7871 5.74811 16.7036 5.02683 15.1147C5.01105 15.1149 4.99524 15.115 4.97942 15.115C2.98063 15.115 1.35597 13.512 1.35597 11.5257C1.35597 9.60703 2.87196 8.04631 4.77675 7.94233C5.46011 6.02585 6.72249 4.67705 8.20466 4.47714V4.45196H8.53243H8.61444H28.1214C27.792 4.68626 27.4729 4.92257 27.1638 5.16072H27.2337C22.0676 8.99364 19.9987 13.2913 19.1572 17.3332H19.0617C19.0186 17.5546 18.9802 17.7754 18.9462 17.9955H8.63749ZM8.20466 17.261C7.17864 17.0222 6.27847 16.2113 5.65538 15.0526C5.50923 14.7808 5.37832 14.4899 5.26461 14.1827C4.95069 13.3347 4.76782 12.3629 4.75706 11.3282C4.75086 10.4384 4.87362 9.59016 5.09944 8.82313C5.18784 8.52283 5.29205 8.23498 5.41049 7.96196C6.63645 8.10601 7.67169 8.8571 8.20466 9.90564V13.1459C8.3326 12.8942 8.43159 12.6253 8.49733 12.3436C8.55862 12.081 8.591 11.8072 8.591 11.5257C8.591 11.2443 8.55862 10.9705 8.49733 10.7079C8.43159 10.4262 8.3326 10.1573 8.20466 9.90564V5.23749C8.30113 5.21442 8.39873 5.19637 8.49733 5.18353C8.59758 5.17048 8.69887 5.16281 8.80107 5.16072H8.87122H26.2929C22.5172 8.15028 19.8222 12.4316 18.8871 17.3332H8.89461H8.77901C8.68431 17.3313 8.59038 17.3245 8.49733 17.313C8.39875 17.3008 8.30114 17.2834 8.20466 17.261Z" fill="#EC0024"/>
<path d="M8.20466 13.1459V9.90564C7.67169 8.8571 6.63645 8.10601 5.41049 7.96196C5.29205 8.23498 5.18784 8.52283 5.09944 8.82313C6.22533 9.09047 7.07143 10.1943 7.07143 11.5257C7.07143 12.7912 6.30707 13.8511 5.26461 14.1827C5.37832 14.4899 5.50923 14.7808 5.65538 15.0526C6.77354 14.8433 7.70757 14.1239 8.20466 13.1459Z" fill="#EC0024"/>
<path d="M7.07143 11.5257C7.07143 10.1943 6.22533 9.09047 5.09944 8.82313C4.87362 9.59016 4.75086 10.4384 4.75706 11.3282C4.76782 12.3629 4.95069 13.3347 5.26461 14.1827C6.30707 13.8511 7.07143 12.7912 7.07143 11.5257Z" fill="#EC0024"/>
<path d="M8.20466 17.261V13.1459C7.70757 14.1239 6.77354 14.8433 5.65538 15.0526C6.27847 16.2113 7.17864 17.0222 8.20466 17.261Z" fill="#EC0024"/>
</svg>
