<svg width="90" height="38" viewBox="0 0 90 38" fill="none" xmlns="http://www.w3.org/2000/svg">
<g clip-path="url(#clip0_1972_1059)">
<path d="M12.6948 0.416504C12.6948 0.416504 7.56427 9.06167 2.63111 18.7713C-5.22906 32.0294 7.18606 31.1423 7.18606 31.1423H66.7129C81.9399 31.1423 76.2503 37.9165 76.2503 37.9165C76.2503 37.9165 88.9943 34.7713 89.9809 20.2552C89.5698 10.4165 76.7436 8.8036 68.8506 7.75521C64.9863 3.07779 57.011 3.40037 57.011 3.40037C57.011 3.40037 23.7121 3.31973 19.2723 3.31973C14.8325 3.31973 12.6948 0.416504 12.6948 0.416504Z" fill="#F9F8F6"/>
<path d="M4.39034 18.481C-3.58494 30.8197 7.67911 29.7713 7.67911 29.7713H34.4826C32.9205 26.8681 34.0715 27.5132 35.8804 23.239C35.8804 23.239 31.8516 18.481 27.0007 18.481H4.39034Z" fill="#69BE28"/>
<path d="M12.9423 2.67456L5.70703 16.0617H25.7686C34.6482 16.0617 34.0727 8.54553 47.2278 8.54553C54.3644 9.12617 60.4651 14.7713 65.8916 13.2391C60.3829 16.7068 54.9564 10.0133 46.0767 10.0133C39.9103 10.0133 33.0039 17.0294 33.0039 17.0294L39.3347 22.11C32.2639 30.6584 39.3347 29.9326 39.3347 29.9326H65.0694C85.246 29.9326 77.4845 36.9488 77.4845 36.9488C77.4845 36.9488 86.6931 32.0294 88.0908 20.7391C88.0908 10.4971 68.3582 9.36811 68.3582 9.36811C68.3582 9.36811 65.2338 4.69069 54.8742 4.69069H18.3688C13.5179 4.69069 12.9423 2.67456 12.9423 2.67456Z" fill="#69BE28"/>
<path d="M40.3203 28.3196C40.3203 28.3196 43.7735 21.5454 49.2 21.5454H59.1485C66.3838 21.5454 63.7528 13.497 71.0703 12.0293C65.5288 16.4809 91.1319 11.5454 80.7722 29.2067C80.7722 29.2067 69.3437 22.9164 53.9687 22.9164C45.7468 22.9164 43.2802 28.3196 43.2802 28.3196H40.3203Z" fill="#F9F8F6"/>
<path d="M46.4864 28.3198C46.4864 28.3198 47.8841 24.2875 55.4483 24.2875C70.4944 25.2553 79.7852 30.4166 79.7852 30.4166C79.7852 30.4166 70.5767 26.3036 55.4483 25.6585C50.104 25.6585 48.7885 28.3198 48.7885 28.3198H46.4864ZM40.4844 15.9004C44.7269 20.0617 47.8841 19.7714 47.8841 19.7714H57.1749C62.0258 19.7714 63.3414 16.3036 63.3414 16.3036H60.7103C60.7103 16.3036 59.0659 18.6424 55.8594 18.6424H52.6528C52.6528 18.6424 47.1441 18.6424 47.1441 16.1424C47.5717 14.0617 48.7063 12.594 48.7063 12.594C48.7063 12.594 45.1709 12.0295 40.4844 15.9004Z" fill="#F9F8F6"/>
<path d="M50.9303 13.239C50.9303 13.239 47.6086 17.0293 54.0217 17.0293H55.7977C56.7185 17.0293 57.5243 15.9003 57.5243 15.9003L56.735 15.1261C56.735 15.1261 55.9457 16.4164 55.4194 16.4164H54.5644C51.9005 16.4164 52.7555 13.868 52.7555 13.868L50.9303 13.239Z" fill="#F9F8F6"/>
</g>
<defs>
<clipPath id="clip0_1972_1059">
<rect width="90" height="37.5" fill="white" transform="translate(0 0.416504)"/>
</clipPath>
</defs>
</svg>
