<svg width="24" height="24" viewBox="0 0 24 24" fill="none" xmlns="http://www.w3.org/2000/svg">
<path fill-rule="evenodd" clip-rule="evenodd" d="M21.6004 11.9999C21.6004 14.546 20.589 16.9878 18.7886 18.7881C16.9883 20.5885 14.5465 21.5999 12.0004 21.5999C9.45431 21.5999 7.01252 20.5885 5.21217 18.7881C3.41182 16.9878 2.40039 14.546 2.40039 11.9999C2.40039 9.45382 3.41182 7.01203 5.21217 5.21168C7.01252 3.41133 9.45431 2.3999 12.0004 2.3999C14.5465 2.3999 16.9883 3.41133 18.7886 5.21168C20.589 7.01203 21.6004 9.45382 21.6004 11.9999ZM13.2004 7.1999C13.2004 7.51816 13.074 7.82339 12.8489 8.04843C12.6239 8.27347 12.3187 8.3999 12.0004 8.3999C11.6821 8.3999 11.3769 8.27347 11.1519 8.04843C10.9268 7.82339 10.8004 7.51816 10.8004 7.1999C10.8004 6.88164 10.9268 6.57642 11.1519 6.35137C11.3769 6.12633 11.6821 5.9999 12.0004 5.9999C12.3187 5.9999 12.6239 6.12633 12.8489 6.35137C13.074 6.57642 13.2004 6.88164 13.2004 7.1999ZM10.8004 10.7999C10.5617 10.7999 10.3328 10.8947 10.164 11.0635C9.99521 11.2323 9.90039 11.4612 9.90039 11.6999C9.90039 11.9386 9.99521 12.1675 10.164 12.3363C10.3328 12.5051 10.5617 12.5999 10.8004 12.5999H11.104C11.1489 12.5999 11.1932 12.61 11.2337 12.6294C11.2741 12.6489 11.3097 12.6771 11.3378 12.7121C11.3659 12.7471 11.3858 12.788 11.396 12.8317C11.4062 12.8754 11.4065 12.9209 11.3968 12.9647L10.846 15.4439C10.7777 15.751 10.7792 16.0695 10.8505 16.3759C10.9218 16.6823 11.0611 16.9687 11.2579 17.2141C11.4548 17.4595 11.7043 17.6575 11.988 17.7935C12.2716 17.9295 12.5822 18 12.8968 17.9999H13.2004C13.4391 17.9999 13.668 17.9051 13.8368 17.7363C14.0056 17.5675 14.1004 17.3386 14.1004 17.0999C14.1004 16.8612 14.0056 16.6323 13.8368 16.4635C13.668 16.2947 13.4391 16.1999 13.2004 16.1999H12.8968C12.8519 16.1999 12.8076 16.1898 12.7671 16.1704C12.7266 16.151 12.691 16.1227 12.6629 16.0877C12.6349 16.0527 12.615 16.0118 12.6048 15.9681C12.5946 15.9244 12.5943 15.8789 12.604 15.8351L13.1548 13.3559C13.2231 13.0488 13.2215 12.7303 13.1502 12.4239C13.0789 12.1175 12.9397 11.8311 12.7428 11.5857C12.546 11.3403 12.2965 11.1423 12.0128 11.0063C11.7292 10.8703 11.4186 10.7998 11.104 10.7999H10.8004Z" fill="#D8CFB6"/>
</svg>
