<svg width="90" height="43" viewBox="0 0 90 43" fill="none" xmlns="http://www.w3.org/2000/svg">
<path fill-rule="evenodd" clip-rule="evenodd" d="M11.4411 41.8341H10.1045L0 31.7296L13.2502 3.77425L19.3842 1.33664L20.5636 2.20142L21.4289 0.157281L22.6082 0L25.8323 2.04414L26.5398 3.5386L30.7859 2.35871L31.8869 5.11143L32.1231 5.26871L32.4376 2.20142L37.2345 1.41501L38.2566 3.22349L38.65 1.49338L43.4469 1.0999L44.2333 4.32394L44.7052 3.61589L46.986 1.09936L51.9391 1.41393L52.7266 1.72849L53.1195 1.49284L58.1521 2.12197L58.5461 4.48122L59.4109 2.43654L64.2077 3.22295L65.3871 1.57175L66.9599 0.392396H68.0609L77.1044 3.53752L81.0354 11.7157L79.9344 13.996L83.3157 16.1191L90 31.9252L79.9744 42.3329C79.9744 42.3329 74.5084 37.9015 63.1062 34.9136C63.1062 34.9136 43.5809 30.3356 28.6639 34.2845C20.643 36.4075 16.0823 38.6095 16.0823 38.6095L14.4311 38.1376L13.9593 39.9461L11.4411 41.8341Z" fill="#F58426"/>
<path fill-rule="evenodd" clip-rule="evenodd" d="M18.9926 15.2553L22.1383 12.2674L23.1944 13.4468L22.2956 17.1427L21.3519 19.6251L18.9926 15.2553ZM11.2863 22.0968L14.1958 19.7376L12.7018 24.3771L11.2863 22.0968ZM3.89453 34.4422L7.19748 32.1618L13.2521 39.5536L10.7361 41.5199L3.89453 34.4422ZM42.143 23.1162C40.4523 23.2129 38.6763 23.3707 36.8067 23.5988L38.1477 32.3434C39.5875 32.2229 40.9869 32.1408 42.3057 32.0921L42.143 23.1162ZM54.9418 23.5102C52.6433 23.2287 50.3322 23.0617 48.017 23.0097L47.1831 32.0721C49.2742 32.1354 51.5178 32.2916 53.7841 32.5418L54.9418 23.5102ZM25.8828 25.5446C23.6792 26.0527 21.7367 26.5742 20.0455 27.0796L23.8425 34.9805L24.1824 34.8697C25.658 34.3903 27.2686 33.9806 28.9447 33.6336L25.8828 25.5446ZM61.7601 24.6274C59.9701 24.2667 58.1703 23.9567 56.3628 23.6977L54.7975 32.6596C56.2406 32.8364 57.6816 33.0531 59.0906 33.3055L61.7601 24.6274ZM34.2761 23.9437C33.2703 24.0945 32.2412 24.2631 31.1813 24.4561C30.3376 24.6096 29.5225 24.7668 28.735 24.9268L31.5861 33.145C33.1481 32.8888 34.7345 32.6813 36.2965 32.518L34.2761 23.9437ZM73.284 28.059L68.5692 35.8523C75.8151 38.5072 79.9353 41.6772 79.9353 41.6772L86.699 34.5211C83.6533 32.4034 78.5294 30.0128 73.284 28.059ZM70.4312 27.0439C68.4087 26.3575 66.4208 25.7559 64.582 25.2803L61.4396 33.7703C63.172 34.1425 64.8834 34.6062 66.5667 35.1594L70.4312 27.0439ZM46.849 23.1832L45.0216 21.2255L44.2898 32.044C44.9418 32.0364 45.5939 32.038 46.2458 32.0489L46.849 23.1832ZM17.7046 27.8195C13.2288 29.3151 11.129 30.5106 11.129 30.5106L16.4766 37.824C16.4766 37.824 17.5836 37.1127 22.1783 35.5378L17.7046 27.8195ZM50.2114 6.52686H53.4355L52.2561 17.5361H50.526L50.2114 6.52686ZM61.2991 17.1427L61.7709 16.8281L62.6352 17.6145L62.0061 20.8385L61.2991 17.1427ZM68.8481 13.2111L78.2846 19.7376L77.3403 21.7822L76.948 20.0521L70.3415 17.5361L69.0054 18.8728L68.4552 15.6487L67.9834 15.1769L68.8481 13.2111ZM74.9811 9.75089L80.5644 11.4021L79.5428 13.6041L74.746 10.6946L74.9811 9.75089Z" fill="#F58426"/>
<path fill-rule="evenodd" clip-rule="evenodd" d="M13.6717 4.14796L18.6869 2.14165L14.424 12.3402L18.7712 9.16372L21.7801 0.887714L22.3655 0.720703L25.0404 2.22543L22.4487 11.0025L18.1021 15.2659L19.8571 18.6931L17.6843 27.0524L11.5821 29.5597L15.0926 19.3617L14.5078 18.6094L10.6622 21.7026L6.81716 31.5666L3.30613 34.0739L1.13281 31.6498L13.6717 4.14796ZM26.4613 4.23174L30.4734 3.06157L31.9781 8.74539L33.1488 2.81078L36.8269 2.22543L34.319 23.1235L29.387 24.0429L30.4734 18.1916L28.7184 11.17L25.6252 24.7953L20.2754 26.3838L26.4613 4.23174ZM39.084 2.05842L43.0128 1.80763L42.0929 22.2042L37.0777 22.622L39.084 2.05842ZM45.1861 4.23174L47.1087 1.72386L52.7087 2.05842L52.96 5.73647H49.282L49.8668 18.4424L54.6556 18.5018L54.7988 22.7057L47.36 22.4544L45.1861 20.1979V4.23174ZM54.1307 2.39244L57.6407 2.72701L59.3962 11.7548L61.7365 8.99617L60.2323 3.22858L64.245 3.98095L66.0005 9.91609L63.9947 12.424L67.0869 14.8481L70.6822 26.4432L65.1643 24.7115L63.4088 17.3554L61.4863 15.6837L60.2323 17.2722L61.5701 23.8521L56.6381 22.9565L54.1307 2.39244ZM65.8335 2.05842L67.1712 0.887714L68.0062 0.804479L76.8676 3.89771L79.7938 10.3339L74.7775 8.91294L73.6079 5.82024L71.0995 4.64954L70.5147 5.15111L71.6854 9.33074L82.719 16.5198L89.2395 31.7336L87.0661 33.9069C87.0661 33.9069 82.8022 31.3152 80.2954 30.1451C77.787 28.9744 73.5247 27.3026 73.5247 27.3026L70.766 18.4418L76.1996 20.4481L77.1189 23.624L81.298 25.8811L79.2079 19.4444L68.9262 12.3391L65.8335 2.05842Z" fill="#F9F8F6"/>
</svg>
