<svg width="18" height="18" viewBox="0 0 18 18" fill="none" xmlns="http://www.w3.org/2000/svg">
<path d="M1.125 14.0775C0.917893 14.0775 0.75 13.9096 0.75 13.7025C0.75 13.4954 0.917893 13.3275 1.125 13.3275H3.17325C3.33272 13.3275 3.462 13.1982 3.462 13.0387C3.462 12.8793 3.33116 12.7543 3.17526 12.7207C2.95378 12.6731 2.76111 12.5674 2.59725 12.4035C2.36625 12.1725 2.2505 11.8843 2.25 11.5388V4.96125C2.25 4.61625 2.36575 4.32825 2.59725 4.09725C2.82875 3.86625 3.11675 3.7505 3.46125 3.75H14.5388C14.8838 3.75 15.1718 3.86575 15.4028 4.09725C15.6338 4.32875 15.7495 4.61675 15.75 4.96125V11.5388C15.75 11.8837 15.6343 12.172 15.4028 12.4035C15.2388 12.5675 15.0464 12.6733 14.8257 12.7208C14.6698 12.7545 14.5388 12.8794 14.5388 13.039C14.5388 13.1983 14.6679 13.3275 14.8273 13.3275H16.875C17.0821 13.3275 17.25 13.4954 17.25 13.7025C17.25 13.9096 17.0821 14.0775 16.875 14.0775H1.125ZM3.462 12H14.5388C14.6733 12 14.7838 11.9567 14.8703 11.8702C14.9568 11.7837 15 11.6733 15 11.5388V4.96125C15 4.82675 14.9568 4.71625 14.8703 4.62975C14.7838 4.54325 14.6733 4.5 14.5388 4.5H3.46125C3.32675 4.5 3.21625 4.54325 3.12975 4.62975C3.04325 4.71625 3 4.82675 3 4.96125V11.5388C3 11.6733 3.04325 11.7837 3.12975 11.8702C3.21625 11.9567 3.327 12 3.462 12Z" fill="#C3C1B8"/>
</svg>
