<svg width="191" height="70" viewBox="0 0 191 70" fill="none" xmlns="http://www.w3.org/2000/svg">
<path d="M109.13 0.637597C108.873 0.806698 108.574 1.27173 108.403 1.6522C107.976 2.79364 105.284 2.70908 104.985 1.56765C104.857 1.06035 104.387 0.722148 103.874 0.722148C103.019 0.722148 102.977 0.933524 102.977 4.86512C102.977 7.52846 103.147 9.1772 103.489 9.5154C103.788 9.81133 105.369 10.0227 107.549 10.0227C110.796 10.0227 111.095 9.93815 111.095 9.1772C111.095 8.41625 110.796 8.33169 108.061 8.33169H105.07L105.198 6.30248L105.327 4.31554H108.318H111.309L111.437 2.92046C111.651 0.891249 110.454 -0.250183 109.13 0.637597ZM110.668 1.77903C110.668 2.11723 110.283 2.41316 109.813 2.41316C108.959 2.41316 108.702 1.94813 109.258 1.44083C109.77 0.891249 110.668 1.1449 110.668 1.77903Z" fill="black"/>
<path d="M84.1797 2.58273C84.1797 4.06236 84.3506 4.48511 85.0343 4.65421C85.7179 4.82331 85.8888 4.65421 85.8888 3.85098C85.8888 2.92093 86.0598 2.83638 88.2389 2.83638C90.589 2.83638 90.589 2.83638 90.3327 3.97781C90.1617 4.65421 89.8626 5.49972 89.649 5.92247C89.1362 6.93708 86.7862 8.33216 85.6325 8.33216C84.607 8.33216 84.0942 9.17767 84.5642 9.93862C85.0343 10.6573 89.0935 9.51587 90.4181 8.28989C91.5291 7.27528 92.7255 3.93553 92.7255 1.90632V0.722613H88.4526H84.1797V2.58273Z" fill="black"/>
<path d="M93.4509 1.56758C93.6645 2.28626 94.0491 2.41309 95.9719 2.41309C97.9801 2.41309 98.2792 2.32854 98.2792 1.56758C98.2792 0.806626 97.9801 0.722075 95.7582 0.722075C93.4509 0.722075 93.2372 0.806626 93.4509 1.56758Z" fill="black"/>
<path d="M121.78 2.20212C121.78 3.17446 121.909 3.25901 123.96 3.25901C126.011 3.25901 126.096 3.30128 125.84 4.18906C125.412 5.49959 123.66 7.31743 122.165 7.90928C121.31 8.28976 120.926 8.75479 120.926 9.38892C120.926 10.2767 121.054 10.319 122.507 10.023C123.361 9.81167 124.558 9.26209 125.199 8.83934L126.352 7.99384L127.591 9.00844C128.275 9.55802 128.959 9.98077 129.172 10.023C129.813 10.023 129.429 8.50114 128.446 7.27516C127.634 6.26055 127.506 5.79552 127.805 4.73864C128.019 4.06224 128.19 2.96308 128.19 2.32895V1.14524H124.985C121.866 1.14524 121.78 1.18752 121.78 2.20212Z" fill="black"/>
<path d="M99.9836 3.04759C99.9836 5.62638 97.2916 8.332 94.7706 8.332C93.8733 8.332 93.5742 8.54337 93.5742 9.1775C93.5742 10.3612 95.7961 10.3189 98.2744 9.05067C100.368 8.03607 102.12 5.33045 102.12 3.17441C102.12 2.20208 101.949 1.99071 101.052 1.99071C100.197 1.99071 99.9836 2.20208 99.9836 3.04759Z" fill="black"/>
<path d="M111.953 4.73828C111.953 5.79517 111.953 5.79517 116.012 5.79517C120.072 5.79517 120.072 5.79517 120.072 4.73828C120.072 3.6814 120.072 3.6814 116.012 3.6814C111.953 3.6814 111.953 3.6814 111.953 4.73828Z" fill="black"/>
<path d="M7.90647 4.52708C7.77828 4.73845 7.09462 4.94982 6.41095 4.94982C5.0009 4.94982 3.9754 5.83761 3.59084 7.31725C3.41993 7.9091 2.99264 8.33184 2.60808 8.33184C0.300714 8.33184 -0.938426 12.4325 0.85619 14.039C1.53985 14.6309 2.09533 14.7154 3.76176 14.504L5.85548 14.2504L8.03465 16.5333C9.27379 17.8015 10.2566 18.9852 10.2566 19.112C10.2566 19.2389 9.48744 20.634 8.5474 22.1981C6.79551 25.0306 5.12909 29.554 5.12909 31.4141C5.12909 31.9637 4.74452 32.5979 4.27451 32.8515C3.80449 33.1052 3.41993 33.4856 3.41993 33.697C3.41993 33.9507 3.80449 34.1198 4.27451 34.1198C5.04363 34.1198 5.12909 34.4157 5.12909 36.4026C5.12909 39.4042 6.83824 44.7309 8.71832 47.521L10.1711 49.6771L7.73555 52.0445C5.34273 54.3696 5.21454 54.4542 3.50538 54.1582C1.06983 53.7778 0.00161098 54.7078 0.00161098 57.1598C0.00161098 59.1044 0.85619 60.2036 2.52262 60.4573C3.03537 60.5418 3.84722 61.2182 4.27451 61.9369C4.74452 62.6978 5.47092 63.2897 5.85548 63.2897C6.49641 63.332 6.45368 63.4588 5.5991 64.1352L4.61634 64.9807H5.94093C7.13735 64.9807 7.26553 65.1075 7.26553 66.249C7.26553 67.179 7.43645 67.4327 7.90647 67.2636C8.37648 67.0945 8.5474 67.2636 8.5474 67.94C8.5474 68.7432 8.63286 68.7855 9.18834 68.3627C9.70108 67.94 9.82927 67.94 9.82927 68.3627C9.82927 68.6587 10.1284 68.7855 10.4702 68.6164C10.8548 68.4896 11.2393 68.6587 11.4102 69.0814C11.6239 69.6733 11.7521 69.631 12.0512 68.8278C12.2648 68.2782 12.5639 68.0245 12.863 68.1936C13.2476 68.405 13.2903 67.94 13.1621 66.5026C12.9485 64.6425 12.9912 64.4734 14.444 63.2897L16.025 62.0214H30.2964H44.6106L48.1999 63.5433C54.1392 66.0799 58.113 65.953 60.4631 63.2474L61.4886 62.0214H71.6153H81.7421L83.7076 63.2051C88.2796 65.953 91.8688 66.5872 93.4498 64.8539C93.9198 64.3466 94.5608 63.5011 94.8171 62.9938C95.3299 62.0214 95.4154 62.0214 104.26 62.0214H113.191L115.754 63.6702C120.668 66.7985 124.044 66.7563 126.137 63.5433L127.12 62.0214H136.606C143.015 62.0214 146.177 62.1905 146.391 62.4865C146.946 63.4165 152.587 66.714 155.321 67.7286C161.389 70.0115 168.14 68.6164 174.421 63.8815L176.814 62.0214H182.967C189.504 62.0214 191 61.641 191 59.9077C191 58.3435 189.419 57.7939 184.719 57.7939H180.318L181.044 56.3143C181.771 54.7501 181.941 54.6655 183.052 55.0883C183.565 55.2997 183.608 55.511 183.266 56.1875C183.01 56.6525 182.882 57.0752 182.967 57.1175C183.052 57.2021 184.505 56.8639 186.214 56.3988L189.334 55.5533L187.069 53.2705C184.633 50.8185 184.163 50.6071 184.163 51.8754C184.163 52.3404 183.992 52.7209 183.736 52.7209C183.138 52.7209 183.181 52.6363 184.42 49.0852C185.531 46.0414 186.3 45.1113 186.3 46.8023C186.3 47.2674 186.513 47.6478 186.727 47.6478C186.983 47.6478 187.154 47.4787 187.154 47.2251C187.154 47.0137 187.454 46.9292 187.795 47.056C188.18 47.2251 188.436 47.0983 188.436 46.7601C188.436 46.3373 188.564 46.3373 188.949 46.7178C189.718 47.4787 190.145 47.3519 190.145 46.3373C190.145 45.7877 190.316 45.5764 190.658 45.7877C191 45.9991 191.043 45.8723 190.829 45.2804C190.615 44.8577 190.274 43.8853 190.017 43.2089C189.804 42.4903 188.864 40.8838 187.966 39.6155L186.385 37.2481L187.24 36.1067C189.718 32.7669 187.838 28.2012 183.992 28.2012C183.352 28.2012 182.454 28.7931 181.642 29.6809C180.019 31.4987 179.549 31.541 179.378 29.7654C179.292 28.624 179.079 28.4126 178.181 28.4126C177.284 28.4126 177.07 28.624 176.985 29.7654C176.857 31.1605 176.857 31.1605 174.464 31.1605H172.071L172.37 29.4272C172.541 28.4549 173.139 26.637 173.78 25.3265C174.977 22.79 179.848 17.421 182.753 15.4341C184.377 14.3349 184.591 14.2927 184.591 15.0113C184.591 16.491 185.146 16.3642 186.684 14.5886C189.59 11.2488 189.633 11.5025 185.958 10.5302C184.163 10.0229 182.625 9.72693 182.54 9.81148C182.411 9.9383 182.582 10.2765 182.882 10.657C183.522 11.4179 183.651 11.3334 180.873 12.4748C171.729 16.1105 166.559 23.7623 166.602 33.4011C166.602 41.3911 169.507 47.2674 175.404 51.2412C176.686 52.129 177.754 53.0591 177.754 53.3127C177.754 53.5664 177.07 54.6655 176.259 55.807L174.763 57.7939H160.705C147.374 57.7939 146.605 57.7516 145.665 56.9484L144.639 56.1452L146.049 56.1029H147.416V51.6217V47.1405L145.921 48.4511C143.443 50.5648 139.768 50.0998 137.632 47.3942C136.82 46.3796 136.734 45.7032 136.734 40.2074C136.734 34.3734 136.777 34.1198 137.589 34.1198C138.999 34.1198 140.793 35.2189 142.46 37.1636L143.998 38.9391V33.3165V27.6939L141.819 29.6386C140.623 30.6955 139.426 31.5832 139.127 31.5832C138.871 31.5832 138.23 31.7101 137.717 31.8369C136.734 32.0905 136.734 32.0905 136.734 26.6793C136.734 22.029 136.862 21.0144 137.632 19.408C139.383 15.8991 142.674 15.5609 145.964 18.5625L147.844 20.2957V15.9837V11.7139H137.76H127.718L128.872 12.6862C129.684 13.3626 130.111 14.2927 130.368 15.7723C130.923 19.2811 131.308 37.7132 130.966 45.2382C130.709 51.4526 130.539 52.4672 129.727 53.6509C128.53 55.3842 128.231 55.4265 126.565 54.0737L125.155 52.9323L125.454 48.7893C125.753 44.8577 125.796 44.6886 126.736 44.6886C127.932 44.6886 127.975 44.3927 127.163 41.3911C126.607 39.4042 126.607 39.1928 127.248 39.1928C128.616 39.1928 129.171 38.5164 128.658 37.5863C128.317 36.9522 128.317 36.6986 128.701 36.5717C129.043 36.4449 129.043 36.1912 128.658 35.5148C128.274 34.7539 128.359 34.2466 129.128 32.767C129.898 31.3296 130.111 30.2727 130.111 27.7785C130.111 23.9314 129.299 22.5363 126.18 20.9722C125.069 20.4226 124.044 19.9153 123.958 19.873C123.873 19.8307 124.215 19.4502 124.727 19.0275C125.24 18.6047 125.881 17.8015 126.18 17.2097C126.479 16.6178 127.291 16.0259 128.103 15.7723C129.898 15.265 129.855 14.8422 127.889 14.4618C126.821 14.2927 125.796 13.6585 124.941 12.7285C123.061 10.6993 121.01 10.6993 119.087 12.7285C118.233 13.6163 116.993 14.3772 115.797 14.7154L113.874 15.2227L115.883 15.8568C117.335 16.3219 117.934 16.7446 118.104 17.4633C118.275 18.0129 118.874 18.7738 119.472 19.1543L120.54 19.873L118.916 20.5917C117.421 21.2681 114.9 23.6355 113.874 25.4111C113.575 25.9184 113.404 24.7769 113.319 21.3949C113.191 16.4487 112.806 15.1804 111.011 13.5317C109.089 11.7139 107.209 11.2911 101.483 11.2911C98.5346 11.2911 96.1417 11.3757 96.1417 11.5025C96.1417 11.6293 96.4408 12.1789 96.7827 12.7285C97.3809 13.6163 97.4236 16.2796 97.3382 33.4011L97.21 53.0591L96.2272 54.3696L95.2444 55.6801H100.244C104.816 55.6801 105.158 55.6379 104.645 55.0037C104.218 54.4964 103.961 52.5941 103.833 49.0429L103.619 43.8431H105.115C109.089 43.8431 112.379 41.6448 113.148 38.5164C113.361 37.6286 113.49 35.388 113.447 33.5702C113.404 31.7946 113.404 30.315 113.447 30.315C113.49 30.315 114.131 31.2873 114.857 32.471C116.139 34.5002 116.182 34.6271 115.541 35.6417C115.071 36.3181 115.028 36.6563 115.37 36.6563C115.669 36.6563 115.754 36.9945 115.583 37.5441C115.37 38.1782 115.498 38.4741 116.224 38.6432C116.993 38.8546 117.079 39.066 116.78 40.2074C116.609 40.9261 116.481 42.1943 116.438 42.9976C116.438 44.1813 116.609 44.5195 117.335 44.604C118.147 44.7309 118.275 45.1113 118.532 48.5779C118.66 50.6494 118.703 52.5518 118.574 52.7632C118.446 52.9745 117.549 53.355 116.609 53.6087C114.472 54.2851 113.789 55.0037 114.558 55.9338C115.242 56.7793 117.421 56.4411 119.856 55.0883L121.565 54.1582L123.36 55.2574C125.155 56.3988 125.197 56.3988 131.906 56.1875L138.657 55.9761L137.845 56.9061C137.033 57.7516 136.692 57.7939 126.565 57.7939H116.096L113.917 56.2297C112.379 55.1306 111.182 54.6233 109.772 54.4964C107.892 54.3273 107.679 54.4119 106.14 56.0606L104.474 57.7939H94.2189C84.6904 57.7939 83.8785 57.7094 82.6821 56.9484L81.4003 56.1029H86.015H90.587V51.8331V47.5633L89.2196 48.5779C88.4505 49.1698 87.3823 49.7616 86.8696 49.9307C85.2886 50.438 82.6394 49.4657 81.2293 47.8592L79.9047 46.3373V40.4611C79.9047 37.2481 80.0757 34.5002 80.2466 34.3734C81.2293 33.7816 83.7931 35.0921 85.4168 36.9945L87.1687 38.9814V33.2743L87.1259 27.5671L86.2714 28.7508C85.2031 30.1459 82.1267 32.006 80.8448 32.006C79.9475 32.006 79.9047 31.8369 79.9047 26.7639C79.9047 20.9722 80.3748 19.1543 82.2976 17.6747C83.0667 17.0828 84.0495 16.7869 85.3313 16.7869C86.9123 16.7869 87.4678 17.0406 89.0915 18.5202L91.0143 20.2957V15.9837V11.7139H77.2555H63.4541L63.5823 15.1382C63.7532 18.9429 63.3259 20.8453 62.8132 18.6893C62.6422 17.9706 62.4713 16.1528 62.4286 14.5463L62.3859 11.7139H60.8904C59.6085 11.7139 59.3948 11.587 59.3948 10.6993C59.3948 9.64238 58.6257 8.83915 56.8738 8.03592C55.9765 7.65544 58.3266 7.52861 68.197 7.52861C81.6139 7.48634 81.8275 7.44407 81.5284 5.28803L81.4003 4.3157L44.7816 4.18887C20.597 4.14659 8.07738 4.23115 7.90647 4.52708ZM49.909 5.79533C49.3535 6.64083 48.8835 6.64083 29.57 6.64083C12.9912 6.64083 9.65835 6.55629 9.14561 6.04898C8.80377 5.71078 8.5474 5.33031 8.5474 5.20348C8.5474 5.07665 17.9905 4.94982 29.4846 4.94982C50.3363 4.94982 50.4218 4.94982 49.909 5.79533ZM80.7593 5.79533C80.7593 6.64083 80.4602 6.64083 68.3679 6.64083C56.4466 6.64083 55.9765 6.59856 55.5492 5.79533C55.0792 4.94982 55.2074 4.94982 67.9406 4.94982C80.4602 4.94982 80.7593 4.94982 80.7593 5.79533ZM54.6092 5.87988C54.8229 6.17581 55.122 6.89449 55.2074 7.44407C55.2929 8.16274 55.7629 8.58549 56.8311 8.9237C57.9848 9.30418 58.3694 9.64238 58.4548 10.5302C58.583 11.6716 58.5403 11.7139 56.6602 11.7139C54.9938 11.7139 54.6947 11.8407 54.6947 12.5594C54.6947 13.0667 54.481 13.2781 54.1392 13.1512C53.7974 13.0244 52.2591 14.2504 50.5072 16.0259L47.4735 19.112L46.0634 17.717L44.6534 16.3219L47.7726 13.3203C50.3363 10.9106 50.8491 10.192 50.6354 9.43101C49.9518 7.27497 49.9518 6.72538 50.6354 6.09125C51.4473 5.24575 53.9683 5.1612 54.6092 5.87988ZM7.86374 6.04898C9.14561 6.51401 9.48744 7.78226 8.80377 9.38873L8.16284 10.8684L11.0257 13.4049L13.8885 15.9414L12.4785 17.2942L11.1111 18.6893L8.37648 15.9837C5.68456 13.3626 5.5991 13.3203 4.23178 13.7854C2.39443 14.4195 2.26625 14.3772 1.28348 13.4049C-0.297492 11.8407 0.685274 9.17735 2.77899 9.17735C3.50538 9.17735 3.84722 8.83915 4.06086 8.03592C4.57361 5.92215 5.85548 5.28802 7.86374 6.04898ZM49.7381 8.83915C49.9945 10.1074 49.7808 10.4456 47.1316 13.0667L44.3115 15.8991L43.2006 15.1382C38.8422 12.0943 33.8429 10.6993 27.9891 10.9529C23.2462 11.1643 20.0415 12.0943 16.495 14.2927L14.4013 15.5609L11.8803 13.109C9.57289 10.7838 9.44471 10.5724 9.65835 9.05053L9.95746 7.48634H29.6982H49.4817L49.7381 8.83915ZM187.283 11.6716C187.966 11.9252 187.881 12.0943 186.727 13.1935C185.744 14.1236 185.445 14.2504 185.445 13.7008C185.445 12.6862 185.232 12.7707 182.283 14.8422C179.207 17.0406 174.763 21.5217 173.738 23.4664C173.353 24.2273 172.84 24.7346 172.669 24.6078C172.456 24.481 172.37 24.7347 172.456 25.1151C172.541 25.5379 172.456 26.1297 172.242 26.4679C171.815 27.1021 168.909 27.4825 168.567 26.933C168.183 26.3411 169.678 23.1282 170.191 23.4241C170.447 23.5509 170.49 23.4664 170.319 23.1705C169.55 21.9445 174.507 16.6601 178.48 14.504C179.591 13.8699 181.429 13.0667 182.582 12.6862C183.992 12.2212 184.548 11.8407 184.42 11.4602C184.206 10.8684 185.189 10.9529 187.283 11.6716ZM33.1165 11.9252C40.295 13.1935 46.6189 17.8015 49.7808 24.1005C50.7209 25.9606 51.1909 27.4825 51.02 27.9053C50.8918 28.2858 50.5927 28.4972 50.379 28.3703C50.1654 28.2435 50.0799 27.9898 50.1654 27.8207C50.2936 27.6516 50.1227 27.4825 49.8236 27.4825C49.4817 27.4825 49.3108 27.6939 49.3963 27.9476C49.5245 28.2858 48.7553 28.4126 47.1744 28.4126C44.9525 28.4126 44.8243 28.3703 44.9952 27.4403C45.0807 26.933 44.9952 26.3834 44.7388 26.2143C44.4824 26.0875 44.4397 26.172 44.6106 26.4257C44.7816 26.7216 44.8243 26.933 44.6961 26.933C44.5679 26.933 44.0979 26.2143 43.6279 25.3265C40.765 19.7462 31.9629 16.7446 24.1862 18.7316C20.8106 19.5771 18.546 20.8876 16.1959 23.4241C15.1704 24.5233 14.1876 25.4111 14.0167 25.3688C13.8458 25.2842 13.8458 25.5802 13.974 25.9606C14.1876 26.4679 14.1022 26.5525 13.6749 26.2988C13.333 26.0875 13.2049 26.1297 13.3758 26.3834C13.8885 27.1866 13.2049 29.4695 12.4357 29.4272C12.0084 29.4272 11.9657 29.3427 12.3075 29.1736C13.6749 28.624 12.5639 28.2435 10.0856 28.4549C8.50467 28.5817 7.2228 28.4972 7.09462 28.2435C6.71006 27.6939 7.99192 24.5656 9.53017 22.2827C13.4185 16.491 18.9733 12.8976 25.8954 11.7561C28.8864 11.2488 29.3137 11.2488 33.1165 11.9252ZM108.96 13.109C111.951 14.6731 112.592 16.3219 112.678 22.9168C112.763 26.4679 112.635 28.1167 112.379 27.5671C112.165 27.0175 111.994 26.933 111.994 27.3134C111.951 27.8207 111.823 27.8207 111.439 27.4403C111.14 27.1443 110.627 26.933 110.285 26.933C109.943 26.933 109.815 27.0598 109.943 27.2289C110.114 27.3557 109.986 27.7785 109.644 28.1589C109.302 28.5394 108.96 29.5963 108.832 30.5264C108.747 31.4564 108.661 29.2581 108.619 25.6224C108.533 19.3234 108.49 18.9852 107.508 17.9283C106.525 16.8715 103.619 15.7723 102.893 16.195C102.722 16.3219 102.508 19.3234 102.508 22.8323C102.466 26.7216 102.337 28.7508 102.124 27.9898C101.91 27.1443 101.782 26.9752 101.739 27.5671C101.697 28.2435 101.611 28.2858 101.312 27.8207C101.098 27.4825 100.329 27.2289 99.6028 27.2289H98.2782L98.2355 23.1705C98.2355 20.9299 98.0645 17.5479 97.9363 15.6032L97.6373 12.1366H102.38C106.482 12.1366 107.379 12.2634 108.96 13.109ZM146.989 15.3495V18.1397L145.707 17.0828C143.272 15.0536 140.11 15.2227 137.931 17.5479C136.563 18.9852 135.965 20.9299 135.794 24.2696C135.751 25.7493 135.538 26.933 135.324 26.933C135.153 26.933 135.068 27.1021 135.239 27.3134C135.367 27.5248 135.281 27.8207 135.025 27.9898C134.811 28.1167 134.598 28.0744 134.598 27.863C134.598 27.6516 134.128 27.5671 133.53 27.6939C132.931 27.7785 132.59 28.0321 132.675 28.2012C132.803 28.4126 132.718 28.6663 132.504 28.7931C132.29 28.9622 132.077 28.2858 132.077 27.2712C131.991 22.2404 131.137 14.1236 130.539 13.2781L129.94 12.348L138.443 12.4748L146.989 12.6017V15.3495ZM61.5313 14.8C61.5313 17.0828 62.5568 21.7754 63.1977 22.4095C63.7532 22.9591 64.5223 18.8584 64.5223 15.5186V12.5594H67.9834C71.0599 12.5594 71.4017 12.6439 71.188 13.2781C71.0599 13.7008 70.7607 17.2519 70.5471 21.1835C70.248 26.1297 69.9489 28.4549 69.5643 28.7085C69.137 28.9622 69.137 29.0467 69.5643 29.0467C69.8207 29.0467 70.0771 29.2158 70.0771 29.4695C70.0771 29.6809 69.778 29.7654 69.3934 29.5963C68.8807 29.4272 68.7952 28.9622 68.9661 27.8207C69.1798 26.5525 69.137 26.4679 68.7952 27.2712C68.3679 28.2435 68.2825 28.2858 62.8986 28.1589C59.9076 28.0744 57.2584 28.1589 56.9593 28.328C56.7029 28.4971 56.3611 28.4549 56.2329 28.2435C56.1047 28.0321 55.8483 24.4387 55.7202 20.2112L55.4211 12.5594H58.4975H61.5313V14.8ZM90.1597 15.3073V18.0129L88.6214 16.9983C86.5705 15.6032 83.494 15.5609 81.8275 16.8715C80.0757 18.2243 79.0502 20.8031 79.0502 23.8469C79.0502 25.2842 78.8792 26.5948 78.6229 26.7216C78.4092 26.8484 78.1956 27.3557 78.1956 27.863C78.1956 28.6663 78.1529 28.6663 77.341 27.7362L76.5292 26.7216L76.4864 27.6939C76.4864 28.2435 76.3155 28.5817 76.1019 28.4549C75.8882 28.2858 75.5891 28.4549 75.5037 28.7085C75.3755 29.0045 75.2473 28.5817 75.2473 27.7785C75.2046 23.9314 74.2645 13.9967 73.9227 13.6585C73.6663 13.4049 73.4954 13.0667 73.4954 12.8976C73.4954 12.7285 77.2555 12.5594 81.8275 12.5594H90.1597V15.3073ZM73.7945 17.5479C73.9654 19.3657 74.1363 27.8207 74.1363 36.4449C74.1363 51.1567 74.0509 52.1713 73.2818 53.4818C71.8717 55.7647 71.5299 55.2151 71.2308 50.3112C70.5898 40.4188 71.1453 16.491 72.0426 13.6585C72.5554 12.1366 73.4099 14.039 73.7945 17.5479ZM54.7374 18.3088C55.122 23.8046 55.2074 32.8515 54.8656 32.8515C54.011 32.8515 52.9855 31.8369 52.9855 30.9914C52.9855 29.089 51.2763 24.6078 49.6099 22.0713L47.9435 19.5348L50.8063 16.6601C52.3446 15.0959 53.7974 13.8699 54.0537 13.9545C54.2674 14.039 54.6092 15.9837 54.7374 18.3088ZM106.61 18.2665C107.679 19.2811 107.679 19.3234 107.679 27.6939C107.679 35.8531 107.636 36.1067 106.739 36.9945C106.183 37.4595 105.243 38.0091 104.602 38.1359L103.406 38.4318V27.8207V17.2097H104.474C105.072 17.2097 106.055 17.6747 106.61 18.2665ZM37.1331 20.8453C39.5686 22.0713 40.765 23.0014 41.9614 24.6078C42.816 25.7493 43.457 26.7639 43.3715 26.8484C43.286 26.933 40.295 26.6793 36.7485 26.2566C31.0656 25.6224 29.4846 25.5802 23.588 26.0452C19.9133 26.3411 16.4523 26.6793 15.9395 26.8061C14.5295 27.1443 14.7431 26.4679 16.7086 24.2273C20.0842 20.4226 24.3998 18.7738 30.2964 19.0698C33.4584 19.1966 34.313 19.4502 37.1331 20.8453ZM119.215 29.1313L119.173 31.7946L118.361 30.78C117.891 30.2304 117.506 29.4695 117.506 29.089C117.506 28.4126 118.617 26.5102 119.044 26.5102C119.13 26.5102 119.215 27.6939 119.215 29.1313ZM126.479 28.7931C126.479 29.554 126.18 30.5264 125.838 30.9914C125.283 31.7101 125.24 31.541 125.197 29.089C125.197 26.7639 125.283 26.4679 125.838 26.933C126.18 27.2289 126.479 28.0744 126.479 28.7931ZM78.922 28.0744C78.7511 28.2012 78.6229 28.0744 78.6229 27.7785C78.6229 27.4825 78.7511 27.3557 78.922 27.4825C79.0502 27.6516 79.0502 27.9053 78.922 28.0744ZM168.225 28.4972C168.055 28.624 167.926 28.4972 167.926 28.2012C167.926 27.9053 168.055 27.7785 168.225 27.9053C168.354 28.0744 168.354 28.328 168.225 28.4972ZM171.644 28.4972C171.473 28.624 171.345 28.4972 171.345 28.2012C171.345 27.9053 171.473 27.7785 171.644 27.9053C171.772 28.0744 171.772 28.328 171.644 28.4972ZM39.3122 29.7231C45.2516 30.3995 49.1826 31.245 51.5755 32.2596L53.1992 32.9361L50.6354 33.4856C49.2254 33.7816 47.5589 34.162 46.918 34.3311C45.978 34.5848 45.7643 34.458 45.6361 33.6125C45.5507 33.0629 45.0379 32.4287 44.397 32.1328C41.7478 30.8646 29.1 30.3573 20.2979 31.1605C14.7004 31.6678 13.2903 32.1751 12.9485 33.7393C12.7776 34.6271 12.5212 34.923 12.0084 34.7962C11.6239 34.6693 10.0002 34.2466 8.37648 33.8661C5.08636 33.0629 5.12908 32.9783 9.78654 31.3719C12.4357 30.4418 19.486 29.2581 24.5708 28.9199C27.5618 28.7085 33.0311 29.0045 39.3122 29.7231ZM48.1571 28.9199C47.9862 29.0467 47.7298 29.0467 47.5589 28.9199C47.4307 28.7508 47.5589 28.624 47.858 28.624C48.1571 28.624 48.2853 28.7508 48.1571 28.9199ZM7.05189 29.4695C7.18007 29.6809 7.09462 29.8922 6.88097 29.8922C6.6246 29.8922 6.41095 29.6809 6.41095 29.4695C6.41095 29.2158 6.49641 29.0467 6.58187 29.0467C6.71006 29.0467 6.9237 29.2158 7.05189 29.4695ZM46.0207 29.3427C45.8498 29.4695 45.5934 29.4695 45.4225 29.3427C45.2943 29.1736 45.4225 29.0467 45.7216 29.0467C46.0207 29.0467 46.1489 29.1736 46.0207 29.3427ZM47.2171 29.4695C47.3453 29.6809 47.2598 29.8922 47.0462 29.8922C46.7898 29.8922 46.5762 29.6809 46.5762 29.4695C46.5762 29.2158 46.6616 29.0467 46.7471 29.0467C46.8753 29.0467 47.0889 29.2158 47.2171 29.4695ZM51.7036 29.4695C51.7036 29.6809 51.5327 29.8922 51.2763 29.8922C51.0627 29.8922 50.8491 29.6809 50.8491 29.4695C50.8491 29.2158 51.0627 29.0467 51.2763 29.0467C51.5327 29.0467 51.7036 29.2158 51.7036 29.4695ZM183.95 29.4695C184.078 29.6809 184.121 29.8922 183.992 29.8922C183.864 29.8922 183.651 29.6809 183.522 29.4695C183.394 29.2158 183.352 29.0467 183.48 29.0467C183.608 29.0467 183.822 29.2158 183.95 29.4695ZM11.4102 29.7654C11.2393 29.8922 10.983 29.8922 10.812 29.7654C10.6838 29.5963 10.812 29.4695 11.1111 29.4695C11.4102 29.4695 11.5384 29.5963 11.4102 29.7654ZM9.18834 30.315C9.06015 30.5264 8.67559 30.7377 8.41921 30.7377C8.12011 30.7377 8.16284 30.5686 8.5474 30.315C9.35925 29.8077 9.53017 29.8077 9.18834 30.315ZM48.5844 30.1882C48.4135 30.315 48.1571 30.315 47.9862 30.1882C47.858 30.0191 47.9862 29.8922 48.2853 29.8922C48.5844 29.8922 48.7126 30.0191 48.5844 30.1882ZM182.882 30.0613C182.882 30.1459 182.54 30.4841 182.155 30.78C181.471 31.3296 181.429 31.2873 181.984 30.6109C182.54 29.9345 182.882 29.7231 182.882 30.0613ZM50.2936 30.6109C50.1227 30.7377 49.8663 30.7377 49.6954 30.6109C49.5672 30.4418 49.6954 30.315 49.9945 30.315C50.2936 30.315 50.4218 30.4418 50.2936 30.6109ZM86.1859 31.245C86.2714 31.9637 86.1859 32.0483 85.8868 31.5832C85.6732 31.245 85.6304 30.8223 85.7159 30.6532C86.0577 30.1459 86.1432 30.2304 86.1859 31.245ZM6.6246 31.1605C6.75278 31.3719 6.66733 31.5832 6.45368 31.5832C6.19731 31.5832 5.98366 31.3719 5.98366 31.1605C5.98366 30.9068 6.06912 30.7377 6.15458 30.7377C6.28277 30.7377 6.49641 30.9068 6.6246 31.1605ZM52.0027 31.0337C51.8318 31.1605 51.5755 31.1605 51.4045 31.0337C51.2764 30.8646 51.4045 30.7377 51.7036 30.7377C52.0027 30.7377 52.1309 30.8646 52.0027 31.0337ZM40.0386 32.0483C44.7388 32.5979 44.867 32.6401 44.867 34.5002C44.8243 40.5456 40.5514 46.9714 35.3385 48.7893C32.3047 49.8039 26.2372 49.8039 23.2034 48.7893C20.3833 47.8169 16.965 44.8154 15.5549 42.0252C14.1449 39.3619 13.1621 34.6693 13.7176 33.6547C14.3158 32.5556 16.5377 32.0905 23.2889 31.6255C29.4846 31.245 33.9711 31.3719 40.0386 32.0483ZM54.8228 39.066C54.6092 45.4495 53.9683 52.5518 53.4983 53.3973C53.2419 53.82 52.6009 53.3973 50.8491 51.664L48.499 49.3389L49.909 46.8446C51.8318 43.378 52.9001 40.1651 53.2419 36.6563C53.4555 34.2466 53.6692 33.697 54.2674 33.697C54.9083 33.697 54.9938 34.2043 54.8228 39.066ZM176.985 36.3181C177.07 37.5018 177.284 37.7132 178.181 37.7132C179.079 37.7132 179.292 37.5018 179.378 36.3181C179.506 35.3035 179.72 34.9653 180.36 34.9653C181.087 34.9653 181.172 35.1344 180.916 35.8953C179.591 39.996 179.591 41.8984 180.959 43.2512L182.027 44.3081L180.873 47.0137C180.232 48.5356 179.591 49.7616 179.42 49.7616C178.865 49.7616 176.13 46.2528 175.062 44.0544C173.823 41.6025 172.84 38.8123 172.456 36.5295L172.157 34.9653H174.507C176.814 34.9653 176.857 34.9653 176.985 36.3181ZM63.0695 50.6494C63.625 52.8477 64.2232 54.9615 64.3514 55.3419C64.565 56.0184 65.1633 56.1029 69.0516 56.1029C73.4099 56.1029 73.4954 56.1452 73.0681 56.9484C72.6408 57.7516 72.1708 57.7939 66.0178 57.7939C59.694 57.7939 59.3948 57.7516 59.3948 56.9484C59.3948 56.272 59.694 56.1029 60.7194 56.1029C62.0013 56.1029 62.044 56.0606 61.7449 54.7078C61.3604 53.1436 61.3604 52.5941 61.4458 48.9584C61.4886 47.4787 61.6168 46.3373 61.7449 46.4641C61.8731 46.591 62.4713 48.4934 63.0695 50.6494ZM24.528 50.1421C24.9126 50.7339 24.3571 51.8754 23.7162 51.8754C22.9471 51.8754 22.5198 51.1567 22.8189 50.3957C23.0752 49.6771 24.1862 49.5502 24.528 50.1421ZM35.8085 50.6917C36.0221 51.7485 34.1848 52.1713 33.4584 51.199C33.0311 50.6071 33.0311 50.3957 33.4584 50.0998C34.2702 49.5502 35.6376 49.8884 35.8085 50.6917ZM52.4728 55.2574C52.3446 56.3143 52.3446 56.3143 55.4638 56.1875L58.5403 56.0183V57.3289C58.5403 58.3858 58.2839 58.6817 57.0875 59.1044C55.9765 59.4849 55.7202 59.7808 55.8911 60.4573C56.1047 61.2182 55.9765 61.3028 54.2674 61.0068C51.7891 60.6264 50.7636 60.0345 51.02 59.1467C51.1909 58.6394 50.379 57.498 48.2853 55.4688L45.2943 52.5518L46.6616 51.1567L48.029 49.7616L50.2936 51.9599C52.0027 53.6509 52.5155 54.4542 52.4728 55.2574ZM27.3481 51.4949C27.3481 52.5095 27.22 52.7632 26.6645 52.5518C26.2799 52.425 25.8099 52.2981 25.5963 52.2981C25.3826 52.2981 25.2117 51.8331 25.2117 51.2412C25.2117 50.3957 25.4253 50.1844 26.2799 50.1844C27.1772 50.1844 27.3481 50.3957 27.3481 51.4949ZM32.6038 51.1144C32.9029 52.2136 32.9456 52.129 31.7492 52.4672C30.8946 52.7632 30.7665 52.6363 30.7665 51.4949C30.7665 50.4803 30.9374 50.1844 31.5783 50.1844C32.0483 50.1844 32.4756 50.5648 32.6038 51.1144ZM12.0512 51.7485L13.2476 52.89L10.5984 55.5533C8.12011 58.0053 7.99192 58.2589 8.46194 59.2735C9.23106 60.88 9.10288 61.5141 7.90647 62.2751C6.53914 63.1629 5.17181 62.6978 4.61634 61.1337C4.31723 60.2459 3.93267 59.9077 3.16355 59.9077C1.53985 59.9077 0.300714 58.3858 0.599816 56.7793C0.984377 54.9192 1.83896 54.4119 3.71903 54.9192C5.21454 55.3419 5.3 55.2574 7.65009 52.9745C8.97469 51.664 10.2138 50.6071 10.4275 50.6071C10.6838 50.6071 11.4102 51.1144 12.0512 51.7485ZM30.3392 51.664C30.3392 52.5095 30.1255 52.7209 29.2709 52.7209C28.4164 52.7209 28.2027 52.5095 28.2027 51.664C28.2027 50.8185 28.4164 50.6071 29.2709 50.6071C30.1255 50.6071 30.3392 50.8185 30.3392 51.664ZM47.4307 55.4688L49.7381 57.7939H47.858C46.448 57.7939 45.4225 57.4557 44.0979 56.5679C43.0724 55.8915 42.2178 55.2151 42.2178 55.046C42.2178 54.7501 44.4397 53.1436 44.867 53.1436C44.9952 53.1436 46.1489 54.2005 47.4307 55.4688ZM15.4268 54.4542L16.6659 55.2997L15.2131 56.5679C14.0167 57.5825 13.4185 57.7939 11.4957 57.7939H9.23106L11.3248 55.6801C12.4785 54.4964 13.5894 53.5664 13.8031 53.5664C14.0167 53.5664 14.7431 53.9469 15.4268 54.4542ZM26.9208 54.4119C26.9208 54.9615 26.6217 55.2574 26.1517 55.2574C25.0408 55.2574 24.6989 54.7924 25.2544 54.116C25.9808 53.2705 26.9208 53.4396 26.9208 54.4119ZM33.1165 54.4119C33.5438 54.8769 33.672 55.2574 33.4156 55.2574C33.1593 55.2574 32.6893 55.3842 32.3474 55.511C31.9629 55.6379 31.6638 55.4265 31.4928 54.8769C31.1083 53.3973 31.9629 53.1436 33.1165 54.4119ZM30.7665 54.8346C30.7665 55.511 30.4674 55.6801 29.2709 55.6801C28.0745 55.6801 27.7754 55.511 27.7754 54.8346C27.7754 54.1582 28.0745 53.9891 29.2709 53.9891C30.4674 53.9891 30.7665 54.1582 30.7665 54.8346ZM28.8437 56.3566C30.5101 56.5257 32.5611 56.4411 33.4156 56.1875C34.6121 55.8492 35.1675 55.8915 35.7657 56.3566C36.4921 56.9061 36.4067 57.033 34.783 58.5971C31.4074 61.7678 27.6045 61.7678 24.1007 58.5549C22.5625 57.1598 22.3061 56.737 22.7334 56.2297C23.0752 55.807 23.6734 55.6801 24.528 55.8492C25.2544 56.0184 27.22 56.2297 28.8437 56.3566ZM22.0925 57.6248C21.9643 57.7516 21.5797 57.7939 21.2806 57.6671C20.9388 57.5403 21.067 57.4134 21.537 57.4134C22.007 57.3712 22.2634 57.498 22.0925 57.6248ZM37.4749 57.6671C37.304 57.7939 37.0476 57.7939 36.8767 57.6671C36.7485 57.498 36.8767 57.3712 37.1758 57.3712C37.4749 57.3712 37.6031 57.498 37.4749 57.6671ZM167.328 63.1629C164.294 64.6848 161.047 64.8962 157.629 63.7547C152.8 62.1483 153.099 62.0214 161.517 62.0637H169.422L167.328 63.1629Z" fill="black"/>
<path d="M33.1165 11.9252C40.295 13.1935 46.6189 17.8015 49.7808 24.1005C50.7209 25.9606 51.1909 27.4825 51.02 27.9053C50.8918 28.2858 50.5927 28.4972 50.379 28.3703C50.1654 28.2435 50.0799 27.9898 50.1654 27.8207C50.2936 27.6516 50.1227 27.4825 49.8236 27.4825C49.4817 27.4825 49.3108 27.6939 49.3963 27.9476C49.5245 28.2858 48.7553 28.4126 47.1744 28.4126C44.9525 28.4126 44.8243 28.3703 44.9952 27.4403C45.0807 26.933 44.9952 26.3834 44.7388 26.2143C44.4824 26.0875 44.4397 26.172 44.6106 26.4257C44.7816 26.7216 44.8243 26.933 44.6961 26.933C44.5679 26.933 44.0979 26.2143 43.6279 25.3265C40.765 19.7462 31.9629 16.7446 24.1862 18.7316C20.8106 19.5771 18.546 20.8876 16.1959 23.4241C15.1704 24.5233 14.1876 25.4111 14.0167 25.3688C13.8458 25.2842 13.8458 25.5802 13.974 25.9606C14.1876 26.4679 14.1022 26.5525 13.6749 26.2988C13.333 26.0875 13.2049 26.1297 13.3758 26.3834C13.8885 27.1866 13.2049 29.4695 12.4357 29.4272C12.0084 29.4272 11.9657 29.3427 12.3075 29.1736C13.6749 28.624 12.5639 28.2435 10.0856 28.4549C8.50467 28.5817 7.2228 28.4972 7.09462 28.2435C6.71006 27.6939 7.99192 24.5656 9.53017 22.2827C13.4185 16.491 18.9733 12.8976 25.8954 11.7561C28.8864 11.2488 29.3137 11.2488 33.1165 11.9252Z" fill="black"/>
<path d="M61.5313 14.8C61.5313 17.0828 62.5568 21.7754 63.1977 22.4095C63.7532 22.9591 64.5223 18.8584 64.5223 15.5186V12.5594H67.9834C71.0599 12.5594 71.4017 12.6439 71.188 13.2781C71.0599 13.7008 70.7607 17.2519 70.5471 21.1835C70.248 26.1297 69.9489 28.4549 69.5643 28.7085C69.137 28.9622 69.137 29.0467 69.5643 29.0467C69.8207 29.0467 70.0771 29.2158 70.0771 29.4695C70.0771 29.6809 69.778 29.7654 69.3934 29.5963C68.8807 29.4272 68.7952 28.9622 68.9661 27.8207C69.1798 26.5525 69.137 26.4679 68.7952 27.2712C68.3679 28.2435 68.2825 28.2858 62.8986 28.1589C59.9076 28.0744 57.2584 28.1589 56.9593 28.328C56.7029 28.4971 56.3611 28.4549 56.2329 28.2435C56.1047 28.0321 55.8483 24.4387 55.7202 20.2112L55.4211 12.5594H58.4975H61.5313V14.8Z" fill="black"/>
<path d="M90.1597 15.3073V18.0129L88.6214 16.9983C86.5705 15.6032 83.494 15.5609 81.8275 16.8715C80.0757 18.2243 79.0502 20.8031 79.0502 23.8469C79.0502 25.2842 78.8792 26.5948 78.6229 26.7216C78.4092 26.8484 78.1956 27.3557 78.1956 27.863C78.1956 28.6663 78.1529 28.6663 77.341 27.7362L76.5292 26.7216L76.4864 27.6939C76.4864 28.2435 76.3155 28.5817 76.1019 28.4549C75.8882 28.2858 75.5891 28.4549 75.5037 28.7085C75.3755 29.0045 75.2473 28.5817 75.2473 27.7785C75.2046 23.9314 74.2645 13.9967 73.9227 13.6585C73.6663 13.4049 73.4954 13.0667 73.4954 12.8976C73.4954 12.7285 77.2555 12.5594 81.8275 12.5594H90.1597V15.3073Z" fill="black"/>
<path d="M108.96 13.109C111.951 14.6731 112.592 16.3219 112.678 22.9168C112.763 26.4679 112.635 28.1167 112.379 27.5671C112.165 27.0175 111.994 26.933 111.994 27.3134C111.951 27.8207 111.823 27.8207 111.439 27.4403C111.14 27.1443 110.627 26.933 110.285 26.933C109.943 26.933 109.815 27.0598 109.943 27.2289C110.114 27.3557 109.986 27.7785 109.644 28.1589C109.302 28.5394 108.96 29.5963 108.832 30.5264C108.747 31.4564 108.661 29.2581 108.619 25.6224C108.533 19.3234 108.49 18.9852 107.508 17.9283C106.525 16.8715 103.619 15.7723 102.893 16.195C102.722 16.3219 102.508 19.3234 102.508 22.8323C102.466 26.7216 102.337 28.7508 102.124 27.9898C101.91 27.1443 101.782 26.9752 101.739 27.5671C101.697 28.2435 101.611 28.2858 101.312 27.8207C101.098 27.4825 100.329 27.2289 99.6028 27.2289H98.2782L98.2355 23.1705C98.2355 20.9299 98.0645 17.5479 97.9363 15.6032L97.6373 12.1366H102.38C106.482 12.1366 107.379 12.2634 108.96 13.109Z" fill="black"/>
<path d="M146.989 15.3495V18.1397L145.707 17.0828C143.272 15.0536 140.11 15.2227 137.931 17.5479C136.563 18.9852 135.965 20.9299 135.794 24.2696C135.751 25.7493 135.538 26.933 135.324 26.933C135.153 26.933 135.068 27.1021 135.239 27.3134C135.367 27.5248 135.281 27.8207 135.025 27.9898C134.811 28.1167 134.598 28.0744 134.598 27.863C134.598 27.6516 134.128 27.5671 133.53 27.6939C132.931 27.7785 132.59 28.0321 132.675 28.2012C132.803 28.4126 132.718 28.6663 132.504 28.7931C132.29 28.9622 132.077 28.2858 132.077 27.2712C131.991 22.2404 131.137 14.1236 130.539 13.2781L129.94 12.348L138.443 12.4748L146.989 12.6017V15.3495Z" fill="black"/>
<path d="M187.283 11.6716C187.966 11.9252 187.881 12.0943 186.727 13.1935C185.744 14.1236 185.445 14.2504 185.445 13.7008C185.445 12.6862 185.232 12.7707 182.283 14.8422C179.207 17.0406 174.763 21.5217 173.738 23.4664C173.353 24.2273 172.84 24.7346 172.669 24.6078C172.456 24.481 172.37 24.7347 172.456 25.1151C172.541 25.5379 172.456 26.1297 172.242 26.4679C171.815 27.1021 168.909 27.4825 168.567 26.933C168.183 26.3411 169.678 23.1282 170.191 23.4241C170.447 23.5509 170.49 23.4664 170.319 23.1705C169.55 21.9445 174.507 16.6601 178.48 14.504C179.591 13.8699 181.429 13.0667 182.582 12.6862C183.992 12.2212 184.548 11.8407 184.42 11.4602C184.206 10.8684 185.189 10.9529 187.283 11.6716Z" fill="black"/>
<path d="M49.909 5.79533C49.3535 6.64083 48.8835 6.64083 29.57 6.64083C12.9912 6.64083 9.65835 6.55629 9.14561 6.04898C8.80377 5.71078 8.5474 5.33031 8.5474 5.20348C8.5474 5.07665 17.9905 4.94982 29.4846 4.94982C50.3363 4.94982 50.4218 4.94982 49.909 5.79533Z" fill="black"/>
<path d="M80.7593 5.79533C80.7593 6.64083 80.4602 6.64083 68.3679 6.64083C56.4466 6.64083 55.9765 6.59856 55.5492 5.79533C55.0792 4.94982 55.2074 4.94982 67.9406 4.94982C80.4602 4.94982 80.7593 4.94982 80.7593 5.79533Z" fill="black"/>
<path d="M169.892 26.299C169.764 26.6372 169.85 26.9331 170.063 26.9331C170.32 26.9331 170.49 26.6372 170.49 26.299C170.49 25.9608 170.405 25.6648 170.32 25.6648C170.234 25.6648 170.063 25.9608 169.892 26.299Z" fill="black"/>
<path d="M12.8203 27.3555C12.8203 27.6515 12.9485 27.7783 13.1194 27.6515C13.2476 27.4824 13.2476 27.2287 13.1194 27.0596C12.9485 26.9328 12.8203 27.0596 12.8203 27.3555Z" fill="black"/>
<path d="M101.699 26.0872C101.699 26.3832 101.827 26.51 101.998 26.3832C102.127 26.2141 102.127 25.9604 101.998 25.7913C101.827 25.6645 101.699 25.7913 101.699 26.0872Z" fill="black"/>
<path d="M133.874 26.806C134.045 26.9328 134.301 26.9328 134.472 26.806C134.6 26.6369 134.472 26.5101 134.173 26.5101C133.874 26.5101 133.746 26.6369 133.874 26.806Z" fill="black"/>
<path d="M19.7429 35.261C18.0765 36.0642 17.0938 37.7552 17.0938 39.869C17.0938 41.0527 17.4356 41.7291 18.5465 42.8283C19.7857 44.0542 20.2984 44.2656 22.0076 44.2656C23.7167 44.2656 24.2295 44.0542 25.4686 42.8283C26.5796 41.7291 26.9214 41.0527 26.9214 39.869C26.9214 37.713 25.9386 36.0642 24.1868 35.2187C22.3921 34.3732 21.5376 34.3732 19.7429 35.261Z" fill="black"/>
<path d="M33.8423 35.3878C29.4412 38.0512 31.2786 44.2656 36.4488 44.2656C39.9525 44.2656 42.1744 40.9259 40.8498 37.7552C40.1662 36.1065 37.987 34.5423 36.3206 34.5423C35.7224 34.5423 34.6114 34.9228 33.8423 35.3878Z" fill="black"/>
<path d="M27.9456 44.1811C26.5782 45.1112 27.3901 47.6477 29.0565 47.6477C30.2956 47.6477 31.3639 45.8299 30.7657 44.7307C30.2956 43.8429 28.8429 43.547 27.9456 44.1811Z" fill="black"/>
<path d="M132.975 4.56907C132.206 4.86499 131.993 5.2032 132.121 6.09098L132.249 7.27468L161.176 7.40151C189.677 7.48606 190.104 7.48606 190.574 6.64055C190.916 6.00643 190.83 5.62595 190.147 4.94954C189.292 4.10404 188.865 4.10404 161.646 4.14631C145.666 4.14631 133.531 4.31542 132.975 4.56907ZM189.463 5.2032C190.147 5.45685 190.446 6.59828 189.847 6.68283C188.053 6.89421 133.531 6.76738 133.232 6.59828C132.975 6.42918 132.89 6.00643 133.018 5.62595C133.274 5.03409 136.009 4.94954 161.048 4.94954C176.302 4.94954 189.078 5.07637 189.463 5.2032Z" fill="black"/>
<path d="M189.463 5.2032C190.147 5.45685 190.446 6.59828 189.847 6.68283C188.053 6.89421 133.531 6.76738 133.232 6.59828C132.975 6.42918 132.89 6.00643 133.018 5.62595C133.274 5.03409 136.009 4.94954 161.048 4.94954C176.302 4.94954 189.078 5.07637 189.463 5.2032Z" fill="black"/>
<path d="M160.964 13.363C161.989 13.8703 163.314 14.9272 164.04 15.984C165.322 17.7173 165.365 17.8442 165.365 22.7904V27.7788H162.545C160.793 27.7788 159.853 27.6097 160.024 27.3561C160.195 27.1024 160.537 27.0602 160.793 27.2293C161.178 27.4406 161.178 27.3561 160.836 26.8911C160.537 26.5529 160.238 24.9041 160.152 23.1708C160.024 20.5498 159.853 19.9579 158.998 19.2815C157.717 18.2246 156.306 18.2669 155.281 19.3661C154.64 20.0847 154.426 21.0571 154.341 24.27C154.17 28.0748 154.127 28.2439 153.401 27.5675C152.675 26.9333 152.589 26.9333 152.119 27.652C151.777 28.2016 151.564 28.2439 151.435 27.8634C151.094 27.1024 149.983 27.2293 149.94 28.0748C149.94 28.7089 149.897 28.7089 149.598 27.9902C149.384 27.5252 149.213 25.496 149.171 23.4668C149.085 19.3661 149.47 18.0978 151.777 15.3499C154.127 12.5597 157.503 11.8411 160.964 13.363Z" fill="black"/>
<path fill-rule="evenodd" clip-rule="evenodd" d="M153.956 12.602C151.863 13.6166 150.196 15.4345 149.085 17.8442C148.359 19.3661 148.273 20.9303 148.273 33.9933C148.273 47.4368 148.316 48.6205 149.128 50.7343C150.581 54.5814 152.803 56.1033 156.905 56.1033C159.212 56.1033 159.981 55.8919 161.648 54.835C162.801 54.1163 164.211 52.7213 164.938 51.5798C166.22 49.6352 166.22 49.5506 166.22 43.5475V37.5022H162.075C158.87 37.5022 158.058 37.629 158.443 38.0095C159.127 38.6859 159.127 46.0418 158.443 46.7182C157.802 47.3523 156.264 47.3523 155.623 46.7182C155.238 46.3377 155.11 42.8711 155.11 33.6974C155.11 23.0863 155.196 21.0571 155.794 20.2538C156.648 19.0279 157.93 19.0701 158.785 20.3807C159.298 21.1416 159.426 22.114 159.298 24.27C159.212 25.8342 158.956 27.4829 158.785 27.8634C158.486 28.5398 158.785 28.6243 162.331 28.6243H166.22V23.2131C166.22 17.971 166.177 17.7173 164.98 15.8572C164.126 14.5044 163.1 13.6166 161.477 12.8134C158.742 11.4606 156.392 11.4183 153.956 12.602ZM164.04 15.984C163.314 14.9272 161.989 13.8703 160.964 13.363C157.503 11.8411 154.127 12.5597 151.777 15.3499C149.47 18.0978 149.085 19.3661 149.171 23.4668C149.213 25.496 149.384 27.5252 149.598 27.9902C149.897 28.7089 149.94 28.7089 149.94 28.0748C149.983 27.2293 151.094 27.1024 151.435 27.8634C151.564 28.2439 151.777 28.2016 152.119 27.652C152.589 26.9333 152.675 26.9333 153.401 27.5675C154.127 28.2439 154.17 28.0748 154.341 24.27C154.426 21.0571 154.64 20.0847 155.281 19.3661C156.306 18.2669 157.717 18.2246 158.998 19.2815C159.853 19.9579 160.024 20.5498 160.152 23.1708C160.238 24.9041 160.537 26.5529 160.836 26.8911C161.178 27.3561 161.178 27.4406 160.793 27.2293C160.537 27.0602 160.195 27.1024 160.024 27.3561C159.853 27.6097 160.793 27.7788 162.545 27.7788H165.365V22.7904C165.365 17.8442 165.322 17.7173 164.04 15.984ZM153.828 29.8926C153.828 30.1885 153.956 30.3154 154.127 30.1885C154.255 30.0194 154.255 29.7658 154.127 29.5967C153.956 29.4699 153.828 29.5967 153.828 29.8926Z" fill="black"/>
<path d="M161.52 26.9324C161.52 27.2284 161.648 27.3552 161.819 27.2284C161.947 27.0593 161.947 26.8056 161.819 26.6365C161.648 26.5097 161.52 26.6365 161.52 26.9324Z" fill="black"/>
<path d="M163.443 26.9332C163.571 27.1446 163.785 27.356 163.913 27.356C163.999 27.356 164.084 27.1446 164.084 26.9332C164.084 26.6796 163.87 26.5105 163.614 26.5105C163.4 26.5105 163.315 26.6796 163.443 26.9332Z" fill="black"/>
</svg>
