<svg width="318" height="43" viewBox="0 0 318 43" fill="none" xmlns="http://www.w3.org/2000/svg">
<path d="M23.2244 33.4322C17.731 37.1729 13.3596 38.5201 8.28672 39.8558L5.22448 35.1284C9.88832 32.7823 14.7155 29.5182 19.578 24.7911C19.987 29.3785 22.1373 32.6306 23.2244 33.4322Z" fill="#F9F8F6"/>
<path d="M22.4767 33.235C17.2639 36.7889 10.0051 39.2632 1.6948 40.471L0 37.916C7.11811 35.267 13.9909 31.3184 19.321 25.7664C20.1275 29.3203 21.3547 31.6785 22.4767 33.235Z" fill="#F0EEE8"/>
<path d="M59.6923 21.1665C59.6923 32.4686 50.4822 41.621 39.1093 41.621C27.7482 41.621 18.5262 32.4686 18.5262 21.1665C18.5262 19.8562 18.6502 18.5748 18.8871 17.3332C19.8222 12.4316 22.5172 8.15028 26.2929 5.16072C29.8102 2.37582 34.2653 0.711914 39.1093 0.711914C50.4822 0.711914 59.6923 9.86493 59.6923 21.1665Z" fill="#F9F8F6"/>
<path d="M58.6176 21.1665C58.6176 31.876 49.886 40.5522 39.1095 40.5522C28.3446 40.5522 19.6133 31.876 19.6133 21.1665C19.6133 10.4691 28.3446 1.7808 39.1095 1.7808C49.886 1.78047 58.6176 10.4573 58.6176 21.1665Z" fill="#F0EEE8"/>
<path d="M55.3795 21.1665C55.3795 30.0987 48.0973 37.3354 39.1092 37.3354C30.1326 37.3354 22.8508 30.0987 22.8508 21.1665C22.8508 12.2342 30.1326 4.99782 39.1092 4.99782C48.0973 4.99782 55.3795 12.2342 55.3795 21.1665Z" fill="#F9F8F6"/>
<path fill-rule="evenodd" clip-rule="evenodd" d="M52.201 13.5C53.4689 15.6311 54.2241 18.0994 54.2981 20.7381L52.8597 21.2024L48.2489 21.3172L45.4495 21.8078L44.9555 21.1664L43.6381 18.5196L26.0324 28.8398C24.694 26.5922 23.9257 23.9691 23.9257 21.1664C23.9257 12.8268 30.7283 6.07836 39.1088 6.07836C44.6836 6.07815 49.5571 9.05603 52.201 13.5Z" fill="#F0EEE8"/>
<path d="M45.4438 21.1665C45.4557 24.6396 42.6154 27.4622 39.1204 27.4737C35.6142 27.4737 32.7736 24.6514 32.7736 21.1783V21.1665C32.7736 17.6934 35.6023 14.8711 39.1085 14.8711C42.6032 14.8596 45.4435 17.6822 45.4435 21.1551C45.4438 21.1665 45.4438 21.1665 45.4438 21.1665Z" fill="#F9F8F6"/>
<path d="M44.696 21.1664C44.696 24.2334 42.2058 26.7188 39.1205 26.7188C36.0349 26.7188 33.5336 24.2451 33.5217 21.1786V21.1668C33.5217 18.1005 36.0231 15.6145 39.1087 15.6145C42.1943 15.6145 44.696 18.0887 44.696 21.155V21.1664Z" fill="#F0EEE8"/>
<path d="M41.9847 21.1664C41.9847 22.7343 40.6989 24.0119 39.1095 24.0233C37.5316 24.0233 36.2459 22.7461 36.2459 21.1664C36.2459 19.587 37.5316 18.3209 39.1095 18.3094C40.6986 18.3091 41.9847 19.587 41.9847 21.1664Z" fill="#F9F8F6"/>
<path d="M41.1896 21.1664C41.1896 22.3046 40.2661 23.2338 39.1092 23.2338C37.9637 23.2338 37.0287 22.316 37.0287 21.1664C37.0287 20.0285 37.9637 19.0993 39.1092 19.0993C40.2543 19.099 41.1896 20.0164 41.1896 21.1664Z" fill="#F0EEE8"/>
<path d="M41.2478 5.72973H36.9232V15.7534H41.2478V5.72973Z" fill="#F9F8F6"/>
<path d="M40.5814 4.28939H37.6012V17.0313H40.5814V4.28939Z" fill="#F0EEE8"/>
<path d="M51.1595 11.386L53.5206 14.9867L45.0584 20.4465L42.7092 16.8455L51.1595 11.386Z" fill="#F9F8F6"/>
<path d="M52.7377 11.1657L54.3624 13.6514L43.6089 20.5973L41.9843 18.1002L52.7377 11.1657Z" fill="#F0EEE8"/>
<path d="M33.0428 21.9795L35.3571 25.6034L26.8363 30.97L24.522 27.3343L33.0428 21.9795Z" fill="#F9F8F6"/>
<path d="M34.492 21.7705L36.0932 24.2794L25.27 31.0975L23.6684 28.5885L34.492 21.7705Z" fill="#F0EEE8"/>
<path d="M41.2478 26.9164H36.9232V36.9397H41.2478V26.9164Z" fill="#F9F8F6"/>
<path d="M40.5814 25.4877H37.6012V38.2178H40.5814V25.4877Z" fill="#F0EEE8"/>
<path d="M45.3742 22.0956C45.4091 21.9563 45.3976 21.8287 45.4562 21.4222L54.2695 20.284C54.3044 20.6905 54.281 20.8413 54.2695 21.0271L45.3742 22.0956Z" fill="#F9F8F6"/>
<path d="M58.4187 14.7203H69.9787C69.6161 16.0789 69.2653 17.4611 67.6054 18.077C64.9522 19.0647 59.4472 20.0168 59.4472 20.0168C59.3418 18.5182 59.0029 16.4852 58.4187 14.7203Z" fill="#F9F8F6"/>
<path d="M50.3652 4.25473L80.5677 4.2894L79.5042 15.254L58.8741 16.3229C57.7636 11.4211 54.0114 6.74045 50.3652 4.25473Z" fill="#F9F8F6"/>
<path d="M51.4401 5.0328L90 5.06747L88.5272 14L58.6049 15.4637C57.4242 11.0263 54.7246 7.78573 51.4401 5.0328Z" fill="#F0EEE8"/>
<path d="M58.4187 14.7203H69.0664C68.716 15.9278 68.4703 17.0314 66.9042 17.5772C64.4147 18.46 59.4005 19.157 59.4005 19.157C59.19 17.7054 58.886 16.23 58.4187 14.7203Z" fill="#F0EEE8"/>
<path d="M24.8256 14.2411L27.1982 10.6519L35.6373 16.1342L33.2644 19.7349L24.8256 14.2411Z" fill="#F9F8F6"/>
<path d="M24.0421 13.0097L25.6786 10.524L36.3968 17.5046L34.7603 19.9906L24.0421 13.0097Z" fill="#F0EEE8"/>
<path d="M42.8372 25.6706L45.2098 22.0696L53.6486 27.5637L51.276 31.1647L42.8372 25.6706Z" fill="#F9F8F6"/>
<path d="M42.0538 24.4392L43.6903 21.9538L54.4088 28.9344L52.7723 31.4087L42.0538 24.4392Z" fill="#F0EEE8"/>
<path d="M8.49733 10.7079V5.18353C8.39873 5.19637 8.30113 5.21442 8.20466 5.23749V9.90564C8.3326 10.1573 8.43159 10.4262 8.49733 10.7079Z" fill="#F0EEE8"/>
<path d="M8.49733 17.313V12.3436C8.43159 12.6253 8.3326 12.8942 8.20466 13.1459V17.261C8.30114 17.2834 8.39875 17.3008 8.49733 17.313Z" fill="#F0EEE8"/>
<path d="M8.87122 5.16072H8.80107C8.69887 5.16281 8.59758 5.17048 8.49733 5.18353V10.7079C8.55862 10.9705 8.591 11.2443 8.591 11.5257C8.591 11.8072 8.55862 12.081 8.49733 12.3436V17.313C8.59038 17.3245 8.68431 17.3313 8.77901 17.3332H8.89461H18.8871C19.8222 12.4316 22.5172 8.15028 26.2929 5.16072H8.87122Z" fill="#F0EEE8"/>
<path fill-rule="evenodd" clip-rule="evenodd" d="M8.63749 17.9955C8.6099 17.9959 8.58237 17.9959 8.55489 17.9955H8.20466V17.9688C6.896 17.7871 5.74811 16.7036 5.02683 15.1147C5.01105 15.1149 4.99524 15.115 4.97942 15.115C2.98063 15.115 1.35597 13.512 1.35597 11.5257C1.35597 9.60703 2.87196 8.04631 4.77675 7.94233C5.46011 6.02585 6.72249 4.67705 8.20466 4.47714V4.45196H8.53243H8.61444H28.1214C27.792 4.68626 27.4729 4.92257 27.1638 5.16072H27.2337C22.0676 8.99364 19.9987 13.2913 19.1572 17.3332H19.0617C19.0186 17.5546 18.9802 17.7754 18.9462 17.9955H8.63749ZM8.20466 17.261C7.17864 17.0222 6.27847 16.2113 5.65538 15.0526C5.50923 14.7808 5.37832 14.4899 5.26461 14.1827C4.95069 13.3347 4.76782 12.3629 4.75706 11.3282C4.75086 10.4384 4.87362 9.59016 5.09944 8.82313C5.18784 8.52283 5.29205 8.23498 5.41049 7.96196C6.63645 8.10601 7.67169 8.8571 8.20466 9.90564V13.1459C8.3326 12.8942 8.43159 12.6253 8.49733 12.3436C8.55862 12.081 8.591 11.8072 8.591 11.5257C8.591 11.2443 8.55862 10.9705 8.49733 10.7079C8.43159 10.4262 8.3326 10.1573 8.20466 9.90564V5.23749C8.30113 5.21442 8.39873 5.19637 8.49733 5.18353C8.59758 5.17048 8.69887 5.16281 8.80107 5.16072H8.87122H26.2929C22.5172 8.15028 19.8222 12.4316 18.8871 17.3332H8.89461H8.77901C8.68431 17.3313 8.59038 17.3245 8.49733 17.313C8.39875 17.3008 8.30114 17.2834 8.20466 17.261Z" fill="#F0EEE8"/>
<path d="M8.20466 13.1459V9.90564C7.67169 8.8571 6.63645 8.10601 5.41049 7.96196C5.29205 8.23498 5.18784 8.52283 5.09944 8.82313C6.22533 9.09047 7.07143 10.1943 7.07143 11.5257C7.07143 12.7912 6.30707 13.8511 5.26461 14.1827C5.37832 14.4899 5.50923 14.7808 5.65538 15.0526C6.77354 14.8433 7.70757 14.1239 8.20466 13.1459Z" fill="#F0EEE8"/>
<path d="M7.07143 11.5257C7.07143 10.1943 6.22533 9.09047 5.09944 8.82313C4.87362 9.59016 4.75086 10.4384 4.75706 11.3282C4.76782 12.3629 4.95069 13.3347 5.26461 14.1827C6.30707 13.8511 7.07143 12.7912 7.07143 11.5257Z" fill="#F0EEE8"/>
<path d="M8.20466 17.261V13.1459C7.70757 14.1239 6.77354 14.8433 5.65538 15.0526C6.27847 16.2113 7.17864 17.0222 8.20466 17.261Z" fill="#F0EEE8"/>
<path fill-rule="evenodd" clip-rule="evenodd" d="M125.441 41.8341H124.104L114 31.7296L127.25 3.77425L133.384 1.33664L134.564 2.20142L135.429 0.157281L136.608 0L139.832 2.04414L140.54 3.5386L144.786 2.35871L145.887 5.11143L146.123 5.26871L146.438 2.20142L151.234 1.41501L152.257 3.22349L152.65 1.49338L157.447 1.0999L158.233 4.32394L158.705 3.61589L160.986 1.09936L165.939 1.41393L166.727 1.72849L167.12 1.49284L172.152 2.12197L172.546 4.48122L173.411 2.43654L178.208 3.22295L179.387 1.57175L180.96 0.392396H182.061L191.104 3.53752L195.035 11.7157L193.934 13.996L197.316 16.1191L204 31.9252L193.974 42.3329C193.974 42.3329 188.508 37.9015 177.106 34.9136C177.106 34.9136 157.581 30.3356 142.664 34.2845C134.643 36.4075 130.082 38.6095 130.082 38.6095L128.431 38.1376L127.959 39.9461L125.441 41.8341Z" fill="#F0EEE8"/>
<path fill-rule="evenodd" clip-rule="evenodd" d="M132.993 15.2557L136.138 12.2679L137.194 13.4473L136.296 17.1431L135.352 19.6256L132.993 15.2557ZM125.286 22.0973L128.196 19.738L126.702 24.3776L125.286 22.0973ZM117.895 34.4427L121.197 32.1623L127.252 39.5541L124.736 41.5204L117.895 34.4427ZM156.143 23.1167C154.452 23.2134 152.676 23.3712 150.807 23.5993L152.148 32.3439C153.588 32.2234 154.987 32.1413 156.306 32.0926L156.143 23.1167ZM168.942 23.5107C166.643 23.2292 164.332 23.0622 162.017 23.0102L161.183 32.0726C163.274 32.1358 165.518 32.292 167.784 32.5423L168.942 23.5107ZM139.883 25.5451C137.679 26.0532 135.737 26.5747 134.046 27.0801L137.842 34.981L138.182 34.8702C139.658 34.3908 141.269 33.9811 142.945 33.6341L139.883 25.5451ZM175.76 24.6279C173.97 24.2672 172.17 23.9572 170.363 23.6982L168.798 32.6601C170.241 32.8369 171.682 33.0536 173.091 33.306L175.76 24.6279ZM148.276 23.9442C147.27 24.0949 146.241 24.2636 145.181 24.4565C144.338 24.61 143.522 24.7673 142.735 24.9273L145.586 33.1455C147.148 32.8893 148.734 32.6817 150.296 32.5185L148.276 23.9442ZM187.284 28.0595L182.569 35.8528C189.815 38.5077 193.935 41.6777 193.935 41.6777L200.699 34.5216C197.653 32.4039 192.529 30.0133 187.284 28.0595ZM184.431 27.0444C182.409 26.358 180.421 25.7564 178.582 25.2808L175.44 33.7708C177.172 34.143 178.883 34.6067 180.567 35.1599L184.431 27.0444ZM160.849 23.1837L159.022 21.226L158.29 32.0445C158.942 32.0369 159.594 32.0385 160.246 32.0494L160.849 23.1837ZM131.705 27.82C127.229 29.3156 125.129 30.5111 125.129 30.5111L130.477 37.8245C130.477 37.8245 131.584 37.1132 136.178 35.5382L131.705 27.82ZM164.211 6.52734H167.435L166.256 17.5366H164.526L164.211 6.52734ZM175.299 17.1431L175.771 16.8286L176.635 17.615L176.006 20.839L175.299 17.1431ZM182.848 13.2116L192.285 19.738L191.34 21.7827L190.948 20.0526L184.342 17.5366L183.005 18.8733L182.455 15.6492L181.983 15.1774L182.848 13.2116ZM188.981 9.75138L194.564 11.4026L193.543 13.6045L188.746 10.6951L188.981 9.75138Z" fill="#F0EEE8"/>
<path fill-rule="evenodd" clip-rule="evenodd" d="M127.672 4.14796L132.687 2.14165L128.424 12.3402L132.771 9.16372L135.78 0.887714L136.365 0.720703L139.04 2.22543L136.449 11.0025L132.102 15.2659L133.857 18.6931L131.684 27.0524L125.582 29.5597L129.093 19.3617L128.508 18.6094L124.662 21.7026L120.817 31.5666L117.306 34.0739L115.133 31.6498L127.672 4.14796ZM140.461 4.23174L144.473 3.06157L145.978 8.74539L147.149 2.81078L150.827 2.22543L148.319 23.1235L143.387 24.0429L144.473 18.1916L142.718 11.17L139.625 24.7953L134.275 26.3838L140.461 4.23174ZM153.084 2.05842L157.013 1.80763L156.093 22.2042L151.078 22.622L153.084 2.05842ZM159.186 4.23174L161.109 1.72386L166.709 2.05842L166.96 5.73647H163.282L163.867 18.4424L168.656 18.5018L168.799 22.7057L161.36 22.4544L159.186 20.1979V4.23174ZM168.131 2.39244L171.641 2.72701L173.396 11.7548L175.737 8.99617L174.232 3.22858L178.245 3.98095L180 9.91609L177.995 12.424L181.087 14.8481L184.682 26.4432L179.164 24.7115L177.409 17.3554L175.486 15.6837L174.232 17.2722L175.57 23.8521L170.638 22.9565L168.131 2.39244ZM179.833 2.05842L181.171 0.887714L182.006 0.804479L190.868 3.89771L193.794 10.3339L188.778 8.91294L187.608 5.82024L185.099 4.64954L184.515 5.15111L185.685 9.33074L196.719 16.5198L203.239 31.7336L201.066 33.9069C201.066 33.9069 196.802 31.3152 194.295 30.1451C191.787 28.9744 187.525 27.3026 187.525 27.3026L184.766 18.4418L190.2 20.4481L191.119 23.624L195.298 25.8811L193.208 19.4444L182.926 12.3391L179.833 2.05842Z" fill="#F9F8F6"/>
<g clip-path="url(#clip0_1574_6597)">
<path d="M240.697 2.41602C240.697 2.41602 235.566 11.0612 230.633 20.7709C222.773 34.0289 235.188 33.1418 235.188 33.1418H294.715C309.942 33.1418 304.252 39.916 304.252 39.916C304.252 39.916 316.996 36.7709 317.983 22.2547C317.572 12.416 304.746 10.8031 296.853 9.75472C292.988 5.07731 285.013 5.39989 285.013 5.39989C285.013 5.39989 251.714 5.31924 247.274 5.31924C242.834 5.31924 240.697 2.41602 240.697 2.41602Z" fill="#F9F8F6"/>
<path d="M232.392 20.4805C224.417 32.8192 235.681 31.7708 235.681 31.7708H262.485C260.922 28.8676 262.073 29.5127 263.882 25.2385C263.882 25.2385 259.854 20.4805 255.003 20.4805H232.392Z" fill="#F0EEE8"/>
<path d="M240.942 4.67383L233.707 18.0609H253.769C262.648 18.0609 262.073 10.5448 275.228 10.5448C282.364 11.1254 288.465 16.7706 293.892 15.2383C288.383 18.7061 282.956 12.0125 274.077 12.0125C267.91 12.0125 261.004 19.0287 261.004 19.0287L267.335 24.1093C260.264 32.6577 267.335 31.9319 267.335 31.9319H293.069C313.246 31.9319 305.485 38.948 305.485 38.948C305.485 38.948 314.693 34.0287 316.091 22.7383C316.091 12.4964 296.358 11.3674 296.358 11.3674C296.358 11.3674 293.234 6.68996 282.874 6.68996H246.369C241.518 6.68996 240.942 4.67383 240.942 4.67383Z" fill="#F0EEE8"/>
<path d="M268.322 30.3186C268.322 30.3186 271.775 23.5444 277.202 23.5444H287.15C294.386 23.5444 291.755 15.4961 299.072 14.0283C293.531 18.4799 319.134 13.5444 308.774 31.2057C308.774 31.2057 297.346 24.9154 281.971 24.9154C273.749 24.9154 271.282 30.3186 271.282 30.3186H268.322Z" fill="#F9F8F6"/>
<path d="M274.488 30.319C274.488 30.319 275.886 26.2868 283.45 26.2868C298.496 27.2545 307.787 32.4158 307.787 32.4158C307.787 32.4158 298.579 28.3029 283.45 27.6578C278.106 27.6578 276.79 30.319 276.79 30.319H274.488ZM268.486 17.8997C272.729 22.061 275.886 21.7707 275.886 21.7707H285.177C290.028 21.7707 291.343 18.3029 291.343 18.3029H288.712C288.712 18.3029 287.068 20.6416 283.861 20.6416H280.655C280.655 20.6416 275.146 20.6416 275.146 18.1416C275.574 16.061 276.708 14.5932 276.708 14.5932C276.708 14.5932 273.173 14.0287 268.486 17.8997Z" fill="#F9F8F6"/>
<path d="M278.932 15.2383C278.932 15.2383 275.611 19.0286 282.024 19.0286H283.8C284.72 19.0286 285.526 17.8996 285.526 17.8996L284.737 17.1254C284.737 17.1254 283.948 18.4157 283.421 18.4157H282.566C279.902 18.4157 280.757 15.8673 280.757 15.8673L278.932 15.2383Z" fill="#F9F8F6"/>
</g>
<defs>
<clipPath id="clip0_1574_6597">
<rect width="90" height="37.5" fill="white" transform="translate(228 2.41602)"/>
</clipPath>
</defs>
</svg>
