<svg width="121" height="34" viewBox="0 0 121 34" fill="none" xmlns="http://www.w3.org/2000/svg">
<path d="M10.4375 20.9375H8.1875C7.74249 20.9375 7.30748 21.0695 6.93747 21.3167C6.56746 21.5639 6.27907 21.9153 6.10877 22.3265C5.93847 22.7376 5.89392 23.19 5.98073 23.6265C6.06755 24.0629 6.28184 24.4638 6.59651 24.7785C6.91118 25.0932 7.31209 25.3075 7.74855 25.3943C8.18501 25.4811 8.63741 25.4365 9.04854 25.2662C9.45967 25.0959 9.81108 24.8075 10.0583 24.4375C10.3055 24.0675 10.4375 23.6325 10.4375 23.1875V20.9375Z" stroke="#A6DA95" stroke-width="0.75" stroke-linecap="round" stroke-linejoin="round"/>
<path d="M10.4375 19.8125V15.3125H8.1875C7.59076 15.3125 7.01847 15.5496 6.59651 15.9715C6.17455 16.3935 5.9375 16.9658 5.9375 17.5625C5.9375 18.1592 6.17455 18.7315 6.59651 19.1535C7.01847 19.5754 7.59076 19.8125 8.1875 19.8125H10.4375Z" stroke="#C6A0F6" stroke-width="0.75" stroke-linecap="round" stroke-linejoin="round"/>
<path d="M10.4375 14.1875V9.6875H8.1875C7.59076 9.6875 7.01847 9.92455 6.59651 10.3465C6.17455 10.7685 5.9375 11.3408 5.9375 11.9375C5.9375 12.5342 6.17455 13.1065 6.59651 13.5285C7.01847 13.9504 7.59076 14.1875 8.1875 14.1875H10.4375Z" stroke="#ED8796" stroke-width="0.75" stroke-linecap="round" stroke-linejoin="round"/>
<path d="M13.8125 14.1875C14.4092 14.1875 14.9815 13.9504 15.4035 13.5285C15.8254 13.1065 16.0625 12.5342 16.0625 11.9375C16.0625 11.3408 15.8254 10.7685 15.4035 10.3465C14.9815 9.92455 14.4092 9.6875 13.8125 9.6875H11.5625V14.1875H13.8125Z" stroke="#F5A97F" stroke-width="0.75" stroke-linecap="round" stroke-linejoin="round"/>
<path d="M16.0625 17.5625C16.0625 18.1592 15.8254 18.7315 15.4035 19.1535C14.9815 19.5754 14.4092 19.8125 13.8125 19.8125C13.2158 19.8125 12.6435 19.5754 12.2215 19.1535C11.7996 18.7315 11.5625 18.1592 11.5625 17.5625C11.5625 16.9658 11.7996 16.3935 12.2215 15.9715C12.6435 15.5496 13.2158 15.3125 13.8125 15.3125C14.4092 15.3125 14.9815 15.5496 15.4035 15.9715C15.8254 16.3935 16.0625 16.9658 16.0625 17.5625Z" stroke="#91D7E3" stroke-width="0.75" stroke-linecap="round" stroke-linejoin="round"/>
<path d="M36.2317 10.7C36.2317 10.868 36.1197 10.896 35.9377 11.008C35.6997 11.148 35.5457 11.33 35.3637 11.582C35.1817 11.848 34.9997 12.212 34.8737 12.506C34.5237 13.276 31.4017 20.318 31.3037 20.5C31.2757 20.57 31.2337 20.612 31.1777 20.612H30.8557C30.7577 20.612 30.7437 20.584 30.7157 20.5C30.7157 20.5 27.8177 12.954 27.6497 12.506C27.3837 11.848 27.2017 11.428 26.9497 11.19C26.8237 11.064 26.7117 11.008 26.5857 10.952C26.4737 10.896 26.3897 10.84 26.3897 10.714C26.3897 10.56 26.5157 10.504 26.7817 10.504H28.7417C28.9377 10.504 29.0357 10.588 29.0357 10.728C29.0357 10.84 28.9517 10.896 28.8257 10.952C28.6157 11.05 28.4617 11.176 28.4617 11.414C28.4617 11.596 28.5597 11.904 28.7977 12.52C29.1477 13.388 31.1077 18.526 31.2617 18.932C31.2897 19.002 31.3037 19.03 31.3457 19.03C31.3877 19.03 31.4017 18.974 31.4297 18.918C31.5277 18.694 33.0957 15.04 33.6557 13.654C34.0197 12.786 34.3137 12.1 34.3137 11.61C34.3137 11.26 34.1597 11.078 33.8657 10.952C33.7117 10.882 33.6697 10.826 33.6697 10.714C33.6697 10.574 33.8097 10.504 34.0477 10.504H35.8537C36.1057 10.504 36.2317 10.56 36.2317 10.7ZM38.9778 10.896C38.9778 11.19 38.3898 11.778 38.0958 11.778C37.8158 11.778 37.2278 11.176 37.2278 10.896C37.2278 10.63 37.8158 10.028 38.0958 10.028C38.3898 10.028 38.9778 10.616 38.9778 10.896ZM39.2858 20.024C39.4538 20.122 39.4958 20.178 39.4958 20.262C39.4958 20.444 39.3558 20.5 39.1738 20.5H37.0878C36.9058 20.5 36.7658 20.444 36.7658 20.262C36.7658 20.178 36.8218 20.108 36.9758 20.024C37.1018 19.954 37.2838 19.856 37.3818 19.688C37.5218 19.478 37.5918 19.17 37.5918 18.19V14.998C37.5918 14.606 37.5778 14.382 37.4518 14.228C37.3538 14.116 37.1858 14.046 37.0178 14.004C36.7938 13.948 36.6958 13.878 36.6958 13.752C36.6958 13.626 36.7378 13.542 37.0738 13.458C37.5498 13.346 37.7738 13.276 38.1798 13.108C38.2778 13.066 38.3478 13.038 38.4178 13.038C38.5998 13.038 38.6698 13.178 38.6698 13.374V18.19C38.6698 19.17 38.7538 19.492 38.8798 19.688C38.9918 19.856 39.1598 19.954 39.2858 20.024ZM42.0017 15.894C42.0017 15.992 42.0437 16.02 42.1277 16.02H44.6337C45.4877 16.02 45.9217 15.852 45.9217 15.124C45.9217 14.424 45.3197 13.598 44.1997 13.598C42.6457 13.598 42.0017 15.292 42.0017 15.894ZM46.6777 18.708C46.8317 18.708 46.9437 18.834 46.9437 18.988C46.9437 19.282 46.5237 19.73 45.9637 20.108C45.4317 20.458 44.7597 20.654 44.0877 20.654C42.2117 20.654 40.7697 19.212 40.7697 17.042C40.7697 14.984 42.1697 13.038 44.3117 13.038C45.1097 13.038 45.8237 13.332 46.3137 13.808C46.7617 14.256 47.0977 14.9 47.0977 15.572C47.0977 16.286 46.8317 16.58 46.0197 16.58H42.0577C41.9597 16.58 41.9037 16.608 41.9037 16.72C41.9037 17.434 42.0297 18.204 42.4497 18.806C42.8697 19.422 43.4857 19.884 44.3397 19.884C44.8577 19.884 45.3197 19.716 45.6277 19.534C46.2437 19.17 46.4117 18.708 46.6777 18.708ZM59.7161 13.416C59.7161 13.556 59.5621 13.626 59.4221 13.71C59.2541 13.808 59.0861 13.906 58.8761 14.186C58.7221 14.396 58.5401 14.704 58.3301 15.264C58.0641 15.964 56.7761 19.674 56.4821 20.514C56.4681 20.57 56.4121 20.598 56.3561 20.598H55.7541C55.6841 20.598 55.6421 20.57 55.6281 20.514L53.6541 14.648C53.6401 14.62 53.6261 14.62 53.6121 14.62C53.5981 14.62 53.5841 14.62 53.5701 14.648L51.3581 20.486C51.3301 20.57 51.2881 20.598 51.1901 20.598H50.6301C50.5321 20.598 50.4901 20.57 50.4621 20.486L48.9501 15.264C48.7821 14.69 48.5721 14.158 48.3201 13.906C48.1801 13.766 48.0401 13.71 47.9281 13.654C47.8021 13.598 47.7321 13.528 47.7321 13.402C47.7321 13.248 47.8721 13.192 48.1521 13.192H50.1821C50.3921 13.192 50.5041 13.276 50.5041 13.416C50.5041 13.71 49.8461 13.654 49.8461 14.242C49.8461 14.452 49.9161 14.774 50.0701 15.278L51.1761 19.1C51.1901 19.142 51.2041 19.156 51.2181 19.156C51.2461 19.156 51.2601 19.156 51.2741 19.114L53.5141 13.192C53.5421 13.108 53.5841 13.094 53.6401 13.094H54.1721C54.2281 13.094 54.2561 13.108 54.2701 13.15L56.2861 19.1C56.3001 19.142 56.3141 19.156 56.3281 19.156C56.3561 19.156 56.3701 19.142 56.3841 19.1C56.5101 18.736 56.9721 17.378 57.2801 16.44C57.5881 15.502 57.7981 14.872 57.7981 14.424C57.7981 13.598 57.0981 13.766 57.0981 13.416C57.0981 13.262 57.2381 13.192 57.4761 13.192H59.3241C59.6041 13.192 59.7161 13.262 59.7161 13.416ZM66.3421 20.01C66.4541 20.066 66.5661 20.136 66.5661 20.276C66.5661 20.444 66.4121 20.5 66.1741 20.5H64.2281C63.9901 20.5 63.8361 20.444 63.8361 20.276C63.8361 20.136 63.9341 20.08 64.0741 20.01C64.2421 19.926 64.3821 19.8 64.4801 19.66C64.6061 19.464 64.6621 19.226 64.6621 18.246V12.618C64.6621 11.498 64.6061 11.26 64.3261 11.078C64.1021 10.938 63.9061 10.91 63.9061 10.728C63.9061 10.56 64.0321 10.504 64.2561 10.504H66.1461C66.3561 10.504 66.5101 10.56 66.5101 10.728C66.5101 10.91 66.3001 10.938 66.0901 11.078C65.7961 11.26 65.7401 11.498 65.7401 12.618V18.246C65.7401 19.226 65.8101 19.464 65.9221 19.66C66.0201 19.8 66.1321 19.898 66.3421 20.01ZM75.2144 20.01C75.3684 20.08 75.4384 20.164 75.4384 20.262C75.4384 20.444 75.2704 20.5 75.0884 20.5H73.0164C72.8344 20.5 72.6804 20.444 72.6804 20.262C72.6804 20.164 72.7364 20.08 72.8904 20.01C73.0164 19.954 73.1984 19.856 73.2964 19.688C73.4224 19.478 73.5204 19.156 73.5204 18.19V15.81C73.5204 14.606 72.9604 13.934 71.8964 13.934C71.4484 13.934 70.9724 14.088 70.6224 14.438C70.0624 14.998 69.9504 15.768 69.9504 18.19C69.9504 19.156 70.0484 19.478 70.1744 19.688C70.2724 19.856 70.4684 19.954 70.5804 20.01C70.7344 20.08 70.7904 20.164 70.7904 20.262C70.7904 20.444 70.6504 20.5 70.4544 20.5H68.3964C68.2284 20.5 68.0604 20.444 68.0604 20.262C68.0604 20.164 68.1164 20.08 68.2704 20.01C68.3964 19.954 68.5924 19.856 68.6904 19.688C68.8164 19.478 68.9144 19.156 68.9144 18.19V15.446C68.9144 14.76 68.9144 14.424 68.7464 14.214C68.6484 14.088 68.5084 14.046 68.2984 13.99C68.1444 13.948 68.0044 13.906 68.0044 13.738C68.0044 13.598 68.0604 13.514 68.3544 13.444C68.7884 13.346 69.1104 13.234 69.4324 13.094C69.5304 13.052 69.6004 13.038 69.6704 13.038C69.8664 13.038 69.9504 13.178 69.9504 13.36V14.27C69.9504 14.298 69.9504 14.34 69.9784 14.34C70.0064 14.34 70.0204 14.312 70.0484 14.27C70.4544 13.668 71.1964 13.038 72.3164 13.038C73.0444 13.038 73.6184 13.304 74.0104 13.738C74.5144 14.284 74.5984 15.11 74.5984 15.782V18.19C74.5984 19.156 74.6824 19.478 74.8084 19.688C74.9064 19.856 75.0884 19.954 75.2144 20.01ZM86.7475 12.534C86.7475 12.856 86.6355 12.968 86.4535 12.968C86.2995 12.968 86.1875 12.926 86.0755 12.632C85.8795 12.156 85.8235 11.764 85.3475 11.428C84.8715 11.106 83.9755 11.078 82.8135 11.078H82.0295C81.8335 11.078 81.7635 11.162 81.7635 11.33V15.068C81.7635 15.278 81.8195 15.348 82.0575 15.348C82.4075 15.348 82.8975 15.348 83.4855 15.32C84.1435 15.292 84.7035 15.222 85.1095 15.222C85.3615 15.222 85.5155 15.264 85.5155 15.46C85.5155 15.544 85.4875 15.614 85.4735 15.67C85.3755 16.062 85.3055 16.09 84.8295 16.09C84.4655 16.09 83.8915 16.034 83.3595 16.02C82.8275 16.006 82.2255 16.006 81.9315 16.006C81.8055 16.02 81.7635 16.062 81.7635 16.174V18.246C81.7635 19.226 81.8335 19.464 81.9455 19.66C82.0435 19.8 82.1695 19.926 82.3655 20.024C82.4635 20.094 82.5895 20.15 82.5895 20.276C82.5895 20.444 82.4355 20.5 82.1975 20.5H80.2515C80.0135 20.5 79.8595 20.444 79.8595 20.276C79.8595 20.15 79.9855 20.094 80.0975 20.024C80.2795 19.926 80.4055 19.8 80.5035 19.66C80.6295 19.464 80.6855 19.226 80.6855 18.246V12.394C80.6855 11.484 80.6715 11.274 80.3075 11.078C80.1535 10.98 79.9295 10.938 79.9295 10.742C79.9295 10.588 80.0555 10.504 80.2795 10.504H83.8775C85.2215 10.504 85.8375 10.392 86.1875 10.392C86.4395 10.392 86.6635 10.49 86.6775 10.77C86.7055 11.19 86.7195 12.03 86.7475 12.534ZM89.9328 10.896C89.9328 11.19 89.3448 11.778 89.0508 11.778C88.7708 11.778 88.1828 11.176 88.1828 10.896C88.1828 10.63 88.7708 10.028 89.0508 10.028C89.3448 10.028 89.9328 10.616 89.9328 10.896ZM90.2408 20.024C90.4088 20.122 90.4508 20.178 90.4508 20.262C90.4508 20.444 90.3108 20.5 90.1288 20.5H88.0428C87.8608 20.5 87.7208 20.444 87.7208 20.262C87.7208 20.178 87.7768 20.108 87.9308 20.024C88.0568 19.954 88.2388 19.856 88.3368 19.688C88.4768 19.478 88.5468 19.17 88.5468 18.19V14.998C88.5468 14.606 88.5328 14.382 88.4068 14.228C88.3088 14.116 88.1408 14.046 87.9728 14.004C87.7488 13.948 87.6508 13.878 87.6508 13.752C87.6508 13.626 87.6928 13.542 88.0288 13.458C88.5048 13.346 88.7288 13.276 89.1348 13.108C89.2328 13.066 89.3028 13.038 89.3728 13.038C89.5548 13.038 89.6248 13.178 89.6248 13.374V18.19C89.6248 19.17 89.7088 19.492 89.8348 19.688C89.9468 19.856 90.1148 19.954 90.2408 20.024ZM94.5247 13.598C93.6147 13.598 93.0827 14.41 93.0827 15.376C93.0827 16.622 93.7407 17.7 94.7627 17.7C95.6587 17.7 96.2047 16.916 96.2047 15.894C96.2047 14.536 95.4767 13.598 94.5247 13.598ZM96.5127 19.436C97.4227 19.59 98.0387 20.094 98.0387 20.906C98.0387 22.138 96.8907 23.202 94.5807 23.202C93.3627 23.202 92.4807 22.964 91.9487 22.516C91.5987 22.222 91.4307 21.83 91.4307 21.452C91.4307 21.102 91.5567 20.822 91.7947 20.584C91.9767 20.402 92.2287 20.276 92.4667 20.276C92.6347 20.276 92.7467 20.36 92.7467 20.486C92.7467 20.598 92.6907 20.654 92.6207 20.78C92.5507 20.892 92.4527 21.088 92.4527 21.382C92.4527 21.662 92.5927 21.942 92.8867 22.166C93.3207 22.488 93.9927 22.628 94.7487 22.628C96.0927 22.628 97.1287 22.054 97.1287 21.242C97.1287 20.682 96.6387 20.458 95.7847 20.374C95.1827 20.304 94.3007 20.276 93.6567 20.122C92.9427 19.954 92.5927 19.576 92.5927 19.1C92.5927 18.596 92.9147 18.232 93.4607 18.008C92.5507 17.588 91.9487 16.748 91.9487 15.684C91.9487 14.242 93.0547 13.038 94.6787 13.038C95.2107 13.038 95.8407 13.192 96.4567 13.64C96.5407 13.696 96.6107 13.724 96.6807 13.724C97.1007 13.724 96.9467 13.01 97.5767 13.01C97.8567 13.01 98.0807 13.192 98.0807 13.57C98.0807 14.004 97.7587 14.242 97.1567 14.242C97.0867 14.242 97.0307 14.242 96.9467 14.228C97.2407 14.69 97.3107 15.166 97.3107 15.53C97.3107 17.042 96.3587 18.148 94.7767 18.246C94.5387 18.26 94.3427 18.274 94.2587 18.288C93.9787 18.316 93.5727 18.4 93.5727 18.736C93.5727 19.03 93.8527 19.156 94.6087 19.24C95.1267 19.296 95.8547 19.324 96.5127 19.436ZM110.85 20.024C110.99 20.094 111.074 20.164 111.074 20.276C111.074 20.444 110.92 20.5 110.738 20.5H108.68C108.498 20.5 108.344 20.444 108.344 20.276C108.344 20.178 108.4 20.094 108.554 20.024C108.652 19.982 108.876 19.856 108.974 19.688C109.1 19.478 109.184 19.17 109.184 18.19V15.838C109.184 15.068 109.002 14.634 108.652 14.312C108.4 14.074 108.022 13.92 107.574 13.92C107.126 13.92 106.664 14.088 106.328 14.452C105.824 14.998 105.74 15.782 105.74 18.19C105.74 19.17 105.838 19.478 105.964 19.688C106.062 19.856 106.244 19.954 106.37 20.024C106.524 20.108 106.58 20.178 106.58 20.276C106.58 20.444 106.426 20.5 106.244 20.5H104.186C104.004 20.5 103.85 20.444 103.85 20.276C103.85 20.178 103.906 20.108 104.074 20.024C104.214 19.954 104.382 19.856 104.48 19.688C104.606 19.478 104.69 19.17 104.69 18.19V15.838C104.69 15.124 104.55 14.55 104.172 14.242C103.948 14.06 103.626 13.934 103.22 13.934C102.772 13.934 102.31 14.088 101.946 14.452C101.414 14.998 101.246 15.782 101.246 18.19C101.246 19.17 101.316 19.478 101.456 19.688C101.568 19.856 101.764 19.968 101.862 20.024C102.016 20.108 102.072 20.178 102.072 20.276C102.072 20.444 101.918 20.5 101.75 20.5H99.6916C99.5096 20.5 99.3556 20.444 99.3556 20.276C99.3556 20.178 99.4116 20.094 99.5656 20.024C99.6916 19.968 99.8736 19.856 99.9856 19.688C100.112 19.492 100.196 19.17 100.196 18.19V15.306C100.196 14.718 100.196 14.41 100.042 14.228C99.9436 14.116 99.7896 14.06 99.5936 14.004C99.4536 13.962 99.2996 13.92 99.2996 13.752C99.2996 13.626 99.3416 13.514 99.6496 13.444C100.098 13.346 100.406 13.234 100.728 13.094C100.826 13.052 100.896 13.038 100.966 13.038C101.162 13.038 101.246 13.192 101.246 13.374V14.298C101.246 14.326 101.26 14.34 101.274 14.34C101.288 14.34 101.302 14.326 101.33 14.284C101.736 13.682 102.478 13.038 103.598 13.038C104.704 13.038 105.348 13.654 105.614 14.298C105.628 14.34 105.642 14.354 105.656 14.354C105.684 14.354 105.698 14.34 105.726 14.298C106.132 13.696 106.846 13.038 107.98 13.038C108.89 13.038 109.534 13.5 109.884 14.06C110.192 14.564 110.234 15.04 110.234 15.81V18.19C110.234 19.17 110.318 19.478 110.444 19.688C110.542 19.856 110.724 19.954 110.85 20.024ZM116.488 16.664V16.454C116.488 16.426 116.474 16.398 116.446 16.398C116.432 16.398 116.418 16.398 116.39 16.426C115.83 16.888 114.78 17.154 114.024 17.63C113.492 17.966 113.268 18.428 113.268 18.876C113.268 19.59 113.8 20.038 114.486 20.038C115.088 20.038 115.774 19.702 116.152 18.918C116.474 18.246 116.488 17.546 116.488 16.664ZM118.14 19.716C118.322 19.716 118.336 19.87 118.336 19.926C118.336 20.248 117.93 20.654 117.454 20.654C117.034 20.654 116.614 20.374 116.53 19.52C116.53 19.492 116.53 19.464 116.502 19.464C116.488 19.464 116.474 19.478 116.446 19.52C115.984 20.276 115.102 20.654 114.234 20.654C113.128 20.654 112.064 19.996 112.064 18.862C112.064 18.316 112.344 17.784 112.89 17.406C113.646 16.874 114.5 16.762 115.312 16.384C116.152 15.992 116.488 15.46 116.488 14.886C116.488 14.2 116.054 13.612 115.214 13.612C114.752 13.612 114.402 13.752 114.094 14.004C113.59 14.41 113.38 14.914 113.212 15.138C113.142 15.25 113.058 15.348 112.918 15.348C112.61 15.348 112.61 14.984 112.61 14.732C112.61 14.382 112.68 13.92 112.834 13.71C113.03 13.472 113.436 13.29 113.884 13.178C114.234 13.08 114.654 13.038 115.032 13.038C116.026 13.038 116.614 13.374 117.006 13.808C117.552 14.424 117.58 15.264 117.58 15.978C117.58 16.734 117.538 17.56 117.538 18.386C117.538 19.016 117.538 19.744 117.93 19.744C117.986 19.744 118.084 19.716 118.14 19.716Z" fill="url(#paint0_linear_1483_1360)"/>
<defs>
<linearGradient id="paint0_linear_1483_1360" x1="26" y1="17" x2="119" y2="17" gradientUnits="userSpaceOnUse">
<stop stop-color="#ED8796"/>
<stop offset="0.184543" stop-color="#F5A97F"/>
<stop offset="0.412178" stop-color="#C6A0F6"/>
<stop offset="0.742395" stop-color="#91D7E3"/>
<stop offset="1" stop-color="#A6DA95"/>
</linearGradient>
</defs>
</svg>
