<svg width="303" height="303" viewBox="0 0 303 303" fill="none" xmlns="http://www.w3.org/2000/svg">
<rect width="303" height="303" rx="13" fill="#EBEBEB"/>
<path d="M74.0724 174.332C67.3092 167.568 67.3092 156.603 74.0725 149.84C80.8357 143.077 91.8011 143.077 98.5644 149.84L124.589 175.864C131.352 182.627 131.352 193.593 124.589 200.356C117.825 207.119 106.86 207.119 100.097 200.356L74.0724 174.332Z" fill="#554AF5"/>
<path d="M128.607 228.866C121.843 222.103 121.843 211.137 128.607 204.374C135.37 197.611 146.335 197.611 153.099 204.374C159.862 211.137 159.862 222.103 153.099 228.866C146.335 235.629 135.37 235.629 128.607 228.866Z" fill="#554AF5"/>
<path d="M78.8409 115.603C68.8542 105.616 68.8542 89.4243 78.8409 79.4376C88.8276 69.4509 105.019 69.4509 115.006 79.4376L223.501 187.932C233.488 197.919 233.488 214.111 223.501 224.097C213.514 234.084 197.323 234.084 187.336 224.097L78.8409 115.603Z" fill="#554AF5"/>
<path d="M178.411 128.081C171.648 121.318 171.648 110.353 178.411 103.589C185.175 96.8261 196.14 96.8261 202.903 103.589L228.928 129.614C235.691 136.377 235.691 147.342 228.928 154.106C222.164 160.869 211.199 160.869 204.436 154.106L178.411 128.081Z" fill="#554AF5"/>
<path d="M148.709 98.6269C141.946 91.8636 141.946 80.8982 148.709 74.1349C155.472 67.3717 166.438 67.3717 173.201 74.1349C179.964 80.8982 179.964 91.8636 173.201 98.6269C166.438 105.39 155.472 105.39 148.709 98.6269Z" fill="#554AF5"/>
</svg>
