<svg width="640" height="640" viewBox="0 0 640 640" fill="none" xmlns="http://www.w3.org/2000/svg">
<rect width="640" height="640" rx="60" fill="#130C2A"/>
<path d="M180.757 260.82V296.34H168.956V308.257H157.039V320.058H145.238V331.859H133.436V343.776H121.519V355.577H180.757V379.295H86V343.776H97.9169V331.859H109.718V320.058H121.519V308.257H133.436V296.34H145.238V284.538H86V260.82H180.757Z" fill="white"/>
<path d="M291.827 260.705V284.423H220.789V308.141H280.026V319.942H268.109V331.859H220.789V355.462H291.827V379.18H197.07V260.705H291.827Z" fill="white"/>
<path d="M391.097 272.737H402.898V320.058H391.097V331.859H379.18V343.776H391.097V355.577H402.898V379.295H379.18V367.379H367.378V355.577H355.462V343.776H331.859V379.295H308.141V260.82H391.097V272.737ZM379.18 320.058V284.538H331.859V320.058H379.18Z" fill="white"/>
<path d="M502.167 272.737H513.968V367.494H502.167V379.295H431.128V367.494H419.211V272.737H431.128V260.82H502.167V272.737ZM490.366 284.538H442.93V355.577H490.366V284.538Z" fill="white"/>
<path d="M530.282 355.577H554V379.18H530.282V355.577Z" fill="#7D12FF"/>
</svg>
