<svg width="329" height="329" viewBox="0 0 329 329" fill="none" xmlns="http://www.w3.org/2000/svg">
<rect width="328.127" height="328.479" fill="#FFF6EB"/>
<path d="M161.09 72.3039L161.09 72.3025C162.16 68.7563 163.137 65.4944 163.516 62.6822C163.896 59.8631 163.656 57.6163 162.424 56.0161C162.424 56.016 162.424 56.016 162.424 56.0159L162.82 55.7109L161.09 72.3039ZM161.09 72.3039L161.083 72.3273L161.082 72.3278L161.071 72.3657C157.554 84.0973 153.404 97.9378 163.163 113.303L163.165 113.305M161.09 72.3039L163.165 113.305M163.165 113.305C164.935 116.062 168.58 116.874 171.34 115.127L171.343 115.125M163.165 113.305L171.343 115.125M171.343 115.125C174.1 113.354 174.911 109.71 173.164 106.95L173.164 106.949M171.343 115.125L173.164 106.949M173.164 106.949C166.324 96.1558 169.55 85.2505 172.432 75.674L173.164 106.949ZM207.441 56.0171L207.441 56.0175C208.683 57.6165 208.923 59.861 208.541 62.6784C208.16 65.4891 207.178 68.7489 206.108 72.2941L206.106 72.3019L206.105 72.3033L206.104 72.3083C202.583 84.0529 198.428 97.9127 208.179 113.303L208.18 113.305C209.951 116.062 213.596 116.874 216.356 115.127L216.358 115.125C219.115 113.354 219.927 109.71 218.18 106.95L218.18 106.949C211.34 96.1558 214.566 85.2505 217.448 75.674L217.449 75.6686L217.45 75.6664L217.484 75.5519C220.42 65.7585 223.06 56.9519 216.786 48.7996L216.785 48.7984C214.786 46.2171 211.088 45.7343 208.504 47.7357C205.922 49.735 205.439 53.433 207.441 56.0171ZM116.051 72.3025L116.051 72.3033L116.049 72.3083C112.528 84.0529 108.373 97.9127 118.124 113.303L118.126 113.305C119.896 116.062 123.541 116.874 126.301 115.127L126.304 115.125C129.061 113.354 129.872 109.71 128.125 106.95L128.125 106.949C121.285 96.1558 124.511 85.2505 127.393 75.674L127.393 75.6735L127.395 75.6665L127.396 75.6664L127.43 75.5517C130.366 65.7585 133.006 56.9518 126.731 48.7996L126.73 48.7984C124.731 46.2171 121.033 45.7343 118.449 47.7357C115.868 49.7349 115.385 53.4328 117.386 56.0169C118.617 57.6171 118.857 59.8636 118.477 62.6822C118.098 65.4944 117.121 68.7563 116.051 72.3025ZM78.3379 137.563L78.3476 137.568L78.3575 137.573C82.2045 139.359 85.2255 142.102 87.4287 145.813C88.5379 148.034 89.5116 150.538 90.3481 153.326L90.3514 153.337L90.3551 153.348C91.3401 156.162 92.3955 159.187 93.5211 162.423C96.1973 171.579 98.9438 180.945 101.761 190.523L101.761 190.525C104.157 198.556 106.763 207.362 109.581 216.943L109.583 216.95C112.541 226.528 115.288 235.754 117.823 244.628L117.825 244.633C119.374 249.845 120.782 254.704 122.05 259.21L122.052 259.217L122.054 259.224C123.462 263.73 124.659 267.602 125.645 270.841C126.61 274.22 127.524 277.341 128.387 280.205C128.704 281.26 129.677 281.979 130.777 281.979H130.974C132.08 281.979 133.054 281.253 133.37 280.192C135.211 274.007 137.112 267.578 139.074 260.907C140.906 254.706 142.879 247.872 144.993 240.404C144.993 240.402 144.993 240.401 144.994 240.4L148.373 229.206L151.754 218.007C151.754 218.007 151.754 218.006 151.754 218.006C153.586 212.088 155.277 206.592 156.827 201.519L156.828 201.515C158.378 196.302 159.717 191.651 160.845 187.562C161.548 185.242 162.234 182.992 162.902 180.812C163.336 179.394 165.345 179.407 165.762 180.835L194.762 280.179C195.073 281.246 196.051 281.979 197.162 281.979H197.345C198.449 281.979 199.421 281.255 199.741 280.2C200.485 277.753 201.327 275.059 202.268 272.12L202.27 272.112L202.272 272.105L205.228 261.759C205.229 261.757 205.229 261.756 205.23 261.754C206.497 257.67 207.835 253.374 209.244 248.867L209.245 248.862C211.923 239.985 214.741 230.544 217.7 220.54C220.8 210.393 223.619 200.951 226.156 192.212C229.114 182.209 232.073 172.277 235.032 162.415L235.033 162.408C236.719 156.508 238.543 151.388 240.504 147.048L240.509 147.036L240.514 147.024C241.77 143.814 243.151 141.41 244.644 139.782L244.651 139.775L244.657 139.767C246.171 137.978 247.73 136.767 249.329 136.101L249.345 136.094L249.36 136.087C250.984 135.275 252.669 134.871 254.421 134.871H254.438L254.456 134.87C255.821 134.773 257.152 134.709 258.448 134.679C259.646 134.652 260.627 133.682 260.627 132.469C260.627 131.259 259.646 130.278 258.436 130.278H241.959C240.855 130.278 239.881 131.002 239.566 132.061C239.118 133.561 238.485 135.693 237.666 138.457L237.664 138.465L237.662 138.473C236.678 142.27 235.411 146.772 233.863 151.98C232.312 157.056 230.621 162.765 228.788 169.107C226.957 175.305 225.056 181.643 223.083 188.123L223.081 188.13C221.251 194.467 219.349 200.805 217.378 207.142L217.376 207.149C216.282 210.852 215.238 214.404 214.244 217.805C213.822 219.251 211.756 219.251 211.334 217.802C210.16 213.774 208.9 209.518 207.555 205.034C205.441 197.847 203.397 191.083 201.424 184.74C199.171 177.275 196.917 169.739 194.663 162.133C193.54 158.06 192.699 154.484 192.139 151.404C191.575 148.166 191.012 145.277 190.448 142.736C190.176 140.82 190.328 139.394 190.825 138.4C191.339 137.372 192.103 136.607 193.128 136.092C194.338 135.556 195.689 135.217 197.187 135.081L197.209 135.079L197.231 135.075C198.2 134.899 199.167 134.779 200.135 134.715C201.309 134.637 202.292 133.687 202.292 132.469C202.292 131.259 201.311 130.278 200.101 130.278H135.636C134.426 130.278 133.445 131.259 133.445 132.469C133.445 133.687 134.427 134.638 135.599 134.719C138.223 134.9 141.143 135.504 144.36 136.538C148.186 137.768 150.967 140.079 152.735 143.479L152.741 143.491L152.748 143.502C154.137 145.864 155.392 148.651 156.511 151.867L156.515 151.88L156.52 151.892C157.78 154.972 158.972 158.477 160.095 162.408L160.095 162.408L160.098 162.416L162.038 168.818C162.123 169.099 162.124 169.397 162.041 169.678C160.262 175.694 158.416 181.842 156.505 188.123L156.503 188.129C154.954 193.481 153.193 199.397 151.221 205.877L151.219 205.884C150.025 210.016 148.831 214.058 147.638 218.01C147.212 219.421 145.22 219.424 144.791 218.004C143.035 212.196 141.13 205.901 139.074 199.118C136.397 189.677 133.72 180.517 131.042 171.639C128.365 162.622 125.899 154.45 123.645 147.123C121.804 140.62 120.391 135.613 119.406 132.103C119.103 131.024 118.119 130.278 116.998 130.278H69.6909C68.4809 130.278 67.5 131.259 67.5 132.469C67.5 133.69 68.484 134.627 69.6374 134.744C72.3263 135.016 75.2253 135.949 78.3379 137.563Z" fill="#5E361C" stroke="#5E361C"/>
</svg>
